<svg width="261" height="90" viewBox="0 0 261 90" xmlns="http://www.w3.org/2000/svg">
<path d="M11.9775 84.7079L10.0439 79.5409H3.07227L1.14941 84.7079H0.225586L6.13379 69.2069H6.99316L12.8906 84.7079H11.9775ZM6.53125 70.3133L3.35156 78.7782H9.77539L6.58496 70.3133H6.53125ZM15.162 69.2069H20.1141C21.618 69.2069 22.8211 69.6294 23.7235 70.4745C24.633 71.3124 25.0877 72.4331 25.0877 73.8368C25.0877 75.2404 24.633 76.3612 23.7235 77.1991C22.8211 78.037 21.6144 78.4559 20.1034 78.4559H16.0106V84.7079H15.162V69.2069ZM16.0106 69.9803V77.6825H19.9745C21.285 77.6825 22.3198 77.3387 23.0789 76.6512C23.8452 75.9637 24.2284 75.0256 24.2284 73.8368C24.2284 72.6408 23.8452 71.6991 23.0789 71.0116C22.3198 70.3241 21.285 69.9803 19.9745 69.9803H16.0106ZM27.7243 69.2069H32.6764C34.1804 69.2069 35.3835 69.6294 36.2858 70.4745C37.1953 71.3124 37.6501 72.4331 37.6501 73.8368C37.6501 75.2404 37.1953 76.3612 36.2858 77.1991C35.3835 78.037 34.1768 78.4559 32.6657 78.4559H28.5729V84.7079H27.7243V69.2069ZM28.5729 69.9803V77.6825H32.5368C33.8473 77.6825 34.8822 77.3387 35.6413 76.6512C36.4076 75.9637 36.7907 75.0256 36.7907 73.8368C36.7907 72.6408 36.4076 71.6991 35.6413 71.0116C34.8822 70.3241 33.8473 69.9803 32.5368 69.9803H28.5729ZM49.2349 84.7079L47.3013 79.5409H40.3296L38.4068 84.7079H37.4829L43.3911 69.2069H44.2505L50.148 84.7079H49.2349ZM43.7886 70.3133L40.6089 78.7782H47.0327L43.8423 70.3133H43.7886ZM53.2679 69.9803V77.3172H57.4037C58.6999 77.3172 59.7132 76.9914 60.4437 76.3397C61.1813 75.688 61.5502 74.7928 61.5502 73.6542C61.5502 72.5012 61.1778 71.6024 60.433 70.9579C59.6953 70.3062 58.6748 69.9803 57.3714 69.9803H53.2679ZM53.2679 78.0907V84.7079H52.4193V69.2069H57.4466C58.9792 69.2069 60.1895 69.6044 61.0775 70.3993C61.9727 71.187 62.4203 72.2648 62.4203 73.6327C62.4203 74.7499 62.1016 75.6916 61.4642 76.4579C60.834 77.217 59.9567 77.7075 58.8324 77.9296L62.8177 84.7079H61.8295L57.9515 78.0585C57.8011 78.0799 57.6185 78.0907 57.4037 78.0907H53.2679ZM70.3957 84.7079H69.5471V69.9911H64.1115V69.2069H75.8205V69.9911H70.3957V84.7079Z" fill="white"/>
<path d="M35.9326 63L30.1318 47.499H9.2168L3.44824 63H0.676758L18.4014 16.4971H20.9795L38.6719 63H35.9326ZM19.5938 19.8164L10.0547 45.2109H29.3262L19.7549 19.8164H19.5938ZM47.9995 63H45.4859V16.4971H48.1284L77.7446 58.3594H77.938V16.4971H80.4839V63H78.0669L48.1929 20.8799H47.9995V63ZM109.212 63.6768C102.981 63.6768 98.0079 61.4961 94.2911 57.1348C90.5957 52.752 88.7481 46.8652 88.7481 39.4746C88.7481 32.2344 90.5957 26.4873 94.2911 22.2334C97.9864 17.958 102.96 15.8203 109.212 15.8203C113.939 15.8203 118.042 17.3135 121.522 20.2998C125.003 23.2646 126.99 26.96 127.484 31.3857H124.939C124.444 27.6475 122.693 24.5215 119.686 22.0078C116.699 19.4727 113.208 18.2051 109.212 18.2051C103.755 18.2051 99.4151 20.1172 96.1924 23.9414C92.9698 27.7656 91.3584 32.9434 91.3584 39.4746C91.3584 46.1348 92.9698 51.4414 96.1924 55.3945C99.4366 59.3262 103.776 61.292 109.212 61.292C113.337 61.292 116.86 60.1641 119.782 57.9082C122.726 55.6309 124.444 52.6445 124.939 48.9492H127.484C126.947 53.3535 124.992 56.9092 121.619 59.6162C118.268 62.3232 114.132 63.6768 109.212 63.6768ZM169.941 63H167.395V40.2803H137.972V63H135.426V16.4971H137.972V37.96H167.395V16.4971H169.941V63ZM183.845 22.2979C187.583 17.9795 192.621 15.8203 198.959 15.8203C205.297 15.8203 210.335 17.9795 214.073 22.2979C217.812 26.6162 219.681 32.4277 219.681 39.7324C219.681 47.0801 217.812 52.9131 214.073 57.2314C210.357 61.5283 205.318 63.6768 198.959 63.6768C192.6 63.6768 187.551 61.5283 183.813 57.2314C180.096 52.9131 178.237 47.0801 178.237 39.7324C178.237 32.4277 180.107 26.6162 183.845 22.2979ZM198.959 18.2051C193.416 18.2051 189.012 20.1494 185.746 24.0381C182.481 27.9268 180.848 33.1582 180.848 39.7324C180.848 46.3281 182.481 51.5703 185.746 55.459C189.033 59.3477 193.438 61.292 198.959 61.292C204.481 61.292 208.874 59.3477 212.14 55.459C215.427 51.5703 217.07 46.3281 217.07 39.7324C217.07 33.1582 215.427 27.9268 212.14 24.0381C208.874 20.1494 204.481 18.2051 198.959 18.2051ZM230.491 18.8174V40.8281H242.898C246.787 40.8281 249.827 39.8506 252.018 37.8955C254.231 35.9404 255.337 33.2549 255.337 29.8389C255.337 26.3799 254.22 23.6836 251.986 21.75C249.773 19.7949 246.712 18.8174 242.801 18.8174H230.491ZM230.491 43.1484V63H227.945V16.4971H243.027C247.625 16.4971 251.255 17.6895 253.92 20.0742C256.605 22.4375 257.948 25.6709 257.948 29.7744C257.948 33.126 256.992 35.9512 255.08 38.25C253.189 40.5273 250.557 41.999 247.184 42.665L259.14 63H256.175L244.542 43.0518C244.09 43.1162 243.543 43.1484 242.898 43.1484H230.491Z" fill="white"/>
</svg>
