<svg xmlns="http://www.w3.org/2000/svg" xmlns:xlink="http://www.w3.org/1999/xlink" width="123" height="46" viewBox="0 0 123 46">
    <defs>
        <linearGradient id="b" x1="50%" x2="50%" y1="0%" y2="38.913%">
            <stop offset="0%" stop-color="#FBDA09"/>
            <stop offset="100%" stop-color="#FFBC00"/>
        </linearGradient>
        <path id="a" d="M12.162 2.762c.893-1.624 2.34-1.624 3.233 0L27.818 25.35c.893 1.623.106 2.94-1.735 2.94H1.475c-1.851 0-2.628-1.317-1.735-2.94l12.422-22.59z"/>
        <linearGradient id="c" x1="0%" x2="69.306%" y1="58.476%" y2="39.083%">
            <stop offset="0%" stop-color="#01E2FF"/>
            <stop offset="100%" stop-color="#01C4FF"/>
        </linearGradient>
        <linearGradient id="e" x1="20.281%" x2="83.82%" y1="20.102%" y2="83.621%">
            <stop offset="0%" stop-color="#28D781"/>
            <stop offset="100%" stop-color="#02F076"/>
        </linearGradient>
        <linearGradient id="f" x1="74.488%" x2="10.108%" y1="17.43%" y2="91.184%">
            <stop offset="0%" stop-color="#F2414E"/>
            <stop offset="100%" stop-color="#E02554"/>
        </linearGradient>
    </defs>
    <g fill="none" fill-rule="evenodd">
        <rect width="122" height="45" x=".5" y=".5" fill="#FCF8EC" stroke="#F0F0F0" rx="22.5"/>
        <g transform="translate(16 8)">
            <mask id="d" fill="#fff">
                <use xlink:href="#a"/>
            </mask>
            <use fill="url(#b)" transform="rotate(90 13.779 14.905)" xlink:href="#a"/>
            <path fill="url(#c)" d="M.817-.01l14.277 14.676L.633 29.922z" mask="url(#d)"/>
            <path fill="url(#e)" d="M-2.119-3.032L15.092 14.67l5.117-5.049z" mask="url(#d)"/>
            <path fill="url(#f)" d="M15.094 14.667l7.834 8.166L-.474 31z" mask="url(#d)"/>
        </g>
        <g fill="#262626">
            <path d="M86.938 30.575l-.57.535c-.132.072-.263.155-.394.215-.397.179-.8.223-1.158.223-.38 0-.978-.024-1.587-.462-.847-.593-1.217-1.612-1.217-2.5 0-1.838 1.506-2.74 2.733-2.74.43 0 .87.108 1.23.333.595.391.75.9.835 1.173l-2.805 1.126-.918.071c.297 1.507 1.323 2.384 2.457 2.384.566 0 .986-.183 1.372-.373 0 0 .077-.04.022.015zm-1.692-2.998c.228-.082.346-.154.346-.319 0-.473-.54-1.02-1.182-1.02-.477 0-1.372.37-1.372 1.65 0 .2.024.413.036.626l2.172-.937z"/>
            <path d="M81.074 30.483c0 .46.083.532.475.568.204.024.408.035.61.059l-.441.26h-2.102c.275-.355.323-.39.323-.627v-.265l-.005-7.049h-.928l.893-.428h1.706c-.37.213-.48.343-.528.757l-.003 6.725z"/>
            <path d="M77.814 26.429c.274.223.846.698.846 1.6 0 .877-.498 1.291-1 1.683-.155.154-.335.321-.335.58 0 .262.18.404.31.51l.431.331c.524.44 1.002.843 1.002 1.661 0 1.116-1.086 2.24-3.138 2.24-1.729 0-2.564-.818-2.564-1.695 0-.427.213-1.032.919-1.446.74-.45 1.742-.51 2.278-.544-.168-.215-.359-.44-.359-.808 0-.201.06-.321.12-.462-.13.012-.262.025-.382.025-1.265 0-1.98-.938-1.98-1.863 0-.545.25-1.15.764-1.589.68-.556 1.49-.652 2.135-.652h2.458l-.764.429h-.74zm-.845 5.263c-.098-.012-.157-.012-.275-.012-.108 0-.752.023-1.251.19-.264.095-1.028.379-1.028 1.221 0 .84.824 1.446 2.1 1.446 1.144 0 1.753-.545 1.753-1.28 0-.605-.394-.924-1.3-1.565zm.343-2.253c.276-.273.3-.651.3-.866 0-.853-.512-2.18-1.503-2.18-.31 0-.645.154-.835.392-.201.247-.262.567-.262.875 0 .794.466 2.111 1.49 2.111.3 0 .621-.144.81-.332zM70.418 31.524c-1.896 0-2.91-1.468-2.91-2.796 0-1.553 1.275-2.881 3.09-2.881 1.753 0 2.851 1.364 2.851 2.797 0 1.4-1.085 2.88-3.03 2.88zm1.492-.959c.289-.38.359-.853.359-1.315 0-1.044-.5-3.035-1.98-3.035-.394 0-.79.152-1.076.402-.465.415-.549.936-.549 1.448 0 1.171.583 3.103 2.028 3.103.467 0 .944-.224 1.218-.603zM64.07 31.524c-1.896 0-2.91-1.468-2.91-2.796 0-1.553 1.276-2.881 3.09-2.881 1.752 0 2.85 1.364 2.85 2.797 0 1.4-1.084 2.88-3.03 2.88zm1.492-.959c.287-.38.358-.853.358-1.315 0-1.044-.502-3.035-1.98-3.035a1.66 1.66 0 0 0-1.073.402c-.467.415-.55.936-.55 1.448 0 1.171.585 3.103 2.029 3.103a1.53 1.53 0 0 0 1.216-.603zM60.403 31.113l-1.6.363c-.647.102-1.23.192-1.845.192-3.085 0-4.26-2.257-4.26-4.023 0-2.158 1.665-4.157 4.517-4.157a6.59 6.59 0 0 1 1.713.231c.838.234 1.23.522 1.475.692l-.93.877-.39.087.278-.443c-.378-.367-1.073-1.045-2.393-1.045-1.764 0-3.095 1.333-3.095 3.28 0 2.09 1.52 4.056 3.957 4.056.716 0 1.085-.143 1.42-.277v-1.792l-1.689.09.895-.477h2.37l-.29.277c-.078.066-.089.089-.11.177a7.9 7.9 0 0 0-.023.536v1.356zM90.376 30.625v3.02h-.603v-7.684h.603v.875a2.402 2.402 0 0 1 1.946-1.014c1.496 0 2.504 1.128 2.504 2.914 0 1.774-1.008 2.926-2.504 2.926-.788 0-1.493-.404-1.946-1.037zm3.801-1.889c0-1.346-.705-2.372-1.957-2.372-.777 0-1.52.607-1.844 1.136v2.46c.323.53 1.067 1.16 1.844 1.16 1.252 0 1.957-1.036 1.957-2.384zM95.65 31.524v-7.685h.603v7.685h-.603zM103.024 33.149c.128.056.348.092.488.092.37 0 .626-.15.857-.68l.44-.991-2.377-5.61h.673l2.04 4.862 2.018-4.861h.683l-2.9 6.786c-.3.699-.773 1.035-1.423 1.035-.195 0-.452-.035-.603-.08l.104-.553zM101.261 31.507c-.04-.193-.07-.363-.093-.505a3.304 3.304 0 0 1-.029-.433c-.207.301-.5.553-.874.75a2.42 2.42 0 0 1-1.22.298c-.587 0-1.043-.144-1.369-.436-.325-.29-.488-.686-.488-1.185 0-.498.237-.903.708-1.213.472-.31 1.082-.465 1.835-.465h1.408v-.691c0-.398-.137-.711-.41-.938-.273-.227-.657-.343-1.155-.343-.455 0-.824.105-1.105.31-.278.209-.418.467-.418.779h-.618l-.013-.03c-.022-.42.171-.789.583-1.107.409-.318.945-.478 1.605-.478.658 0 1.19.158 1.592.472.4.31.602.76.602 1.348v2.744a3.606 3.606 0 0 0 .154 1.124h-.695v-.001zm-2.141-.437c.513 0 .88-.114 1.258-.34.374-.223.628-.515.761-.869v-1.068h-1.414c-.54 0-.987.119-1.339.359-.352.239-.53.528-.53.864 0 .317.112.571.337.763.226.195.534.29.927.29z"/>
            <g>
                <path d="M52.015 14.64c0-2.126 1.584-3.493 3.555-3.493 1.32 0 2.183.628 2.722 1.397l-.965.558a2.187 2.187 0 0 0-1.757-.902c-1.34 0-2.336 1.013-2.336 2.44 0 1.407.996 2.439 2.336 2.439.691 0 1.3-.314 1.605-.607v-1.043h-2.031v-1.042h3.209v2.52a3.664 3.664 0 0 1-2.783 1.235c-1.97 0-3.555-1.386-3.555-3.502zM59.822 11.258h4.64v1.043H61.01v1.741h3.382v1.043H61.01v1.883h3.453v1.043h-4.64zM67.751 18.01v-5.708H65.7v-1.043h5.29v1.043h-2.05v5.709zM75.12 18.01v-6.752h1.188v6.753zM79.618 18.01v-5.708h-2.052v-1.043h5.291v1.043h-2.051v5.709zM86.693 14.64c0-2.015 1.432-3.493 3.463-3.493 2.02 0 3.463 1.478 3.463 3.493 0 2.014-1.443 3.492-3.463 3.492-2.032 0-3.463-1.478-3.463-3.492zm5.707 0c0-1.397-.884-2.44-2.244-2.44-1.37 0-2.245 1.043-2.245 2.44 0 1.386.874 2.439 2.245 2.439 1.36 0 2.244-1.053 2.244-2.44zM99.729 18.01l-3.534-4.828v4.829h-1.188v-6.753h1.22l3.462 4.678v-4.678h1.188v6.753z"/>
            </g>
        </g>
    </g>
</svg>
