<svg xmlns="http://www.w3.org/2000/svg" width="88" height="88" viewBox="0 0 88 88">
    <g fill="none" fill-rule="evenodd">
        <circle cx="44" cy="44" r="44" fill="#FCF8EC"/>
        <path fill="#262626" d="M61.68 47.063c-.677 0-1.265.595-1.265 1.282v14.094l-7.589-.002v-7.688c0-3.523-2.846-6.406-6.324-6.406-3.478 0-6.324 2.883-6.324 6.406v7.688H32.59V48.343c0-.687-.587-1.282-1.265-1.282-.678 0-1.265.595-1.265 1.282l.002 15.375c0 .687.587 1.282 1.265 1.282H61.68c.678 0 1.265-.595 1.265-1.282l-.002-15.375c0-.687-.585-1.28-1.263-1.28zM42.71 54.75c0-2.106 1.716-3.843 3.793-3.843 2.079 0 3.794 1.74 3.794 3.843v7.688h-7.587v-7.688zm25.07-16.106l-5.061-7.688a.354.354 0 0 0-.18-.182s0-.047-.046-.047c-.046-.046-.09-.046-.09-.091-.046 0-.09-.047-.09-.047-.046 0-.09-.046-.09-.046-.046 0-.09-.046-.136-.046-.046 0-.046-.047-.09-.047-.09 0-.18-.046-.271-.046l-30.4.003c-.09 0-.18 0-.227.047-.046 0-.09.046-.136.046-.045 0-.045 0-.09.047-.045 0-.09.046-.135.046-.046 0-.046.047-.09.047-.046.046-.09.046-.09.09-.09-.003-.09.044-.136.044-.046.046-.09.137-.18.182l-5.015 7.688c-.136.228-.226.457-.226.733 0 3.523 2.846 6.406 6.324 6.406 2.078 0 3.885-1.007 5.059-2.564 1.175 1.556 2.982 2.564 5.058 2.564 2.079 0 3.886-1.007 5.059-2.564 1.175 1.556 2.982 2.564 5.059 2.564 2.078 0 3.885-1.007 5.058-2.564 1.175 1.556 2.982 2.564 5.059 2.564 3.478 0 6.324-2.883 6.324-6.406.003-.276-.088-.505-.222-.733zm-6.099 4.575c-2.078 0-3.793-1.739-3.793-3.842v-3.843c0-.687-.588-1.282-1.265-1.282-.678 0-1.266.595-1.266 1.282v3.843c0 2.105-1.716 3.842-3.793 3.842-2.079 0-3.794-1.739-3.794-3.842v-3.843c0-.687-.587-1.282-1.265-1.282-.678 0-1.265.595-1.265 1.282v3.843c0 2.105-1.717 3.842-3.794 3.842-2.078 0-3.793-1.739-3.793-3.842v-3.843c0-.687-.588-1.282-1.265-1.282-.678 0-1.266.595-1.266 1.282v3.843c0 2.105-1.716 3.842-3.793 3.842a3.806 3.806 0 0 1-3.794-3.478l4.471-6.772h29l4.47 6.772a3.809 3.809 0 0 1-3.795 3.478zM30.06 27.845v-2.563c0-.687.588-1.282 1.266-1.282H61.68c.678 0 1.265.595 1.265 1.282v2.563c0 .686-.587 1.281-1.265 1.281-.677 0-1.265-.595-1.265-1.281v-1.282H32.59v1.282c0 .686-.588 1.281-1.265 1.281-.678-.001-1.264-.595-1.264-1.281z"/>
    </g>
</svg>
