<svg width="28" height="28" viewBox="0 0 28 28" fill="none" xmlns="http://www.w3.org/2000/svg">
<path d="M7.38574 20.281C7.38574 20.9208 7.90801 21.4431 8.55059 21.4431H9.88223V24.7353C9.88223 25.5693 10.5521 26.2501 11.3752 26.2501C12.201 26.2501 12.8682 25.572 12.8682 24.7353V21.4403H15.1924V24.7325C15.1924 25.5665 15.8623 26.2474 16.6854 26.2474C17.5111 26.2474 18.1783 25.5693 18.1783 24.7325V21.4403H19.51C20.1525 21.4403 20.6748 20.9181 20.6748 20.2782V9.47199H7.38574V20.281ZM17.1502 3.87199L18.3779 2.09465C18.449 1.99074 18.4326 1.85129 18.3369 1.78293C18.2412 1.7173 18.1045 1.75011 18.0334 1.85402L16.7592 3.70246C15.9197 3.3716 14.9846 3.1884 14.0029 3.1884C13.0213 3.1884 12.0861 3.3716 11.2467 3.70246L9.97246 1.85675C9.90137 1.75285 9.76465 1.7173 9.66895 1.78566C9.57324 1.85129 9.55684 1.988 9.62793 2.09738L10.8557 3.87472C8.90332 4.78254 7.53613 6.50246 7.36113 8.51222H20.6502C20.4697 6.49972 19.0998 4.7798 17.1502 3.87199ZM11.1975 6.67472C11.052 6.67472 10.9098 6.63158 10.7888 6.55076C10.6679 6.46994 10.5736 6.35506 10.5179 6.22066C10.4622 6.08625 10.4477 5.93836 10.476 5.79568C10.5044 5.653 10.5745 5.52193 10.6774 5.41907C10.7802 5.3162 10.9113 5.24614 11.054 5.21776C11.1966 5.18938 11.3445 5.20395 11.4789 5.25962C11.6133 5.31529 11.7282 5.40957 11.809 5.53053C11.8899 5.65149 11.933 5.7937 11.933 5.93918C11.9325 6.1341 11.8548 6.3209 11.717 6.45873C11.5792 6.59656 11.3924 6.67422 11.1975 6.67472ZM16.8959 6.67472C16.7504 6.67472 16.6082 6.63158 16.4872 6.55076C16.3663 6.46994 16.272 6.35506 16.2163 6.22066C16.1607 6.08625 16.1461 5.93836 16.1745 5.79568C16.2029 5.653 16.2729 5.52193 16.3758 5.41907C16.4787 5.3162 16.6097 5.24614 16.7524 5.21776C16.8951 5.18938 17.043 5.20395 17.1774 5.25962C17.3118 5.31529 17.4267 5.40957 17.5075 5.53053C17.5883 5.65149 17.6314 5.7937 17.6314 5.93918C17.6309 6.1341 17.5533 6.3209 17.4155 6.45873C17.2776 6.59656 17.0908 6.67422 16.8959 6.67472ZM23.0045 9.42824C22.1787 9.42824 21.5115 10.1064 21.5115 10.9431V16.8603C21.5115 17.6943 22.1814 18.3751 23.0045 18.3751C23.8303 18.3751 24.4975 17.697 24.4975 16.8603V10.9403C24.5002 10.1036 23.833 9.42824 23.0045 9.42824ZM4.9959 9.42824C4.17012 9.42824 3.50293 10.1064 3.50293 10.9431V16.8603C3.50293 17.6943 4.17285 18.3751 4.9959 18.3751C5.82168 18.3751 6.48887 17.697 6.48887 16.8603V10.9403C6.48887 10.1036 5.81895 9.42824 4.9959 9.42824Z" fill="#212121"/>
</svg>
