<svg width="145" height="48" viewBox="0 0 145 48" fill="none" xmlns="http://www.w3.org/2000/svg">
<rect width="145" height="48.0006" rx="24.0003" fill="#212121"/>
<path d="M45 30.0447C44.3718 31.4038 44.0713 32.01 43.261 33.2115C42.132 34.8881 40.5387 36.9779 38.5675 36.9956C36.8149 37.0112 36.3642 35.883 33.9856 35.8964C31.607 35.9097 31.1108 37.0156 29.3582 37.0001C27.387 36.9823 25.8779 35.0969 24.7489 33.418C21.5919 28.73 21.2618 23.2248 23.2079 20.2978C24.5919 18.217 26.7747 17 28.8278 17C30.9173 17 32.233 18.1193 33.9606 18.1193C35.6381 18.1193 36.6601 17 39.0751 17C40.9029 17 42.8376 17.9705 44.217 19.6494C39.7011 22.0655 40.434 28.3614 45 30.0447Z" fill="white"/>
<path d="M37.5343 15.0476C38.4853 13.9981 39.2072 12.516 38.946 11C37.3938 11.0912 35.578 11.9414 34.5161 13.0503C33.5528 14.0574 32.7594 15.548 33.0674 16.9983C34.7625 17.0449 36.5167 16.1735 37.5343 15.0476Z" fill="white"/>
<path d="M54.3982 20L50 33.0002H52.0133L53.3252 29.009H57.5819L58.9314 33.0002H61L56.5841 20H54.3982ZM55.4425 22.1378C55.5907 22.7178 55.7522 23.32 55.958 23.9712L57.1438 27.4179H53.7721L54.9403 23.9489C55.115 23.3867 55.2832 22.78 55.4425 22.1378Z" fill="white"/>
<path d="M66.9835 24C65.6491 24 64.5803 24.504 63.8699 25.4601L63.7925 24.2012H62L62.0111 24.3612C62.0642 25.1443 62.0863 26.0095 62.0863 27.2468V37.0002H64.0447V32.4512C64.6533 33.1628 65.6226 33.576 66.7224 33.576C67.8665 33.576 68.9221 33.1369 69.6899 32.343C70.5486 31.4562 71 30.1821 71 28.6593C71 27.3138 70.6061 26.1501 69.8626 25.2957C69.1323 24.4607 68.1099 24 66.9835 24ZM66.4945 25.5855C68.2405 25.5855 69.0216 27.1668 69.0216 28.7328C69.0216 30.7532 68.0236 32.0099 66.4192 32.0099C65.3238 32.0099 64.3767 31.281 64.1111 30.234C64.0647 30.0718 64.0425 29.8576 64.0425 29.6132V28.0731C64.0425 27.9347 64.0735 27.7638 64.1045 27.6015C64.1134 27.5496 64.1244 27.4977 64.1333 27.4458C64.4254 26.3491 65.3969 25.5855 66.4945 25.5855Z" fill="white"/>
<path d="M76.9813 24C75.6469 24 74.5781 24.504 73.8677 25.4601L73.7903 24.2012H72L72.0089 24.3612C72.062 25.1464 72.0841 26.0095 72.0841 27.2468V37.0002H74.0425V32.4512C74.6511 33.1628 75.6204 33.576 76.7202 33.576C77.8643 33.576 78.9198 33.1369 79.6899 32.343C80.5463 31.4562 81 30.1821 81 28.6593C81 27.3138 80.6061 26.1501 79.8603 25.2957C79.1301 24.4607 78.1077 24 76.9813 24ZM76.4923 25.5855C78.2383 25.5855 79.0194 27.1668 79.0194 28.7328C79.0194 30.7532 78.0214 32.0099 76.417 32.0099C75.3216 32.0099 74.3723 31.281 74.1089 30.234C74.0625 30.0718 74.0403 29.8576 74.0403 29.6132V28.0731C74.0403 27.9325 74.0713 27.7638 74.1023 27.5994C74.1111 27.5475 74.1222 27.4955 74.1311 27.4458C74.4232 26.3491 75.3946 25.5855 76.4923 25.5855Z" fill="white"/>
<path d="M89.6809 25.5395C87.8459 24.8503 87.2572 24.3097 87.2572 23.3082C87.2572 22.4661 87.9481 21.6153 89.4921 21.6153C90.7651 21.6153 91.5804 22.0439 91.8003 22.1775L91.967 22.2765L92.5224 20.6849L92.4135 20.6224C92.0847 20.4351 91.145 20 89.5498 20C87.0417 20 85.291 21.4344 85.291 23.4891C85.291 25.1454 86.3885 26.3041 88.7434 27.1333C90.4118 27.7385 91.0339 28.3566 91.0339 29.4184C91.0339 30.6202 90.0764 31.3654 88.5346 31.3654C87.5304 31.3654 86.4974 31.0811 85.6998 30.5858L85.5287 30.4802L85 32.1085L85.0978 32.171C85.8398 32.6512 87.2372 33.0002 88.4213 33.0002C91.8003 33.0002 93 31.0015 93 29.2914C92.9978 27.5296 92.038 26.4419 89.6809 25.5395Z" fill="white"/>
<path d="M96.5086 22L94.4837 22.6134V24.2648H93V25.8533H94.4837V30.7221C94.4837 31.8994 94.717 32.724 95.1975 33.2452C95.6594 33.7328 96.3686 34.0001 97.1944 34.0001C97.9759 34.0001 98.5288 33.8519 98.79 33.762L98.9067 33.7215L98.8087 32.1286L98.6104 32.187C98.3491 32.2634 98.0809 32.2948 97.6493 32.2948C96.8491 32.2948 96.5086 31.8073 96.5086 30.6636V25.8555H99V24.267H96.5086V22Z" fill="white"/>
<path d="M103.564 24C100.877 24 99 26.0872 99 29.0757C99 31.9739 100.816 34.0001 103.419 34.0001H103.436C105.634 34.0001 108 32.4053 108 28.9041C108 27.481 107.577 26.2589 106.776 25.3666C105.969 24.4744 104.857 24 103.564 24ZM103.508 25.579C105.235 25.579 106.023 27.3319 106.023 28.9628C106.023 30.9664 104.949 32.4212 103.471 32.4212H103.451C101.995 32.4212 100.936 30.9913 100.936 29.0193C100.938 27.307 101.732 25.579 103.508 25.579Z" fill="white"/>
<path d="M115 24.0946L114.88 24.0646C114.703 24.0208 114.557 24 114.38 24C113.33 24 112.385 24.6298 111.861 25.6448L111.802 24.2168H110L110.011 24.3875C110.066 25.1949 110.086 26.1038 110.086 27.3288L110.068 34.0001H112.077V28.7936C112.077 28.5099 112.095 28.2423 112.131 28.0024C112.358 26.7521 113.187 25.9447 114.244 25.9447C114.451 25.9447 114.612 25.9608 114.784 25.9793L115 26.0023V24.0946Z" fill="white"/>
<path d="M119.261 24C116.752 24 115 26.1279 115 29.1729C115 32.1049 116.744 34.0001 119.442 34.0001C120.86 34.0001 121.848 33.6703 122.425 33.3925L122.538 33.3383L122.176 31.8474L122.018 31.9152C121.505 32.1365 120.822 32.3624 119.657 32.3624C118.837 32.3624 116.95 32.0755 116.833 29.4643L122.917 29.4846L122.943 29.3558C122.981 29.1525 123 28.8792 123 28.5223C123 26.4351 122.02 24 119.261 24ZM119.135 25.5202C119.71 25.5202 120.174 25.7077 120.519 26.0804C121.062 26.6655 121.156 27.5284 121.169 27.9418H116.87C117.044 26.7875 117.726 25.5202 119.135 25.5202Z" fill="white"/>
<path d="M50.0024 11.1418C50.5872 11.0597 51.2668 11 52.0126 11C53.3646 11 54.326 11.2861 54.9629 11.8483C55.6212 12.4105 56 13.2164 56 14.3309C56 15.4553 55.6212 16.3732 54.9511 17.0075C54.2597 17.6518 53.135 18.0001 51.719 18.0001C51.0371 18.0001 50.4878 17.9802 50 17.918V11.1418H50.0024ZM50.9542 17.2439C51.191 17.2837 51.5367 17.2837 51.9061 17.2837C53.9163 17.2936 55.0079 16.2215 55.0079 14.3607C55.0197 12.7164 54.0466 11.704 52.0576 11.704C51.5722 11.704 51.2028 11.7463 50.9542 11.796V17.2439Z" fill="white"/>
<path d="M58.4525 18.0001C57.0769 18.0001 56 17.0525 56 15.5397C56 13.938 57.1302 13 58.5359 13C60.0065 13 61 13.9981 61 15.4507C61 17.228 59.6776 18.0001 58.4641 18.0001H58.4525ZM58.4826 17.3483C59.3696 17.3483 60.0366 16.5667 60.0366 15.482C60.0366 14.6715 59.6035 13.6542 58.5035 13.6542C57.415 13.6542 56.9379 14.6018 56.9379 15.5109C56.9379 16.557 57.5725 17.3483 58.4711 17.3483H58.4826Z" fill="white"/>
<path d="M62.8944 13L63.5422 15.5327C63.6709 16.0911 63.8018 16.6167 63.8912 17.1349H63.9218C64.0309 16.6293 64.1901 16.0911 64.3493 15.5428L65.1368 13H65.8741L66.6201 15.5C66.799 16.0886 66.9386 16.6268 67.0477 17.1323H67.0782C67.1589 16.6268 67.2876 16.0986 67.4469 15.5101L68.134 13H69L67.4469 18.0001H66.6507L65.9134 15.6132C65.7432 15.0448 65.6036 14.5493 65.4858 13.9608H65.4662C65.3462 14.5594 65.1979 15.0875 65.0277 15.6233L64.2512 18.0001H63.455L62 13H62.8944Z" fill="white"/>
<path d="M70.0379 14.4332C70.0379 13.9169 70.0274 13.5138 70 13.1106H70.7499L70.7983 13.9095H70.8173C71.049 13.4548 71.5861 13 72.3549 13C72.9995 13 74 13.4032 74 15.0797V17.9976H73.1553V15.1805C73.1553 14.3938 72.8752 13.7276 72.079 13.7276C71.5313 13.7276 71.0974 14.1406 70.9437 14.6372C70.9057 14.7478 70.8868 14.9101 70.8868 15.0502V18.0001H70.04V14.4332H70.0379Z" fill="white"/>
<path d="M76 11H77V18.0001H76V11Z" fill="white"/>
<path d="M80.4525 18.0001C79.0792 18.0001 78 17.0525 78 15.5397C78 13.938 79.1302 13 80.5382 13C82.0065 13 83 13.9981 83 15.4507C83 17.228 81.6776 18.0001 80.4618 18.0001H80.4525ZM80.4849 17.3483C81.3719 17.3483 82.0389 16.5667 82.0389 15.482C82.0389 14.6715 81.6058 13.6542 80.5058 13.6542C79.4173 13.6542 78.9403 14.6018 78.9403 15.5109C78.9403 16.557 79.5748 17.3483 80.4734 17.3483H80.4849Z" fill="white"/>
<path d="M86.9274 16.744C86.9274 17.1579 86.9478 17.5645 87 17.8894H86.1809L86.097 17.2878H86.0675C85.7975 17.6632 85.2484 18.0001 84.5338 18.0001C83.5196 18.0001 83 17.3191 83 16.6261C83 15.4687 84.0777 14.8359 86.013 14.848V14.7493C86.013 14.3547 85.8996 13.6328 84.8741 13.6425C84.3976 13.6425 83.9098 13.77 83.5581 13.9986L83.3517 13.4163C83.7669 13.1684 84.3772 13 85.0079 13C86.5508 13 86.9229 13.9986 86.9229 14.9562V16.744H86.9274ZM86.038 15.4495C85.0442 15.4303 83.9144 15.5987 83.9144 16.5275C83.9144 17.1001 84.3069 17.3576 84.7629 17.3576C85.4254 17.3576 85.8497 16.963 85.9949 16.5563C86.0267 16.4673 86.0357 16.3687 86.0357 16.2796V15.4495H86.038Z" fill="white"/>
<path d="M92.9569 11V16.679C92.9569 17.0973 92.9689 17.5723 93 17.8937H92.1351L92.092 17.0784H92.0705C91.7758 17.603 91.1409 18.0001 90.276 18.0001C88.9967 18.0001 88.0001 17.0382 88.0001 15.6108C87.9881 14.0368 89.0949 13.0868 90.3743 13.0868C91.196 13.0868 91.7422 13.4271 91.9722 13.7958H91.9938V11H92.9569ZM91.9938 15.1074C91.9938 14.9916 91.9842 14.8545 91.9507 14.7387C91.8093 14.2046 91.2847 13.758 90.5611 13.758C89.5669 13.758 88.9752 14.5355 88.9752 15.5635C88.9752 16.5254 89.5118 17.31 90.5396 17.31C91.184 17.31 91.7758 16.9224 91.9507 16.2914C91.9842 16.1756 91.9938 16.0575 91.9938 15.9227V15.1074Z" fill="white"/>
<path d="M98.4514 18.0001C97.0787 18.0001 96 17.0525 96 15.5397C96 13.938 97.1319 13 98.537 13C100.007 13 101 13.9981 101 15.4507C101 17.228 99.6782 18.0001 98.4653 18.0001H98.4514ZM98.4838 17.3483C99.3704 17.3483 100.037 16.5667 100.037 15.482C100.037 14.6715 99.6042 13.6542 98.5046 13.6542C97.4167 13.6542 96.9398 14.6018 96.9398 15.5109C96.9398 16.557 97.5741 17.3483 98.4722 17.3483H98.4838Z" fill="white"/>
<path d="M102.038 14.4332C102.038 13.9169 102.027 13.5138 102 13.1106H102.75L102.798 13.9095H102.817C103.049 13.4548 103.586 13 104.355 13C104.999 13 106 13.4032 106 15.0797V17.9976H105.153V15.1805C105.153 14.3938 104.875 13.7276 104.077 13.7276C103.529 13.7276 103.095 14.1406 102.942 14.6372C102.904 14.7478 102.885 14.9101 102.885 15.0502V18.0001H102.038V14.4332Z" fill="white"/>
<path d="M110.683 12V13.1388H112V13.7967H110.683V16.3613C110.683 16.9498 110.862 17.2848 111.373 17.2848C111.622 17.2848 111.769 17.2656 111.906 17.2249L111.947 17.8828C111.769 17.9427 111.487 18.0001 111.132 18.0001C110.704 18.0001 110.358 17.8613 110.138 17.6364C109.886 17.3709 109.783 16.9474 109.783 16.3876V13.7991H109V13.1412H109.783V12.2656L110.683 12Z" fill="white"/>
<path d="M113.002 11H113.857V13.9771H113.876C114.012 13.73 114.224 13.5045 114.488 13.3653C114.741 13.207 115.04 13.1183 115.361 13.1183C115.99 13.1183 117 13.5117 117 15.1573V17.9953H116.146V15.2581C116.146 14.4785 115.865 13.8379 115.06 13.8379C114.507 13.8379 114.08 14.2314 113.914 14.7063C113.865 14.8239 113.854 14.9534 113.854 15.1214V18.0001H113V11H113.002Z" fill="white"/>
<path d="M119.798 15.6588C119.817 16.8355 120.521 17.3191 121.344 17.3191C121.935 17.3191 122.3 17.2108 122.6 17.0809L122.75 17.6945C122.458 17.834 121.953 18.0001 121.231 18.0001C119.844 18.0001 119 17.0207 119 15.5891C119 14.1357 119.815 13 121.136 13C122.616 13 123 14.3739 123 15.2546C123 15.4327 122.992 15.5698 122.973 15.6685L119.798 15.6588ZM122.206 15.038C122.214 14.4942 121.99 13.6232 121.071 13.6232C120.227 13.6232 119.872 14.4341 119.807 15.038H122.206Z" fill="white"/>
</svg>
