<svg width="44" height="54" viewBox="0 0 44 54" fill="none" xmlns="http://www.w3.org/2000/svg">
<path d="M20.667 53.6667V41.2667C19.3337 43.3467 16.667 45.9067 11.4137 47.8267C11.4137 47.8267 12.747 43.2667 16.507 40.2C13.0403 40.9467 7.81366 40.84 0.666992 37.6667C0.666992 37.6667 7.25366 33.9067 14.747 34.92C10.507 32.3334 5.20033 27.2134 1.12033 16.6267C1.12033 16.6267 13.1203 19.9067 19.0937 30.04C13.6803 16.9734 22.0003 0.333374 22.0003 0.333374C28.4803 14.92 27.0937 24.6 24.987 29.9334C30.987 19.88 42.8803 16.6267 42.8803 16.6267C38.8003 27.2134 33.4937 32.3334 29.2537 34.92C36.747 33.9067 43.3337 37.6667 43.3337 37.6667C36.187 40.84 30.9603 40.9467 27.4937 40.2C31.2537 43.2667 32.587 47.8267 32.587 47.8267C27.3337 45.9067 24.667 43.3467 23.3337 41.2667V53.6667H20.667Z" fill="#212121"/>
</svg>
