<svg width="28" height="54" viewBox="0 0 28 54" fill="none" xmlns="http://www.w3.org/2000/svg">
<path d="M23.3337 51.72L21.0937 51.48C19.067 51.2934 17.3337 49.9334 16.667 47.9867C15.2537 42.747 15.2537 37.2264 16.667 31.9867C22.8537 30.7334 27.3337 25.32 27.3337 19C27.3337 13.6667 22.0003 0.333374 22.0003 0.333374H6.00033C6.00033 0.333374 0.666992 13.6667 0.666992 19C0.666365 22.0738 1.72775 25.0533 3.67151 27.4344C5.61527 29.8156 8.32202 31.452 11.3337 32.0667C12.747 37.2934 12.747 42.84 11.3337 48.0667C10.6937 49.9867 8.98699 51.3467 6.98699 51.56L4.66699 51.8C4.66699 51.8 3.33366 51.7467 3.33366 53.6667H24.667C24.667 51.7467 23.3337 51.72 23.3337 51.72ZM7.17366 13.6667L9.84032 5.66671H18.1603L20.827 13.6667H7.17366Z" fill="#212121"/>
</svg>
