<svg width="52" height="49" viewBox="0 0 52 49" fill="none" xmlns="http://www.w3.org/2000/svg">
<path d="M14.6005 27.5734L3.42719 16.4267C1.42945 14.4232 0.307617 11.7094 0.307617 8.88008C0.307617 6.05078 1.42945 3.33691 3.42719 1.33341L22.1472 20.0001L14.6005 27.5734ZM32.6805 22.7467L28.7605 26.6667L47.1072 45.0134L43.3472 48.7734L25.0005 30.4267L6.65385 48.7734L2.89385 45.0134L28.9205 18.9867C27.0272 14.9067 28.3605 9.17341 32.6005 4.93341C37.6939 -0.186592 45.0005 -1.14659 48.8939 2.74674C52.8139 6.66674 51.8539 13.9734 46.7339 19.0667C42.4939 23.3067 36.7605 24.6401 32.6805 22.7467Z" fill="#212121"/>
</svg>
