<svg xmlns="http://www.w3.org/2000/svg" width="178.164" height="48.984" viewBox="0 0 178.164 48.984">
  <g id="ECL001_Eclipse_Logo_Lockup_Monogram_RGB_Black" data-name="ECL001_Eclipse Logo_Lockup_Monogram_RGB_Black" transform="translate(-0.022)">
    <path id="Path_1" data-name="Path 1" d="M39.494,28.21a24.357,24.357,0,0,0,.289-3.771A24.608,24.608,0,0,0,16.187,0V8.743h-.453a15.72,15.72,0,0,0-.013,31.441h.453v8.8c17.543,0,21.641-14.891,21.641-14.891h-10.3A13.256,13.256,0,0,1,16.2,40.02V28.2H30.474ZM16.237,20.265V8.951A15.588,15.588,0,0,1,30.11,19.705l.176.559Z" transform="translate(0)" fill="#a2a4a7"/>
    <path id="Path_2" data-name="Path 2" d="M110.236,32.958c0-5.324-3.312-9.818-9.391-9.818-5.538,0-9.535,4.067-9.535,10.057,0,5.657,3.96,9.818,9.535,9.818,4.89,0,8.272-2.514,9.208-6.367H105.7c-.629,1.546-2.414,2.627-4.714,2.627a4.823,4.823,0,0,1-5.148-4.821h14.394ZM95.917,31.123a4.865,4.865,0,0,1,4.928-4.243,4.608,4.608,0,0,1,4.928,4.243Z" transform="translate(-33.908 -8.595)" fill="#a2a4a7"/>
    <path id="Path_3" data-name="Path 3" d="M125,33.071a9.574,9.574,0,0,1,9.894-9.931c4.859,0,8.636,2.986,9.353,7.448h-4.79a4.626,4.626,0,0,0-4.532-3.2c-3.143,0-5.179,2.514-5.179,5.657,0,3.275,2.118,5.657,5.211,5.657a4.463,4.463,0,0,0,4.463-3.055H144.2c-.717,4.4-4.456,7.3-9.315,7.3a9.569,9.569,0,0,1-9.894-9.925Z" transform="translate(-46.418 -8.595)" fill="#a2a4a7"/>
    <path id="Path_4" data-name="Path 4" d="M160.12,33.125V12.15h4.67V32.691c0,1.081.541,1.659,1.515,1.659h.754v4.1H165.3c-3.313,0-5.179-1.98-5.179-5.324Z" transform="translate(-59.467 -4.513)" fill="#a2a4a7"/>
    <rect id="Rectangle_6" data-name="Rectangle 6" width="4.676" height="18.926" transform="translate(110.471 15.016)" fill="#a2a4a7"/>
    <path id="Path_5" data-name="Path 5" d="M204.342,33.088c0-3.457-2.049-5.657-5.11-5.657s-5.028,2.514-5.028,5.657c0,3.526,2.156,5.657,5.072,5.657,3.023,0,5.072-2.338,5.072-5.657m-14.715-9.428h4.614v2.407h.251a6.594,6.594,0,0,1,5.657-2.879c5.286,0,8.919,3.96,8.919,9.856s-3.6,10-8.8,10a6.562,6.562,0,0,1-5.758-2.91h-.251v9.78H189.59Z" transform="translate(-70.413 -8.612)" fill="#a2a4a7"/>
    <path id="Path_6" data-name="Path 6" d="M224.34,36.9h4.318c.176,1.615,1.471,2.483,3.6,2.483s3.382-.937,3.382-2.269c0-4.029-10.861-.214-10.861-8.127,0-3.206,2.766-5.8,7.442-5.8,4.1,0,7.159,2.087,7.448,5.864h-4.136c-.22-1.364-1.295-2.263-3.344-2.263-1.886,0-3.143.823-3.143,2.049,0,3.6,11.113-.182,11.113,8.02,0,3.6-2.917,6.185-7.983,6.185s-7.656-2.439-7.832-6.147" transform="translate(-83.321 -8.614)" fill="#a2a4a7"/>
    <path id="Path_7" data-name="Path 7" d="M267.823,31.118a4.618,4.618,0,0,0-4.934-4.249,4.871,4.871,0,0,0-4.928,4.249Zm-14.457,2.049c0-5.971,3.991-10.057,9.529-10.057,6.084,0,9.391,4.5,9.391,9.824v1.471H257.892a4.836,4.836,0,0,0,5.142,4.821c2.307,0,4.067-1.075,4.714-2.627H272.1c-.937,3.853-4.318,6.367-9.215,6.367-5.575,0-9.529-4.167-9.529-9.818" transform="translate(-94.1 -8.584)" fill="#a2a4a7"/>
    <path id="Path_8" data-name="Path 8" d="M177.912,16.477a2.389,2.389,0,1,0-2.382-2.389,2.389,2.389,0,0,0,2.382,2.389" transform="translate(-65.191 -4.346)" fill="#a2a4a7"/>
  </g>
</svg>
