<svg xmlns="http://www.w3.org/2000/svg" width="19.485" height="15.835" viewBox="0 0 19.485 15.835">
  <path id="Twitter" d="M23.059,12.2a7.954,7.954,0,0,1-2.3.629,4,4,0,0,0,1.758-2.212,8,8,0,0,1-2.539.971,4,4,0,0,0-6.811,3.646,11.35,11.35,0,0,1-8.24-4.177A4,4,0,0,0,6.168,16.4a3.986,3.986,0,0,1-1.811-.5c0,.017,0,.034,0,.051a4,4,0,0,0,3.207,3.92,4.019,4.019,0,0,1-1.053.14,3.961,3.961,0,0,1-.752-.072,4,4,0,0,0,3.734,2.776,8.066,8.066,0,0,1-5.918,1.655,11.369,11.369,0,0,0,17.5-9.578q0-.26-.011-.518A8.1,8.1,0,0,0,23.059,12.2Z" transform="translate(-3.574 -10.326)" fill="#5a5b5d"/>
</svg>
