<?xml version="1.0" encoding="utf-8"?>
<!-- Generator: Adobe Illustrator 24.3.0, SVG Export Plug-In . SVG Version: 6.00 Build 0)  -->
<svg version="1.1" id="Logo" xmlns="http://www.w3.org/2000/svg" xmlns:xlink="http://www.w3.org/1999/xlink" x="0px" y="0px"
	 viewBox="0 0 325.8 325.8" style="enable-background:new 0 0 325.8 325.8;" xml:space="preserve" width="150" height="150">
<style type="text/css">
	.st0{fill-rule:evenodd;clip-rule:evenodd;fill:#7E7F73;}
	.st1{fill-rule:evenodd;clip-rule:evenodd;}
	.st2{fill-rule:evenodd;clip-rule:evenodd;fill:#E84621;}
	.st3{fill-rule:evenodd;clip-rule:evenodd;fill:#FFFFFF;}
	.st4{fill:none;stroke:#000000;stroke-width:0.882;stroke-miterlimit:22.926;}
</style>
<g id="Base">
	<g>
		<path class="st0" d="M162.9,0c89.9,0,162.9,72.9,162.9,162.9s-72.9,162.9-162.9,162.9C72.9,325.8,0,252.8,0,162.9S72.9,0,162.9,0"
			/>
		<path class="st1" d="M162.9,16.3c-81,0-146.6,65.7-146.6,146.6c0,81,65.7,146.6,146.6,146.6s146.6-65.7,146.6-146.6
			C309.5,81.9,243.8,16.3,162.9,16.3 M162.9,50.9c61.8,0,112,50.1,112,112c0,61.8-50.1,112-112,112c-61.8,0-112-50.1-112-112
			C50.9,101,101,50.9,162.9,50.9"/>
		<path class="st2" d="M162.9,269.9c58.9,0,107-48,107-107c0-58.9-48.1-107-107-107s-107,48.1-107,107
			C55.9,221.8,104,269.9,162.9,269.9"/>
		<path class="st3" d="M23.3,105c-0.7-1.7-1.4-3.5-2.1-5.3c-1.8,0.7-3.5,1.4-5.3,2.2c0.7,1.8,1.4,3.6,2.2,5.3
			C19.8,106.5,21.5,105.8,23.3,105 M12.2,174.7c-1.4-1.2-2.8-2.5-4.2-3.7c-1.3,1.4-2.5,2.9-3.7,4.4c1.4,1.3,2.9,2.5,4.3,3.7
			C9.8,177.6,11,176.1,12.2,174.7 M15.9,198.2c-1.6-1-3.2-2-4.8-3c-1,1.6-2,3.2-3,4.9c1.6,1,3.2,2,4.9,3
			C14,201.4,14.9,199.7,15.9,198.2L15.9,198.2z M13.6,186.5c-1.5-1.1-3-2.2-4.5-3.4c-1.1,1.5-2.3,3.1-3.4,4.6
			c1.5,1.2,3.1,2.3,4.6,3.4C11.4,189.6,12.5,188,13.6,186.5 M19.1,209.6c-1.7-0.8-3.3-1.7-5-2.7c-0.9,1.7-1.7,3.4-2.6,5.1
			c1.7,0.9,3.4,1.8,5.1,2.6C17.5,212.9,18.3,211.3,19.1,209.6 M11.8,162.9c-1.3-1.3-2.6-2.7-3.9-4.1c-1.4,1.3-2.7,2.7-4,4.1
			c1.3,1.4,2.7,2.7,4,4.1C9.1,165.5,10.5,164.2,11.8,162.9 M34.2,256.4c1.9,0.3,3.8,0.6,5.6,0.9c0.2-1.9,0.5-3.7,0.8-5.6
			c-1.9-0.3-3.7-0.6-5.6-1C34.7,252.6,34.5,254.5,34.2,256.4 M41.9,266.2c1.9,0.2,3.8,0.3,5.7,0.5c0.1-1.9,0.2-3.8,0.3-5.6
			c-1.9-0.1-3.7-0.3-5.6-0.5C42.2,262.4,42,264.3,41.9,266.2 M27.3,246c1.9,0.5,3.7,0.9,5.6,1.4c0.4-1.9,0.8-3.7,1.2-5.5
			c-1.8-0.4-3.6-0.9-5.5-1.4C28.1,242.3,27.7,244.1,27.3,246L27.3,246z M23.3,220.7c-1.7-0.7-3.5-1.5-5.2-2.2
			c-0.7,1.7-1.5,3.5-2.2,5.3c1.8,0.8,3.5,1.5,5.3,2.2C21.8,224.2,22.5,222.5,23.3,220.7 M22.9,229.7c-0.6,1.8-1.2,3.6-1.7,5.5
			c1.8,0.6,3.6,1.2,5.4,1.8c0.5-1.8,1.1-3.6,1.7-5.4C26.5,230.9,24.7,230.3,22.9,229.7 M50.4,269.6c0,1.9,0,3.8,0,5.7
			c1.9,0,3.8,0,5.7,0c-0.1-1.9-0.1-3.8-0.1-5.6C54.2,269.7,52.3,269.7,50.4,269.6 M78.4,293c0.4,1.8,0.9,3.7,1.3,5.6
			c1.9-0.4,3.7-0.8,5.6-1.3c-0.5-1.8-1-3.6-1.4-5.5C82.1,292.2,80.3,292.6,78.4,293 M59.1,278.1c0.1,1.9,0.3,3.8,0.5,5.7
			c1.9-0.1,3.8-0.3,5.7-0.4c-0.2-1.9-0.4-3.8-0.5-5.6C62.9,277.9,61,278,59.1,278.1L59.1,278.1z M88.9,299.2
			c0.6,1.8,1.1,3.6,1.8,5.4c1.8-0.6,3.7-1.1,5.4-1.7c-0.6-1.8-1.3-3.6-1.8-5.3C92.5,298.1,90.7,298.7,88.9,299.2 M99.8,304.6
			c0.7,1.8,1.4,3.5,2.2,5.3c1.8-0.7,3.6-1.4,5.3-2.2c-0.8-1.7-1.5-3.4-2.3-5.2C103.3,303.2,101.6,303.9,99.8,304.6 M68.5,285.9
			c0.3,1.9,0.6,3.8,0.9,5.7c1.9-0.3,3.8-0.5,5.7-0.9c-0.4-1.9-0.7-3.7-1-5.6C72.2,285.4,70.3,285.7,68.5,285.9 M158.8,317.9
			c1.3,1.4,2.7,2.7,4,4c1.4-1.3,2.7-2.7,4.1-4c-1.4-1.3-2.7-2.6-4.1-3.9C161.6,315.3,160.2,316.6,158.8,317.9 M134.6,315.4
			c1.1,1.6,2.2,3.1,3.4,4.6c1.6-1.1,3.1-2.2,4.6-3.4c-1.2-1.5-2.3-3-3.4-4.5C137.8,313.3,136.2,314.3,134.6,315.4 M111.1,309.1
			c0.8,1.7,1.7,3.4,2.6,5.1c1.7-0.8,3.4-1.7,5.1-2.6c-0.9-1.7-1.8-3.3-2.7-5C114.5,307.5,112.8,308.3,111.1,309.1 M146.7,317.1
			c1.2,1.5,2.4,2.9,3.7,4.3c1.5-1.2,2.9-2.4,4.4-3.7c-1.3-1.4-2.5-2.8-3.7-4.2C149.6,314.7,148.2,315.9,146.7,317.1 M122.7,312.7
			c1,1.6,2,3.3,3,4.9c1.7-1,3.3-2,4.9-3c-1-1.6-2.1-3.2-3-4.8C126,310.8,124.4,311.8,122.7,312.7 M206.9,311.6
			c1.7,0.9,3.4,1.7,5.1,2.6c0.9-1.7,1.8-3.4,2.6-5.1c-1.7-0.8-3.4-1.6-5.1-2.5C208.7,308.3,207.8,310,206.9,311.6 M218.5,307.7
			c1.7,0.8,3.5,1.5,5.3,2.2c0.8-1.8,1.5-3.5,2.2-5.3c-1.8-0.7-3.5-1.3-5.3-2.1C220,304.2,219.3,306,218.5,307.7 M195.1,314.6
			c1.6,1,3.2,2,4.9,3c1-1.6,2-3.2,3-4.9c-1.6-0.9-3.3-1.9-4.9-2.9C197.2,311.4,196.2,313,195.1,314.6 M183.1,316.7
			c1.5,1.1,3.1,2.3,4.6,3.4c1.2-1.5,2.3-3.1,3.4-4.6c-1.6-1.1-3.1-2.1-4.6-3.2C185.4,313.7,184.3,315.2,183.1,316.7 M171,317.8
			c1.4,1.3,2.9,2.5,4.4,3.7c1.3-1.4,2.5-2.9,3.7-4.3c-1.5-1.2-2.9-2.4-4.4-3.6C173.5,315,172.3,316.4,171,317.8 M240.5,297.2
			c1.8,0.5,3.7,0.9,5.6,1.3c0.5-1.9,0.9-3.7,1.3-5.6c-1.9-0.4-3.7-0.8-5.5-1.2C241.4,293.6,241,295.4,240.5,297.2 M260.5,283.4
			c1.9,0.2,3.8,0.3,5.7,0.4c0.2-1.9,0.3-3.8,0.5-5.7c-1.9-0.1-3.8-0.2-5.6-0.4C260.9,279.6,260.7,281.5,260.5,283.4 M269.6,275.4
			c1.9,0,3.8,0,5.7,0c0-1.9,0-3.8,0-5.7c-1.9,0.1-3.8,0.1-5.6,0.1C269.7,271.6,269.7,273.5,269.6,275.4 M250.7,290.7
			c1.9,0.3,3.8,0.6,5.7,0.9c0.3-1.9,0.6-3.8,0.9-5.7c-1.9-0.2-3.7-0.5-5.6-0.8C251.4,287,251.1,288.8,250.7,290.7 M229.7,302.9
			c1.8,0.6,3.6,1.2,5.5,1.7c0.6-1.8,1.2-3.6,1.8-5.4c-1.8-0.5-3.6-1.1-5.4-1.7C230.9,299.3,230.3,301.1,229.7,302.9 M297.5,231.5
			c0.6,1.8,1.1,3.6,1.7,5.4c1.8-0.6,3.6-1.2,5.4-1.8c-0.6-1.8-1.1-3.7-1.7-5.5C301.1,230.3,299.3,230.9,297.5,231.5 M285.1,251.7
			c0.3,1.8,0.6,3.7,0.8,5.6c1.9-0.3,3.8-0.6,5.6-0.9c-0.3-1.9-0.5-3.8-0.9-5.7C288.8,251.1,287,251.4,285.1,251.7 M291.7,241.9
			c0.4,1.8,0.8,3.7,1.2,5.5c1.9-0.4,3.7-0.9,5.6-1.4c-0.4-1.9-0.8-3.7-1.3-5.6C295.4,241,293.6,241.4,291.7,241.9 M277.8,261
			c0.2,1.9,0.3,3.7,0.3,5.6c1.9-0.1,3.8-0.3,5.7-0.5c-0.1-1.9-0.2-3.8-0.4-5.7C281.5,260.7,279.6,260.9,277.8,261 M313.5,174.7
			c1.2,1.4,2.4,2.9,3.6,4.3c1.5-1.2,2.9-2.4,4.3-3.7c-1.2-1.5-2.5-2.9-3.7-4.4C316.4,172.3,315,173.5,313.5,174.7 M302.5,220.7
			c0.7,1.7,1.4,3.5,2.1,5.3c1.8-0.7,3.5-1.4,5.3-2.2c-0.7-1.8-1.4-3.6-2.2-5.3C306,219.3,304.2,220,302.5,220.7 M306.6,209.6
			c0.9,1.7,1.7,3.4,2.5,5.1c1.7-0.8,3.4-1.7,5.1-2.6c-0.8-1.7-1.7-3.4-2.6-5.1C310,207.9,308.3,208.7,306.6,209.6 M309.8,198.2
			c1,1.6,1.9,3.2,2.9,4.9c1.6-1,3.3-2,4.9-3c-1-1.7-2-3.3-3-4.9C313,196.2,311.4,197.2,309.8,198.2L309.8,198.2z M312.2,186.5
			c1.1,1.5,2.2,3.1,3.2,4.6c1.6-1.1,3.1-2.2,4.6-3.4c-1.1-1.6-2.2-3.1-3.4-4.6C315.2,184.3,313.7,185.4,312.2,186.5 M306.6,116.2
			c1.7,0.9,3.3,1.7,5,2.7c0.9-1.7,1.7-3.4,2.6-5.1c-1.7-0.9-3.4-1.8-5.1-2.6C308.3,112.8,307.5,114.5,306.6,116.2 M309.8,127.6
			c1.6,1,3.2,2,4.8,3c1-1.6,2-3.2,3-4.9c-1.6-1-3.2-2-4.9-3C311.8,124.4,310.8,126,309.8,127.6 M314,162.9c1.3,1.3,2.6,2.7,3.9,4.1
			c1.4-1.3,2.7-2.7,4-4.1c-1.3-1.4-2.7-2.7-4-4.1C316.6,160.2,315.3,161.6,314,162.9 M313.5,151c1.4,1.2,2.8,2.5,4.2,3.7
			c1.3-1.4,2.5-2.9,3.7-4.4c-1.4-1.3-2.9-2.5-4.3-3.7C316,148.2,314.7,149.6,313.5,151 M312.2,139.3c1.5,1.1,3,2.2,4.5,3.4
			c1.1-1.5,2.3-3.1,3.4-4.6c-1.5-1.2-3.1-2.3-4.6-3.4C314.3,136.2,313.3,137.8,312.2,139.3 M285.1,74c1.8,0.3,3.7,0.6,5.6,1
			c0.3-1.9,0.6-3.8,0.9-5.7c-1.9-0.3-3.8-0.6-5.6-0.9C285.7,70.3,285.4,72.2,285.1,74 M298.5,79.7c-1.9-0.5-3.7-0.9-5.6-1.3
			c-0.4,1.9-0.8,3.7-1.2,5.5c1.8,0.4,3.6,0.9,5.5,1.4C297.7,83.5,298.1,81.6,298.5,79.7 M302.9,96.1c0.6-1.8,1.2-3.6,1.7-5.5
			c-1.8-0.6-3.6-1.2-5.4-1.8c-0.5,1.8-1.1,3.6-1.7,5.4C299.3,94.8,301.1,95.4,302.9,96.1 M302.5,105c1.7,0.7,3.5,1.5,5.2,2.3
			c0.8-1.7,1.5-3.5,2.2-5.3c-1.8-0.8-3.5-1.5-5.3-2.2C303.9,101.6,303.2,103.3,302.5,105L302.5,105z M277.8,64.7
			c1.9,0.1,3.7,0.3,5.6,0.5c0.2-1.9,0.3-3.8,0.4-5.7c-1.9-0.2-3.8-0.3-5.7-0.5C278,61,277.9,62.9,277.8,64.7 M236.9,26.6
			c-0.6-1.8-1.2-3.6-1.8-5.4c-1.8,0.5-3.7,1.1-5.5,1.7c0.6,1.8,1.3,3.6,1.8,5.3C233.3,27.6,235.1,27.1,236.9,26.6 M226,21.2
			c-0.7-1.8-1.4-3.5-2.2-5.3c-1.8,0.7-3.6,1.4-5.3,2.2c0.8,1.7,1.5,3.4,2.2,5.2C222.5,22.5,224.2,21.8,226,21.2 M247.4,32.8
			c-0.4-1.9-0.9-3.7-1.3-5.6c-1.9,0.4-3.7,0.8-5.6,1.3c0.5,1.8,1,3.6,1.4,5.5C243.7,33.6,245.5,33.2,247.4,32.8 M257.3,39.8
			c-0.3-1.9-0.6-3.8-0.9-5.7c-1.9,0.3-3.8,0.5-5.7,0.9c0.4,1.9,0.7,3.7,1,5.6C253.6,40.3,255.4,40.1,257.3,39.8L257.3,39.8z
			 M269.6,50.4c0.1,1.9,0.1,3.8,0.1,5.6c1.9,0,3.8,0,5.6,0.1c0-1.9,0-3.8,0-5.7C273.4,50.4,271.5,50.4,269.6,50.4 M266.7,47.6
			c-0.1-1.9-0.3-3.8-0.5-5.7c-1.9,0.1-3.8,0.3-5.7,0.4c0.2,1.9,0.4,3.8,0.5,5.6C262.9,47.8,264.8,47.7,266.7,47.6 M214.7,16.7
			c-0.8-1.7-1.7-3.4-2.6-5.1c-1.7,0.8-3.4,1.7-5.1,2.6c0.9,1.7,1.8,3.3,2.6,5C211.3,18.3,212.9,17.5,214.7,16.7 M191.1,10.4
			c-1.1-1.6-2.2-3.1-3.4-4.6c-1.6,1.1-3.1,2.2-4.6,3.4c1.2,1.5,2.3,3,3.4,4.5C188,12.5,189.6,11.4,191.1,10.4 M166.9,7.8
			c-1.3-1.4-2.7-2.7-4.1-4c-1.4,1.3-2.7,2.7-4,4c1.4,1.3,2.7,2.6,4,3.9C164.2,10.5,165.5,9.1,166.9,7.8 M179.1,8.6
			c-1.2-1.5-2.5-2.9-3.7-4.3c-1.5,1.2-2.9,2.5-4.4,3.7c1.3,1.4,2.5,2.8,3.7,4.2C176.1,11,177.6,9.8,179.1,8.6 M203,13
			c-1-1.6-2-3.3-3-4.9c-1.7,1-3.3,2-4.9,3c1.1,1.6,2.1,3.2,3,4.8C199.8,14.9,201.4,14,203,13L203,13z M130.7,11.2
			c-1.6-1-3.2-2-4.9-3c-1,1.6-2,3.2-3,4.9c1.7,0.9,3.3,1.9,4.9,2.9C128.6,14.3,129.6,12.7,130.7,11.2 M107.3,18.1
			c-1.7-0.8-3.5-1.5-5.3-2.2c-0.8,1.8-1.5,3.5-2.2,5.3c1.8,0.7,3.5,1.3,5.3,2.1C105.8,21.5,106.5,19.8,107.3,18.1 M118.8,14.1
			c-1.7-0.9-3.4-1.7-5.1-2.6c-0.9,1.7-1.8,3.4-2.6,5.1c1.7,0.8,3.4,1.6,5.1,2.5C117,17.5,117.9,15.8,118.8,14.1 M154.8,8
			c-1.4-1.3-2.9-2.5-4.4-3.7c-1.3,1.4-2.5,2.9-3.7,4.3c1.5,1.2,2.9,2.4,4.3,3.6C152.3,10.8,153.5,9.4,154.8,8 M142.7,9.1
			c-1.5-1.1-3.1-2.3-4.6-3.4c-1.2,1.5-2.3,3.1-3.4,4.6c1.6,1.1,3.1,2.1,4.6,3.2C140.4,12.1,141.5,10.6,142.7,9.1 M65.3,42.4
			c-1.9-0.2-3.8-0.3-5.7-0.4c-0.2,1.9-0.3,3.8-0.5,5.7c1.9,0.1,3.8,0.2,5.6,0.3C64.9,46.1,65.1,44.2,65.3,42.4 M96.1,22.9
			c-1.8-0.6-3.6-1.2-5.4-1.7c-0.6,1.8-1.2,3.6-1.8,5.4c1.8,0.5,3.6,1.1,5.4,1.7C94.8,26.4,95.4,24.7,96.1,22.9 M75,35.1
			c-1.9-0.3-3.8-0.6-5.7-0.9c-0.3,1.9-0.6,3.8-0.9,5.6c1.9,0.2,3.7,0.5,5.6,0.8C74.3,38.8,74.7,36.9,75,35.1 M85.3,28.6
			c-1.8-0.5-3.7-0.9-5.6-1.3c-0.5,1.9-0.9,3.7-1.3,5.6c1.9,0.4,3.7,0.8,5.5,1.2C84.3,32.2,84.8,30.4,85.3,28.6L85.3,28.6z
			 M27.3,79.7c0.4,1.9,0.8,3.7,1.3,5.6c1.8-0.5,3.7-1,5.5-1.4c-0.4-1.8-0.8-3.7-1.2-5.5C31,78.8,29.1,79.3,27.3,79.7L27.3,79.7z
			 M34.2,69.4c0.3,1.9,0.5,3.8,0.9,5.7c1.9-0.4,3.7-0.7,5.6-1c-0.3-1.8-0.6-3.7-0.8-5.6C38,68.7,36.1,69,34.2,69.4 M28.2,94.3
			c-0.6-1.8-1.1-3.6-1.7-5.4c-1.8,0.6-3.6,1.1-5.4,1.8c0.6,1.8,1.1,3.7,1.7,5.5C24.7,95.4,26.4,94.8,28.2,94.3 M50.4,56.1
			c1.9-0.1,3.8-0.1,5.6-0.1c0-1.9,0-3.8,0.1-5.6c-1.9,0-3.8,0-5.7,0C50.4,52.3,50.4,54.2,50.4,56.1 M41.9,59.6
			c0.1,1.9,0.3,3.8,0.4,5.7c1.9-0.2,3.8-0.4,5.6-0.5c-0.2-1.9-0.3-3.7-0.3-5.6C45.7,59.2,43.8,59.4,41.9,59.6 M12.2,151
			c-1.2-1.4-2.4-2.9-3.6-4.3c-1.5,1.2-2.9,2.5-4.3,3.7c1.2,1.5,2.5,2.9,3.7,4.4C9.4,153.5,10.8,152.3,12.2,151 M19.1,116.2
			c-0.9-1.7-1.7-3.4-2.5-5.1c-1.7,0.8-3.4,1.7-5.1,2.6c0.8,1.7,1.7,3.4,2.6,5.1C15.8,117.9,17.5,117,19.1,116.2 M13.6,139.3
			c-1.1-1.5-2.2-3.1-3.3-4.6c-1.6,1.1-3.1,2.2-4.6,3.4c1.1,1.6,2.2,3.1,3.4,4.6C10.6,141.5,12.1,140.4,13.6,139.3 M15.9,127.6
			c-1-1.6-1.9-3.2-2.9-4.9c-1.6,1-3.3,2-4.9,3c1,1.7,2,3.3,3,4.9C12.7,129.6,14.3,128.6,15.9,127.6"/>
	</g>
</g>
<g id="Flame">
	<g id="grill_2_">
		<g>
			<path class="st3" d="M154.7,238.2c-0.6,0-4,0-4,0s-1.2,0.2-3,1.6s-2.8,2.6-2.8,2.6l0.4,0.6c0,0,1.5-0.1,2.1-0.3
				c0.6-0.3,2.1-1,2.5-1.2c0.4-0.3,1.2-0.7,1.6-0.6c0.3,0,0.1,0.3,0.1,0.3l-0.6,1.6c0,0-1.3,4.2-1.9,5.9c-0.6,1.7-1.9,5-2.5,6
				c-0.7,1.1-2.2,3.3-3.3,3.3s-2.6-1.1-3.1-3.4c-0.5-2.3-0.5-4.9-0.4-6.2s0.3-6.2,1.5-10.1c1.2-3.8,3.8-9.6,5.4-11.5
				s1.9-2.3,2.4-2.3c0.5,0,1,1.2,1,2.9c0.1,1.8,0.3,5.3,0.3,5.3s0.1,0.4,0.9,0.5c0.8,0.1,1.2,0,1.2,0s0.7,0.1,0.7-2.3s0-3.7,0-3.7
				s-0.2-4-3-4c-2.8,0-4.4,0.5-6,2.5c-1.6,1.9-3.4,4.9-4.9,8.7c-1.6,3.8-3.1,9.6-3,14.6c0.1,5,0.5,7.6,2.1,8.8
				c1.8,1.4,4.2,1.4,4.8,1.4c0.8,0,4.3-0.3,6.7-5c2.9-5.5,4.1-10.8,4.3-11.5c0.2-0.7,0.6-2.2,0.7-2.6s0.6-0.5,0.6-0.9
				C155.6,238.6,155.3,238.2,154.7,238.2z M165.4,239.7c0,0,0.8-0.6,1-1.2c0.3-0.6,0.3-1.4,0.3-1.4s-0.5-1.6-2.5-1.6
				s-2.9,1.9-3.6,2.9s-1.3,2.3-1.3,2.3s0.1-1.7-1-1.7c-1.2,0-1.3,0.6-1.3,0.6s-0.3,4.1-0.4,6c-0.1,2-0.3,4.2-0.3,4.2
				s0.1,1.1,0.7,1.4s1.6,0.7,2.1-1.6c0.5-2.3,1-4.9,2.1-7.4s2.1-4,2.5-4.5c0.4-0.5,0.7-1,1-0.9c0.3,0,0.5,0.6,0.6,1.1
				S165.4,239.7,165.4,239.7z M170.2,234c0.5-0.3,1-0.9,1-1.4s-0.2-1.4-1.3-1.4s-1.5,0.6-1.5,0.6l0.1,2.8
				C168.6,234.6,169.7,234.3,170.2,234z M179.8,228.4c-1-0.3-1.8,0-1.8,0l-0.9,5c0,0-1.1,7.5-1.3,8.7s-1,2-1,2s-2.5,3.6-3.6,5
				c-1.1,1.3-2.6,2.8-3,2.8c-0.3,0-0.3-1.2-0.3-2.6c0-1.4,0.3-3.3,0.3-3.3l1.5-6.5c0,0-0.5-0.4-1.2-0.5c-0.7,0-1.3,0.2-1.3,0.2
				s-1,3.4-1.3,5.3c-0.3,1.9-0.7,3.3-0.6,5.6c0.1,2.3,2.8,3.4,3.4,3.4c0.7,0,1.4-0.3,2.2-0.9c0.8-0.7,2-2.4,2.7-3.3
				c0.7-0.9,1.8-2.8,1.8-2.8s-0.3,2.4-0.3,3.1c0,0.7-0.4,2.6,0.1,4c0.5,1.4,2.1,2.2,3.4,2.2c1.3,0,1.6-0.8,1.6-0.8v-2.2
				c0,0-1,1.7-1.6,1.7c-0.6,0-0.7-2.9-0.6-5.1s0.9-7.3,0.9-7.3s1.6-10.2,1.8-11.5C180.9,229.3,180.8,228.7,179.8,228.4z
				 M186.5,228.4c-1-0.3-1.8,0-1.8,0l-0.9,5c0,0-1.2,7.5-1.3,8.7c-0.2,1.9-0.4,3.9-0.4,3.9s-0.3,2.9-0.3,3.6c0,0.7-0.4,2.6,0.1,4
				c0.5,1.4,2.1,2.2,3.4,2.2c1.3,0,1.6-0.8,1.6-0.8v-2.2c0,0-1,1.7-1.6,1.7c-0.6,0-0.7-2.9-0.6-5.1c0.1-2.2,0.9-7.3,0.9-7.3
				s1.6-10.2,1.8-11.5S187.6,228.7,186.5,228.4z M108.7,241h19.7v-2h-19.7V241z M197.4,239v2h19.7v-2H197.4z"/>
		</g>
	</g>
	<g id="fire_2_">
		<g>
			<path class="st3" d="M165.8,62.3c-0.1,5.5,5.8,9.8,5.8,9.8s-1.7-2.9-1.1-8.5c0.5-4.6,4-8.8,3.3-15.3c-0.6-5.3-4.9-6.5-4.9-6.5
				s1.2,1.6,0.6,6.4C168.8,54.3,166,56.8,165.8,62.3z M187.9,77.3c0.9-3.7,4.6-6.6,5.3-9.8c0.8-3.2-1.7-5.5-1.7-5.5s0.6,1.3-1.1,4.8
				c-1.9,3.9-5.3,5.2-6.3,9.6c-1,4.4,3,8.8,3,8.8S187.1,81,187.9,77.3z M221.5,77.7c0,0-1.2-1.4-0.7-4.6c0.7-3.9,3.1-3.8,3.9-7.5
				c0.9-4.2-2.8-5.6-2.8-5.6s1,2.8,0,5.2c-1.1,2.8-4,2.2-4.5,6.7C217.1,75.8,221.5,77.7,221.5,77.7z M106.1,79.1
				c-1.5-5,1.1-14.3,1.1-14.3s-4.8,6.2-5.5,13.2c-0.7,7,3.4,10.8,0,16.5c-3.4,5.6-5.2,3.1-9.9,9.9c-1.2,1.8-1.5,4.2-1.3,6.8h21
				c0-0.7,0-1.3,0-1.3s2.3-5.2,2.2-13.2C113.6,83,107.7,84.1,106.1,79.1z M200.6,98.9c0-4.4-4-11.3-4.4-15.4s5.5-13.2,5.5-13.2
				s-6.1,2.6-8.8,8.8c-2.7,6.2,0,14.4,0,16.5c0,2.1-0.1,5.5-3.3,5.5c-3.2,0-3.3-5.5-3.3-5.5s-2.7,3.6-3.3,6.6
				c-0.3,1.7,1.1,5.8,1.3,9h17.4C199.6,108.8,200.6,102.4,200.6,98.9z M113.2,57.1c0,0,0.8,1.1,0,4.8c-0.9,4.1-3.8,6.2-3.8,10.6
				s4.7,7.7,4.7,7.7s-0.9-4-0.9-7.7c0-3.7,2.8-7.3,2.8-10.6C116,58.6,113.2,57.1,113.2,57.1z M229.1,80.2
				c-2.7-6.3-0.5-11.5-0.5-11.5s-4.5,3-5,10.4c-0.3,4.9,5.7,16.5,0,16.5s-2.2-12.1-2.2-12.1s-3.8,2-5.5,6.6c-1.7,4.6,1.9,8.2,2.2,11
				c0.3,2.8-0.1,5.5-3.3,5.5s-3-5.5-3-5.5s-2.1,6.5-1.4,9.9c0,0.1,0,0.1,0,0.2h23.1c0.4-1.4,0.8-2.9,1.1-4.6
				C237.2,91.5,231.3,85.4,229.1,80.2z M176.4,100c0,0,1.8,7.7-3.3,7.7c-5.1,0-2.4-7.9-2.2-15.4c0.3-12-7.5-17.3-8.8-24.2
				c-1.5-8.4,1.1-11,1.1-11s-5.3,2.4-6.6,11c-0.6,4.1-0.1,10.6,3.3,16.5c3.4,6,4.3,14.3-1.1,14.3c-5.4,0-3.3-11-3.3-11
				s-2.8,0.5-4.4,4.4s-0.4,6.8,1.1,11c1.5,4.2-0.7,7.7-3.3,7.7c-2.6,0-3.5-3.5-2.2-8.8c1.2-4.9-1.7-8.2-2.2-12.1
				c-0.7-5.3,3.3-9.9,3.3-9.9s-3.7,1.1-5.5,4.4s-2,7.1-1.1,15.4c0.9,8.4-1.4,6.6-2.2,6.6s-0.8,0-1.1-6.6s-4-12.4-4.4-18.7
				c-0.5-8.8,2.2-13.2,2.2-13.2s-5.5,3.5-6.6,12.1c-0.8,6.2,5.7,20.9-1.1,20.9c-6.8,0-2.2-15.4-2.2-15.4s-4,3.8-5.5,8.8
				s0.3,6.9,2.2,13.2c0.4,1.3,0.6,2.5,0.7,3.5h56.5c0.5-1.5,1.1-3.1,1.1-4.6C180.8,102.7,176.4,100,176.4,100z"/>
		</g>
	</g>
</g>
<g id="Plaque">
	<g>
		<path class="st0" d="M281.6,140.7c8.8,3.5,15.1,12.1,15.1,22.2c0,10.1-6.3,18.7-15.1,22.2v19.4h-8.7c-1.3,0-2.4,1.1-2.4,2.4v8.7
			H55.2v-8.7c0-1.3-1-2.4-2.4-2.4h-8.7v-19.4C35.3,181.6,29,173,29,162.9c0-10.1,6.3-18.7,15.1-22.2l0-19.4h8.7
			c1.3,0,2.4-1.1,2.4-2.4v-8.7h215.3v8.7c0,1.3,1.1,2.4,2.4,2.4h8.7"/>
		<path class="st3" d="M63.9,118.9h197.9c0,6.1,5,11.1,11.1,11.1v17.8c8.3,0,15.1,6.8,15.1,15.1c0,8.4-6.8,15.1-15.1,15.1v17.8
			c-6.1,0-11.1,5-11.1,11.1H63.9c0-6.1-5-11.1-11.1-11.1l0-17.8c-8.4,0-15.1-6.8-15.1-15.1c0-8.3,6.8-15.1,15.1-15.1l0-17.8
			C59,130,63.9,125,63.9,118.9"/>
		<path class="st4" d="M63.9,118.9h197.9c0,6.1,5,11.1,11.1,11.1v17.8c8.3,0,15.1,6.8,15.1,15.1c0,8.4-6.8,15.1-15.1,15.1v17.8
			c-6.1,0-11.1,5-11.1,11.1H63.9c0-6.1-5-11.1-11.1-11.1l0-17.8c-8.4,0-15.1-6.8-15.1-15.1c0-8.3,6.8-15.1,15.1-15.1l0-17.8
			C59,130,63.9,125,63.9,118.9z"/>
		<path class="st1" d="M272.9,154.4c-4.7,0-8.5,3.8-8.5,8.5c0,4.7,3.8,8.5,8.5,8.5c4.7,0,8.5-3.8,8.5-8.5
			C281.3,158.2,277.6,154.4,272.9,154.4 M272.9,168.9c-0.7,0-1.4-0.5-1.5-1.1c-0.3,0.1-0.7,0.2-1.2,0.2c0-1.7,1.2-3.5,2.7-3.7
			c1.5,0.2,2.6,2,2.7,3.7c-0.5,0-0.9-0.1-1.2-0.2C274.3,168.4,273.6,168.9,272.9,168.9 M266.9,162.9c0-0.7,0.5-1.4,1.1-1.5
			c-0.1-0.3-0.2-0.6-0.2-1.2c1.7,0,3.5,1.2,3.7,2.6c-0.2,1.5-2,2.6-3.7,2.7c0-0.5,0.1-0.9,0.2-1.2
			C267.4,164.2,266.9,163.6,266.9,162.9 M272.9,156.9c0.7,0,1.4,0.5,1.5,1.1c0.3-0.1,0.6-0.2,1.2-0.2c0,1.7-1.2,3.5-2.7,3.7
			c-1.5-0.2-2.6-2-2.7-3.7c0.5,0,0.9,0.1,1.2,0.2C271.5,157.4,272.1,156.9,272.9,156.9L272.9,156.9z M278.9,162.9
			c0,0.7-0.5,1.4-1.1,1.5c0.1,0.3,0.2,0.6,0.2,1.2c-1.7,0-3.5-1.2-3.7-2.7c0.2-1.5,2-2.6,3.7-2.6c0,0.5-0.1,0.9-0.2,1.2
			C278.4,161.5,278.9,162.1,278.9,162.9 M272.9,161.8c0.6,0,1.1,0.5,1.1,1.1c0,0.6-0.5,1.1-1.1,1.1c-0.6,0-1.1-0.5-1.1-1.1
			C271.8,162.3,272.3,161.8,272.9,161.8"/>
		<path class="st1" d="M52.9,154.4c-4.7,0-8.5,3.8-8.5,8.5c0,4.7,3.8,8.5,8.4,8.5c4.7,0,8.5-3.8,8.5-8.5
			C61.3,158.2,57.5,154.4,52.9,154.4 M52.9,168.9c-0.7,0-1.4-0.5-1.5-1.1c-0.3,0.1-0.6,0.2-1.2,0.2c0-1.7,1.2-3.5,2.6-3.7
			c1.5,0.2,2.6,2,2.7,3.7c-0.5,0-0.9-0.1-1.2-0.2C54.2,168.4,53.6,168.9,52.9,168.9L52.9,168.9z M46.9,162.9c0-0.7,0.5-1.4,1.1-1.5
			c-0.1-0.3-0.2-0.6-0.2-1.2c1.7,0,3.5,1.2,3.7,2.6c-0.2,1.5-2,2.6-3.7,2.7c0-0.5,0.1-0.9,0.2-1.2C47.4,164.2,46.9,163.6,46.9,162.9
			 M52.9,156.9c0.7,0,1.4,0.5,1.5,1.1c0.3-0.1,0.6-0.2,1.2-0.2c0,1.7-1.2,3.5-2.7,3.7c-1.5-0.2-2.6-2-2.6-3.7c0.5,0,0.9,0.1,1.2,0.2
			C51.5,157.4,52.1,156.9,52.9,156.9L52.9,156.9z M58.9,162.9c0,0.7-0.5,1.4-1.1,1.5c0.1,0.3,0.2,0.6,0.2,1.2
			c-1.7,0-3.5-1.2-3.7-2.7c0.2-1.5,2-2.6,3.7-2.6c0,0.5-0.1,0.9-0.2,1.2C58.4,161.5,58.9,162.1,58.9,162.9 M52.9,161.8
			c0.6,0,1.1,0.5,1.1,1.1c0,0.6-0.5,1.1-1.1,1.1c-0.6,0-1.1-0.5-1.1-1.1C51.8,162.3,52.3,161.8,52.9,161.8"/>
		<g>
			<path d="M253.3,170.7c0-2.1-0.3-3.4-0.8-3.9c-0.5-0.5-1.6-0.8-3.3-0.8v-1.1h11.3v1.1c-1.4,0.1-2.4,0.4-2.9,0.9
				c-0.5,0.5-0.7,1.8-0.7,3.8v4.2c-1.3,0.9-2.9,1.6-4.5,2.1c-1.7,0.5-3.5,0.7-5.5,0.7c-4.9,0-8.9-1.2-11.8-3.8
				c-2.9-2.5-4.4-5.9-4.4-10.2c0-1.7,0.2-3.2,0.8-4.7c0.5-1.5,1.2-2.9,2.2-4.2c1.4-1.9,3.3-3.3,5.6-4.4c2.3-1,4.9-1.5,7.8-1.5
				c2.2,0,4.2,0.3,5.9,0.8c1.8,0.6,3.3,1.4,4.6,2.5l0,5.9l-0.7-0.1c-1.1-2.8-2.4-4.8-3.9-6.1c-1.6-1.3-3.5-2-5.8-2
				c-1.7,0-3.2,0.3-4.5,0.8c-1.3,0.6-2.5,1.4-3.6,2.5c-1.3,1.4-2.2,3-2.9,4.8c-0.7,1.8-1,3.7-1,5.8c0,3.8,1.1,6.8,3.3,9.1
				c2.2,2.3,5,3.4,8.6,3.4c2.3,0,3.9-0.4,4.9-1.1c1-0.7,1.4-2,1.4-3.7 M201.9,149.1l20.2,22v-16.1c0-2.1-0.3-3.4-0.8-3.9
				c-0.5-0.5-1.6-0.8-3.3-0.8v-1.2h9.6v1.2c-1.7,0-2.8,0.3-3.4,0.8c-0.5,0.5-0.8,1.8-0.8,3.8v22.5h-1l-21.9-23.9v18.1
				c0,2.1,0.3,3.3,0.8,3.9c0.5,0.5,1.7,0.8,3.3,0.8v1.1h-9.1v-1.1c1.4-0.1,2.4-0.4,2.9-0.9c0.5-0.5,0.7-1.7,0.7-3.8v-16.7
				c0-2.1-0.3-3.4-0.9-3.9c-0.6-0.5-1.8-0.7-3.6-0.8v-1.1H201.9z M177.3,177.7c-1.9,0-3.7-0.3-5.3-0.8c-1.6-0.6-3.2-1.4-4.6-2.6
				c-1.6-1.3-2.7-2.9-3.5-4.7c-0.8-1.8-1.2-3.9-1.2-6.3c0-2.3,0.4-4.5,1.2-6.3c0.8-1.9,2-3.5,3.6-4.7c1.4-1.1,2.9-2,4.5-2.5
				c1.7-0.6,3.4-0.8,5.4-0.8c1.9,0,3.7,0.3,5.4,0.8c1.7,0.6,3.2,1.4,4.5,2.5c1.6,1.3,2.8,2.8,3.6,4.7c0.8,1.9,1.2,4,1.2,6.3
				c0,2.3-0.4,4.4-1.2,6.3c-0.8,1.8-2,3.4-3.5,4.7c-1.4,1.1-3,2-4.6,2.6C181,177.4,179.2,177.7,177.3,177.7 M177.3,176.5
				c3.2,0,5.7-1.2,7.5-3.5c1.8-2.3,2.7-5.6,2.7-9.7c0-4.2-0.9-7.4-2.7-9.8c-1.8-2.3-4.3-3.5-7.5-3.5c-3.2,0-5.7,1.2-7.5,3.5
				c-1.8,2.3-2.7,5.6-2.7,9.8c0,4.1,0.9,7.4,2.7,9.7C171.6,175.3,174.1,176.5,177.3,176.5 M147.4,171.6c0,2.1,0.3,3.3,0.8,3.9
				c0.5,0.5,1.6,0.8,3.3,0.8v1.1h-12.2v-1.1c1.7-0.1,2.8-0.3,3.3-0.8c0.5-0.5,0.8-1.8,0.8-3.9V154c0-1.4-0.2-2.3-0.7-2.7
				c-0.5-0.4-1.5-0.6-3-0.6c-2,0-3.7,0.4-4.9,1.2c-1.2,0.8-2.2,2.1-3,4h-1l1.9-7.7h0.9c0.5,0.5,1.1,0.9,1.9,1.1
				c0.8,0.2,2.2,0.3,4.3,0.3h13.6c1.6,0,2.7-0.1,3.4-0.3c0.7-0.2,1.3-0.6,1.7-1.1h0.9v7.7h-0.9c-0.4-1.8-1.1-3.2-2.3-4
				c-1.1-0.8-2.9-1.2-5.2-1.2c-1.5,0-2.6,0.2-3.1,0.6c-0.5,0.4-0.7,1.2-0.7,2.5V171.6z M109.1,177.4v-1.1c1.7-0.1,2.8-0.3,3.3-0.8
				c0.5-0.5,0.8-1.8,0.8-3.9v-16.7c0-2-0.3-3.3-0.8-3.8c-0.5-0.5-1.6-0.8-3.3-0.8v-1.2h12.2v1.2c-1.7,0.1-2.8,0.3-3.3,0.8
				c-0.5,0.5-0.8,1.8-0.8,3.8v18.2c0,1.5,0.2,2.3,0.6,2.7c0.4,0.3,1.3,0.5,2.7,0.5h3.4c2.5,0,4.4-0.4,5.8-1.3c1.4-0.9,2.7-2.4,4-4.7
				l1,0.3l-1.5,6.9H109.1z M94,177.4v-1.1c1.7-0.1,2.8-0.3,3.3-0.8c0.5-0.5,0.8-1.8,0.8-3.9v-16.7c0-2-0.3-3.3-0.8-3.8
				c-0.5-0.5-1.6-0.8-3.3-0.8v-1.2h12.2v1.2c-1.7,0.1-2.8,0.3-3.3,0.8c-0.5,0.5-0.8,1.8-0.8,3.8v16.7c0,2.1,0.3,3.3,0.8,3.9
				c0.6,0.5,1.7,0.8,3.3,0.8v1.1H94z M66.7,177.4v-1.1c1.7-0.1,2.8-0.3,3.3-0.8c0.5-0.5,0.8-1.8,0.8-3.9v-16.7c0-2-0.3-3.3-0.8-3.8
				c-0.5-0.5-1.6-0.8-3.3-0.8v-1.2c0.5,0,1,0,1.5,0c0.5,0,1.3,0,2.3,0c1.1,0,2.4,0,3.9,0c1.5,0,2.3,0,2.6,0c3.8,0,6.7,0.6,8.7,1.8
				c2,1.2,3,2.9,3,5.1c0,1.7-0.6,3.1-1.9,4.2c-1.2,1.1-3.1,1.9-5.5,2.4c2.9,0.5,5,1.4,6.5,2.6c1.5,1.3,2.2,2.9,2.2,4.9
				c0,2.5-0.9,4.3-2.8,5.6c-1.9,1.3-4.6,1.9-8.2,1.9c0,0-1.4,0-4.1-0.1C72.1,177.5,69.4,177.4,66.7,177.4 M74.7,153.3v6.1
				c0,1,0.2,1.6,0.5,1.9c0.4,0.3,1.2,0.5,2.6,0.5h1.5c1.7,0,3-0.5,4-1.5c1-1,1.5-2.4,1.5-4.1c0-2-0.6-3.5-1.7-4.6
				c-1.1-1.1-2.8-1.6-4.9-1.6c-1.4,0-2.4,0.2-2.9,0.7C75,151.3,74.7,152.1,74.7,153.3 M74.7,165.6v7.9c0,1.2,0.2,2,0.7,2.4
				c0.5,0.4,1.5,0.6,3.2,0.6c2.5,0,4.4-0.6,5.7-1.7c1.3-1.1,1.9-2.7,1.9-4.9c0-2.3-0.7-4-2.2-5.2c-1.4-1.1-3.6-1.7-6.6-1.7
				c-1.1,0-1.9,0.2-2.2,0.5C74.9,163.9,74.7,164.6,74.7,165.6"/>
			<path d="M172.6,141v-0.5c0.8,0,1.3-0.2,1.5-0.4c0.3-0.2,0.4-0.8,0.4-1.8v-7.6c0-0.9-0.1-1.5-0.4-1.8c-0.2-0.2-0.8-0.4-1.5-0.4
				V128h9.9l0.4,2.4l-0.4,0c-0.4-0.7-0.8-1.1-1.3-1.4c-0.5-0.3-1-0.4-1.6-0.4h-1.8c-0.6,0-1.1,0.1-1.2,0.2c-0.2,0.1-0.3,0.5-0.3,1.1
				v3.2c0,0.3,0.1,0.5,0.2,0.6c0.1,0.1,0.3,0.2,0.6,0.2h1.7c0.6,0,1-0.1,1.3-0.4c0.3-0.3,0.5-0.7,0.6-1.4h0.5v4.4h-0.5
				c-0.1-0.7-0.2-1.2-0.5-1.5c-0.3-0.3-0.7-0.5-1.3-0.5H177c-0.3,0-0.5,0.1-0.6,0.2c-0.1,0.1-0.2,0.3-0.2,0.6v3.9
				c0,0.6,0.1,1,0.3,1.1c0.2,0.1,0.6,0.2,1.2,0.2h2.5c0.9,0,1.6-0.2,2-0.5c0.5-0.3,1-1,1.5-2l0.4,0l-0.6,3.1 M167.6,134.6h-8.1v3.7
				c0,0.9,0.1,1.5,0.4,1.8c0.2,0.2,0.8,0.4,1.5,0.4v0.5h-5.6v-0.5c0.8,0,1.3-0.2,1.5-0.4c0.2-0.2,0.4-0.8,0.4-1.8v-7.6
				c0-0.9-0.1-1.5-0.4-1.7c-0.2-0.2-0.7-0.4-1.5-0.4V128h5.6v0.5c-0.8,0-1.3,0.2-1.5,0.4c-0.2,0.2-0.4,0.8-0.4,1.7v3.2h8.1v-3.2
				c0-0.9-0.1-1.5-0.4-1.7c-0.2-0.2-0.8-0.4-1.5-0.4V128h5.6v0.5c-0.8,0-1.3,0.2-1.5,0.4c-0.2,0.2-0.4,0.8-0.4,1.7v7.6
				c0,0.9,0.1,1.5,0.4,1.8c0.3,0.2,0.8,0.4,1.5,0.4v0.5h-5.6v-0.5c0.8,0,1.3-0.2,1.5-0.4c0.3-0.2,0.4-0.8,0.4-1.8V134.6z
				 M149.2,138.3c0,0.9,0.1,1.5,0.4,1.8c0.2,0.2,0.8,0.4,1.5,0.4v0.5h-5.6v-0.5c0.8,0,1.3-0.2,1.5-0.4c0.2-0.2,0.4-0.8,0.4-1.8v-8.1
				c0-0.6-0.1-1.1-0.3-1.3c-0.2-0.2-0.7-0.3-1.4-0.3c-0.9,0-1.7,0.2-2.2,0.5c-0.5,0.4-1,1-1.4,1.8h-0.4l0.9-3.5h0.4
				c0.2,0.2,0.5,0.4,0.9,0.5c0.3,0.1,1,0.1,2,0.1h6.2c0.7,0,1.2,0,1.6-0.1c0.3-0.1,0.6-0.3,0.8-0.5h0.4v3.5h-0.4
				c-0.2-0.8-0.5-1.4-1-1.8c-0.5-0.4-1.3-0.5-2.4-0.5c-0.7,0-1.2,0.1-1.4,0.3c-0.2,0.2-0.3,0.6-0.3,1.2V138.3z"/>
			<path d="M201.8,195.4c0,0.9,0.1,1.5,0.4,1.8c0.3,0.2,0.8,0.4,1.5,0.4v0.5h-5.6v-0.5c0.8,0,1.3-0.2,1.5-0.4
				c0.3-0.2,0.4-0.8,0.4-1.8v-3.4l-3.4-5.2c-0.3-0.5-0.6-0.8-0.8-1c-0.3-0.2-0.6-0.3-0.9-0.3h-0.1v-0.5h4.9v0.5c-0.4,0-0.8,0-1,0.1
				c-0.2,0.1-0.3,0.2-0.3,0.5c0,0.1,0.1,0.2,0.2,0.5c0.1,0.2,0.3,0.5,0.5,0.8l2.4,3.9l2.6-3.8c0.2-0.3,0.4-0.6,0.5-0.8
				c0.1-0.2,0.2-0.4,0.2-0.5c0-0.2-0.1-0.4-0.3-0.5c-0.2-0.1-0.5-0.2-0.8-0.2v-0.5h3.7v0.5h-0.1c-0.4,0-0.7,0.1-1,0.4
				c-0.3,0.2-0.7,0.7-1.3,1.5l-3.1,4.6 M187.7,195.4c0,1,0.1,1.5,0.4,1.8c0.2,0.2,0.8,0.4,1.5,0.4v0.5h-5.6v-0.5
				c0.8,0,1.3-0.2,1.5-0.4c0.2-0.2,0.4-0.8,0.4-1.8v-7.6c0-0.9-0.1-1.5-0.4-1.7c-0.2-0.2-0.8-0.4-1.5-0.4v-0.5h4.6
				c1.7,0,3,0.3,3.8,0.9c0.9,0.6,1.3,1.4,1.3,2.5c0,0.8-0.3,1.4-0.8,1.9c-0.5,0.5-1.3,0.9-2.3,1.2c0.3,0.3,0.6,0.7,1.1,1.5
				c0.1,0.1,0.2,0.2,0.2,0.3l1.9,2.9c0.4,0.6,0.7,0.9,1,1.1c0.3,0.2,0.6,0.3,1,0.3v0.5h-2.6c-0.4-0.4-0.9-1.1-1.5-2l-0.1-0.2
				l-1.1-1.7c-0.1-0.2-0.3-0.5-0.5-0.9c-0.2-0.4-0.5-0.8-0.9-1.4c-0.2,0-0.4,0-0.7,0.1c-0.3,0-0.5,0-0.9,0V195.4z M187.7,191.4h0.2
				c1.5,0,2.5-0.2,3.1-0.7c0.6-0.4,1-1.2,1-2.1c0-0.9-0.3-1.6-0.8-2.2c-0.5-0.6-1.3-0.9-2.1-0.9c-0.5,0-0.9,0.1-1.1,0.2
				c-0.2,0.2-0.3,0.5-0.3,1V191.4z M175.8,198.2c-0.9,0-1.7-0.1-2.4-0.4c-0.8-0.3-1.5-0.7-2.1-1.2c-0.7-0.6-1.3-1.3-1.6-2.1
				c-0.4-0.8-0.6-1.8-0.6-2.9c0-1.1,0.2-2,0.6-2.9c0.4-0.9,0.9-1.6,1.6-2.2c0.6-0.5,1.3-0.9,2.1-1.2c0.8-0.3,1.6-0.4,2.5-0.4
				c0.9,0,1.7,0.1,2.4,0.4c0.8,0.3,1.4,0.6,2.1,1.2c0.7,0.6,1.3,1.3,1.6,2.2c0.4,0.9,0.6,1.8,0.6,2.9c0,1.1-0.2,2-0.6,2.9
				c-0.4,0.8-0.9,1.6-1.6,2.1c-0.6,0.5-1.3,0.9-2.1,1.2C177.5,198,176.7,198.2,175.8,198.2 M175.8,197.6c1.5,0,2.6-0.5,3.4-1.6
				c0.8-1.1,1.3-2.5,1.3-4.4c0-1.9-0.4-3.4-1.3-4.5c-0.8-1.1-2-1.6-3.4-1.6c-1.5,0-2.6,0.5-3.4,1.6c-0.8,1.1-1.2,2.6-1.2,4.5
				c0,1.9,0.4,3.4,1.2,4.4C173.2,197.1,174.4,197.6,175.8,197.6 M162.1,195.4c0,0.9,0.1,1.5,0.4,1.8c0.2,0.2,0.8,0.4,1.5,0.4v0.5
				h-5.6v-0.5c0.8,0,1.3-0.2,1.5-0.4c0.3-0.2,0.4-0.8,0.4-1.8v-8.1c0-0.6-0.1-1.1-0.3-1.3c-0.2-0.2-0.7-0.3-1.4-0.3
				c-0.9,0-1.7,0.2-2.2,0.5c-0.5,0.4-1,1-1.4,1.8h-0.4l0.9-3.5h0.4c0.2,0.2,0.5,0.4,0.9,0.5c0.3,0.1,1,0.1,2,0.1h6.2
				c0.7,0,1.2,0,1.6-0.1c0.3-0.1,0.6-0.3,0.8-0.5h0.4v3.5h-0.4c-0.2-0.8-0.5-1.5-1-1.8c-0.5-0.4-1.3-0.5-2.4-0.5
				c-0.7,0-1.2,0.1-1.4,0.3c-0.2,0.2-0.3,0.6-0.3,1.2V195.4z M153.1,196.6c-0.7,0.5-1.4,0.9-2.2,1.2c-0.8,0.3-1.7,0.4-2.6,0.4
				c-2.1,0-3.7-0.6-5-1.8c-1.3-1.2-1.9-2.7-1.9-4.7c0-1.2,0.2-2.2,0.7-3.1c0.5-0.9,1.2-1.7,2.1-2.4c0.5-0.4,1.1-0.7,1.9-0.9
				c0.7-0.2,1.5-0.3,2.3-0.3c0.9,0,1.8,0.1,2.6,0.4c0.8,0.3,1.5,0.7,2.2,1.2l-0.3,2.6l-0.3-0.1c-0.3-1.1-0.8-2-1.6-2.6
				c-0.8-0.6-1.7-0.9-2.8-0.9c-1.5,0-2.6,0.5-3.4,1.6c-0.8,1.1-1.2,2.6-1.2,4.5c0,1.9,0.4,3.3,1.3,4.4c0.9,1.1,2.1,1.6,3.6,1.6
				c1,0,1.9-0.3,2.6-0.8c0.7-0.5,1.3-1.4,1.8-2.5h0.5L153.1,196.6z M128,198.1v-0.5c0.6-0.1,1-0.3,1.4-0.6c0.4-0.4,0.7-1,1.1-1.8
				l2.8-7c0.1-0.2,0.2-0.5,0.2-0.7c0.1-0.2,0.1-0.4,0.1-0.6l1.2-1.8l0.4,0.1l4.1,10.5c0.3,0.7,0.5,1.1,0.9,1.4
				c0.3,0.3,0.7,0.4,1.2,0.5v0.5h-5v-0.5c0.5-0.1,0.8-0.2,1-0.3c0.2-0.1,0.3-0.3,0.3-0.6c0-0.1,0-0.3,0-0.4c0-0.1-0.1-0.3-0.1-0.4
				l-1.1-2.8h-4.5l-0.9,2.3c-0.1,0.3-0.2,0.5-0.2,0.7c-0.1,0.2-0.1,0.4-0.1,0.5c0,0.3,0.1,0.5,0.3,0.7c0.2,0.2,0.6,0.3,1,0.4v0.5
				H128z M132.1,192.4h4.1l-2-5.2L132.1,192.4z M122.8,190.5c0,0.3,0.1,0.5,0.2,0.6c0.1,0.1,0.3,0.2,0.6,0.2h2.1
				c0.5,0,0.9-0.1,1.2-0.4c0.3-0.2,0.5-0.7,0.6-1.3h0.5v4.2l-0.5,0c-0.1-0.7-0.2-1.2-0.5-1.5c-0.3-0.3-0.7-0.5-1.3-0.5h-2.1
				c-0.3,0-0.4,0.1-0.6,0.2c-0.1,0.1-0.2,0.3-0.2,0.6v2.8c0,1,0.1,1.5,0.4,1.8c0.3,0.2,0.8,0.4,1.5,0.4l0,0.5h-5.6v-0.5
				c0.8,0,1.3-0.2,1.5-0.4c0.2-0.2,0.4-0.8,0.4-1.8v-7.6c0-0.9-0.1-1.5-0.4-1.7c-0.2-0.2-0.8-0.4-1.5-0.4v-0.5h10.2l0.7,3.2l-0.5,0
				c-0.6-1-1.1-1.6-1.6-2s-1.1-0.6-1.8-0.6h-1.8c-0.6,0-1,0.1-1.2,0.2c-0.2,0.1-0.3,0.5-0.3,1.1V190.5z"/>
		</g>
	</g>
</g>
</svg>
