<svg width="217" height="30" viewBox="0 0 217 30" fill="none" xmlns="http://www.w3.org/2000/svg">
<path fill-rule="evenodd" clip-rule="evenodd" d="M48.0049 13.053C48.0049 12.5028 48.4394 12.0542 48.9613 12.0542C49.4974 12.0542 49.9178 12.5028 49.9178 13.053C49.9178 13.6031 49.4974 14.0517 48.9613 14.0517C48.4394 14.0658 48.0049 13.6172 48.0049 13.053ZM48.9613 13.8345C49.3676 13.8345 49.6836 13.4874 49.6836 13.0671C49.6836 12.6467 49.3507 12.2997 48.9613 12.2997C48.555 12.2997 48.2362 12.6467 48.2362 13.0671C48.2362 13.4874 48.555 13.8345 48.9613 13.8345ZM48.8287 13.5016H48.6256V12.6185H48.9867C49.0601 12.6185 49.1447 12.6185 49.204 12.6608C49.2773 12.7031 49.3055 12.7906 49.3055 12.878C49.3055 12.9796 49.2463 13.0671 49.1616 13.0953L49.3196 13.4874H49.1024L48.9726 13.1404H48.8287V13.5016ZM48.8287 13.0106H48.9444C48.9867 13.0106 49.0319 13.0106 49.0601 12.9965C49.0883 12.9824 49.1024 12.9373 49.1024 12.895C49.1024 12.8668 49.0883 12.8216 49.0601 12.8075C49.0319 12.7934 48.9726 12.7934 48.9444 12.7934H48.8428L48.8287 13.0106Z" fill="#FD0C15"/>
<path fill-rule="evenodd" clip-rule="evenodd" d="M34.3305 6.38333L34.071 8.09025C33.5067 7.78554 33.0863 7.66987 32.6377 7.66987C31.4499 7.66987 30.612 8.88587 30.612 10.6069C30.612 11.7947 31.1762 12.517 32.1017 12.517C32.4938 12.517 32.9255 12.3872 33.4615 12.1107L33.1879 13.9051C32.5954 14.08 32.2173 14.1364 31.7687 14.1364C30.0477 14.1364 28.9756 12.833 28.9756 10.7508C28.9756 7.94636 30.4512 5.97705 32.5785 5.97705C32.8521 5.97705 33.1004 6.00526 33.3007 6.06451L33.9666 6.23944C34.1415 6.30997 34.1838 6.32408 34.3305 6.38333Z" fill="#FD0C15"/>
<path fill-rule="evenodd" clip-rule="evenodd" d="M29.0176 7.5539C28.9753 7.53979 28.916 7.53979 28.8596 7.53979C28.3377 7.53979 28.0358 7.81347 27.542 8.58088L27.6859 7.61033H26.2386L25.2539 13.9922H26.8593C27.4376 10.0847 27.5815 9.41882 28.3489 9.41882C28.3913 9.41882 28.4082 9.41882 28.4646 9.41882C28.6085 8.65141 28.7975 8.08714 29.0712 7.56519L29.0176 7.5539Z" fill="#FD0C15"/>
<path fill-rule="evenodd" clip-rule="evenodd" d="M19.4498 13.9078C19.0153 14.0517 18.6683 14.125 18.3072 14.125C17.4974 14.125 17.0488 13.6341 17.0488 12.72C17.0488 12.545 17.0629 12.3447 17.0911 12.1416L17.1927 11.5181L17.2661 11.0102L17.9601 6.65405H19.5514L19.3623 7.59356H20.1862L19.9548 9.14249H19.1451L18.7247 11.8059C18.7106 11.9215 18.6965 12.009 18.6965 12.0654C18.6965 12.3983 18.8714 12.5422 19.2467 12.5422C19.4357 12.5422 19.5655 12.5281 19.6812 12.483L19.4498 13.9078Z" fill="#FD0C15"/>
<path fill-rule="evenodd" clip-rule="evenodd" d="M13.1423 9.62501C13.1423 10.4347 13.5175 10.9849 14.3583 11.4053C14.9959 11.7241 15.1116 11.8257 15.1116 12.1134C15.1116 12.5056 14.821 12.6918 14.2003 12.6918C13.7235 12.6918 13.289 12.6185 12.767 12.4323L12.5498 13.9078L12.6232 13.9219L12.9138 13.9812C13.0153 13.9953 13.1451 14.0235 13.3341 14.0376C13.7094 14.0658 14.0141 14.0969 14.2172 14.0969C15.8959 14.0969 16.6775 13.4169 16.6775 11.9696C16.6775 11.1006 16.3586 10.5814 15.5489 10.1893C14.8831 9.87046 14.8097 9.79711 14.8097 9.49522C14.8097 9.1482 15.0693 8.97327 15.5912 8.97327C15.91 8.97327 16.3304 9.01559 16.7339 9.07484L16.9652 7.59927C16.5448 7.52592 15.9241 7.46949 15.5602 7.46949C13.7489 7.46667 13.1282 8.43721 13.1423 9.62501Z" fill="#FD0C15"/>
<path fill-rule="evenodd" clip-rule="evenodd" d="M47.079 13.9812H45.5583L45.6316 13.3576C45.1971 13.8485 44.7344 14.0658 44.156 14.0658C42.9824 14.0658 42.2178 13.0106 42.2178 11.4165C42.2178 9.28923 43.4056 7.49485 44.8219 7.49485C45.4454 7.49485 45.9081 7.76852 46.3567 8.36383L46.7037 6.12085H48.2809L47.079 13.9812ZM44.7203 12.4887C45.4736 12.4887 45.9928 11.6056 45.9928 10.3331C45.9928 9.52341 45.688 9.07481 45.1379 9.07481C44.4156 9.07481 43.8937 9.972 43.8937 11.2162C43.8937 12.0542 44.1702 12.4887 44.7203 12.4887Z" fill="#FD0C15"/>
<path fill-rule="evenodd" clip-rule="evenodd" d="M24.5177 13.8517C23.9676 14.0266 23.4456 14.1112 22.8672 14.1112C21.087 14.1112 20.1475 13.1266 20.1475 11.2447C20.1475 9.04407 21.3353 7.43872 22.9406 7.43872C24.2582 7.43872 25.0961 8.35002 25.0961 9.76916C25.0961 10.2319 25.0369 10.6946 24.893 11.3463H21.7105C21.6964 11.4479 21.6964 11.4902 21.6964 11.5494C21.6964 12.3027 22.1732 12.678 23.1014 12.678C23.6657 12.678 24.1876 12.5482 24.766 12.2717L24.5177 13.8517ZM23.6206 10.0428C23.6347 9.91305 23.6347 9.79738 23.6347 9.72402C23.6347 9.20207 23.361 8.90018 22.8814 8.90018C22.3735 8.90018 22.0124 9.30646 21.8685 10.0428H23.6206Z" fill="#FD0C15"/>
<path fill-rule="evenodd" clip-rule="evenodd" d="M6.71481 13.981H5.12357L6.03487 7.94608L3.98092 13.981H2.89469L2.76491 7.9884L1.79436 13.981H0.304688L1.54891 6.13477H3.84831L3.90756 10.9988L5.47059 6.13477H7.95903L6.71481 13.981Z" fill="#FD0C15"/>
<path fill-rule="evenodd" clip-rule="evenodd" d="M10.8387 11.143C10.6638 11.1289 10.5933 11.1148 10.4776 11.1148C9.56632 11.1148 9.11772 11.4477 9.11772 12.0853C9.11772 12.4775 9.34907 12.737 9.6961 12.737C10.3337 12.737 10.8105 12.0853 10.8387 11.143ZM11.9983 13.9813H10.6666L10.6949 13.3154C10.2886 13.8515 9.75535 14.0828 9.01615 14.0828C8.14717 14.0828 7.55469 13.3747 7.55469 12.3449C7.55469 10.7818 8.59577 9.88465 10.3619 9.88465C10.551 9.88465 10.7823 9.89875 11.0137 9.92697C11.056 9.70972 11.0729 9.62226 11.0729 9.50659C11.0729 9.0862 10.7992 8.92821 10.0459 8.92821C9.59735 8.92821 9.0754 9.00156 8.71427 9.11724L8.51113 9.19059L8.36724 9.23291L8.58448 7.79966C9.38011 7.55421 9.91616 7.45264 10.4945 7.45264C11.8685 7.45264 12.5936 8.10437 12.5936 9.32038C12.5936 9.63919 12.5654 9.87054 12.4638 10.5928L12.145 12.864L12.0858 13.2703L12.0435 13.5891L12.0153 13.8204L11.9983 13.9813Z" fill="#FD0C15"/>
<path fill-rule="evenodd" clip-rule="evenodd" d="M37.0927 11.1432C36.9347 11.1291 36.8472 11.1149 36.7315 11.1149C35.8202 11.1149 35.3575 11.4479 35.3575 12.0855C35.3575 12.4777 35.5889 12.7372 35.9359 12.7372C36.5876 12.7372 37.0644 12.0855 37.0927 11.1432ZM38.2522 13.9814H36.9206L36.9488 13.3156C36.5425 13.8517 36.0093 14.083 35.2701 14.083C34.4011 14.083 33.8086 13.3749 33.8086 12.3451C33.8086 10.782 34.8497 9.88484 36.6158 9.88484C36.7908 9.88484 37.0362 9.89894 37.2676 9.92716C37.3099 9.70991 37.324 9.62245 37.324 9.50678C37.324 9.08639 37.0503 8.9284 36.297 8.9284C35.8484 8.9284 35.3265 9.00175 34.9654 9.11743L34.734 9.17668L34.5901 9.219L34.8074 7.78575C35.603 7.54029 36.139 7.43872 36.7174 7.43872C38.0914 7.43872 38.8165 8.09045 38.8165 9.30646C38.8165 9.62527 38.7883 9.85662 38.6867 10.5789L38.3538 12.836L38.3115 13.2423L38.2692 13.5611L38.2409 13.7783L38.2522 13.9814Z" fill="#FD0C15"/>
<path fill-rule="evenodd" clip-rule="evenodd" d="M42.7237 7.5539C42.6813 7.53979 42.6221 7.53979 42.5657 7.53979C42.0437 7.53979 41.7418 7.81347 41.2481 8.58088L41.392 7.61033H39.9446L38.96 13.9922H40.5653C41.1437 10.0847 41.2876 9.41882 42.055 9.41882C42.0973 9.41882 42.0973 9.41882 42.1707 9.41882C42.3146 8.65141 42.5177 8.08714 42.7773 7.56519L42.7237 7.5539Z" fill="#FD0C15"/>
<path fill-rule="evenodd" clip-rule="evenodd" d="M36.0084 20.1883C36.0084 21.6357 35.5598 22.4906 34.8516 22.4906C34.3297 22.5047 34.0278 21.9263 34.0278 21.0714C34.0278 20.0585 34.4905 18.9018 35.2156 18.9018C35.8052 18.9018 36.0084 19.5225 36.0084 20.1883ZM37.5855 20.2024C37.5855 18.5971 36.7899 17.3359 35.2974 17.3359C33.5764 17.3359 32.4619 18.8566 32.4619 21.0996C32.4619 22.705 33.1278 24.0226 34.7472 24.0226C36.3836 24.0254 37.5855 22.8658 37.5855 20.2024Z" fill="#F3AE12"/>
<path fill-rule="evenodd" clip-rule="evenodd" d="M32.9683 16.2243L32.7228 17.9312C32.1868 17.6265 31.8115 17.5108 31.3912 17.5108C30.2767 17.5108 29.4952 18.7268 29.4952 20.4479C29.4952 21.6356 30.0172 22.3579 30.8833 22.3579C31.2586 22.3579 31.6648 22.2281 32.1558 21.9516L31.8962 23.746C31.346 23.9209 30.9849 23.9774 30.5645 23.9774C28.9592 23.9774 27.9463 22.6739 27.9463 20.5917C27.9463 17.7845 29.3344 15.8152 31.3178 15.8152C31.5774 15.8152 31.7946 15.8434 31.9837 15.9026L32.5902 16.0776C32.7962 16.1368 32.8385 16.1509 32.9683 16.2243Z" fill="#F3AE12"/>
<path fill-rule="evenodd" clip-rule="evenodd" d="M23.0852 17.3806C23.0429 17.3665 22.9836 17.3665 22.9272 17.3665C22.4363 17.3665 22.1598 17.6401 21.6971 18.4075L21.841 17.437H20.4952L19.5811 23.8217H21.0707C21.6068 19.9141 21.7507 19.2483 22.4588 19.2483C22.5012 19.2483 22.5012 19.2483 22.5745 19.2624C22.7043 18.495 22.8933 17.9307 23.1388 17.4088L23.0852 17.3806Z" fill="#F3AE12"/>
<path fill-rule="evenodd" clip-rule="evenodd" d="M42.5941 23.7632H41.175L41.2484 23.1397C40.8421 23.6306 40.4076 23.8478 39.8602 23.8478C38.774 23.8478 38.0518 22.7926 38.0518 21.1986C38.0518 19.0713 39.1662 17.2769 40.4838 17.2769C41.0621 17.2769 41.5107 17.5506 41.917 18.16L42.2499 15.917H43.7255L42.5941 23.7632ZM40.3794 22.2594C41.0875 22.2594 41.5672 21.3763 41.5672 20.1039C41.5672 19.2942 41.2935 18.8597 40.7715 18.8597C40.0916 18.8597 39.6148 19.7428 39.6148 21.0011C39.612 21.839 39.8715 22.2594 40.3794 22.2594Z" fill="#F3AE12"/>
<path fill-rule="evenodd" clip-rule="evenodd" d="M9.0723 23.7345C8.56446 23.9094 8.07354 23.994 7.53749 23.994C5.87288 23.994 5.00391 23.0094 5.00391 21.1275C5.00391 18.941 6.11834 17.3215 7.60802 17.3215C8.83813 17.3215 9.61965 18.2187 9.61965 19.652C9.61965 20.1147 9.5604 20.5774 9.43062 21.2291H6.46819C6.45408 21.3307 6.45408 21.373 6.45408 21.4323C6.45408 22.1714 6.90268 22.5467 7.77166 22.5467C8.30772 22.5467 8.78453 22.4169 9.32058 22.1404L9.0723 23.7345ZM8.23436 19.9285C8.23436 19.7987 8.24847 19.683 8.24847 19.6097C8.24847 19.0877 7.9889 18.7858 7.54031 18.7858C7.0635 18.7858 6.73058 19.1921 6.58387 19.9285H8.23436Z" fill="#F3AE12"/>
<path fill-rule="evenodd" clip-rule="evenodd" d="M26.8481 23.7345C26.3403 23.9094 25.8494 23.994 25.3133 23.994C23.6346 23.994 22.7656 23.0094 22.7656 21.1275C22.7656 18.941 23.8801 17.3215 25.3697 17.3215C26.5998 17.3215 27.3955 18.2187 27.3955 19.652C27.3955 20.1147 27.3362 20.5774 27.2064 21.2291H24.2412C24.2271 21.3307 24.2271 21.373 24.2271 21.4323C24.2271 22.1714 24.6757 22.5467 25.5447 22.5467C26.0807 22.5467 26.5575 22.4169 27.0936 22.1404L26.8481 23.7345ZM26.0074 19.9285C26.0215 19.7987 26.0215 19.683 26.0215 19.6097C26.0215 19.0877 25.7619 18.7858 25.3133 18.7858C24.8365 18.7858 24.5036 19.1921 24.3569 19.9285H26.0074Z" fill="#F3AE12"/>
<path fill-rule="evenodd" clip-rule="evenodd" d="M47.687 23.7345C47.165 23.9094 46.6741 23.994 46.1522 23.994C44.4876 23.994 43.6045 23.0094 43.6045 21.1275C43.6045 18.941 44.7189 17.3215 46.2227 17.3215C47.4528 17.3215 48.2343 18.2187 48.2343 19.652C48.2343 20.1147 48.1779 20.5774 48.0453 21.2291H45.0772C45.0631 21.3307 45.0631 21.373 45.0631 21.4323C45.0631 22.1714 45.5117 22.5467 46.3807 22.5467C46.9168 22.5467 47.3936 22.4169 47.9296 22.1404L47.687 23.7345ZM46.8491 19.9285C46.8491 19.7987 46.8632 19.683 46.8632 19.6097C46.8632 19.0877 46.6036 18.7858 46.155 18.7858C45.6782 18.7858 45.3453 19.1921 45.1986 19.9285H46.8491Z" fill="#F3AE12"/>
<path fill-rule="evenodd" clip-rule="evenodd" d="M4.64678 17.6715C4.35618 17.4683 3.95272 17.3103 3.40256 17.3103C2.79597 17.3103 2.31633 17.4401 2.31633 18.0777C2.31633 19.2063 4.51699 18.7859 4.51699 21.2179C4.51699 23.4327 3.06964 24.011 1.75206 24.011C1.17368 24.011 0.493738 23.822 0 23.5907L0.361134 21.9684C0.665841 22.2421 1.25833 22.4311 1.76617 22.4311C2.24298 22.4311 2.96807 22.3013 2.96807 21.4746C2.96807 20.1853 0.767409 20.6649 0.767409 18.405C0.767409 16.3341 2.05677 15.7275 3.30099 15.7275C3.99504 15.7275 4.66088 15.8291 5.03895 16.0887L4.64678 17.6715Z" fill="#F3AE12"/>
<path fill-rule="evenodd" clip-rule="evenodd" d="M13.4439 23.7344C13.1392 23.8783 12.7216 23.9799 12.1122 23.9799C10.8088 23.9799 9.99902 22.6764 9.99902 21.0852C9.99902 19.0002 11.1727 17.3525 12.8937 17.3525C13.269 17.3525 13.8502 17.5105 14.2988 17.7729L13.9659 19.2936C13.647 19.0764 13.3141 18.9466 12.9671 18.9466C12.1715 18.9466 11.5931 19.6858 11.5931 20.9864C11.5931 21.7398 12.0135 22.3604 12.6652 22.3604C13.0574 22.3604 13.331 22.273 13.664 22.0868L13.4439 23.7344Z" fill="#F3AE12"/>
<path fill-rule="evenodd" clip-rule="evenodd" d="M19.0325 22.1297C18.9592 22.6799 18.8886 23.2159 18.8435 23.7802H17.4102L17.5259 22.7532H17.5118C17.0632 23.4473 16.6005 23.9269 15.7738 23.9269C14.8767 23.9269 14.3857 22.9705 14.3857 21.7403C14.3857 21.3059 14.414 21.0745 14.5014 20.4087L14.9077 17.4575H16.513L16.0786 20.4256C16.0362 20.7444 15.977 21.0632 15.977 21.3961C15.977 21.7714 16.1519 22.1494 16.5836 22.1184C17.2353 22.1184 17.6247 21.3228 17.7403 20.3804L18.1889 17.4575H19.7379L19.0325 22.1297Z" fill="#F3AE12"/>
<path fill-rule="evenodd" clip-rule="evenodd" d="M49.1793 23.7066H48.931V22.6486H48.584V22.4172H49.5263V22.6486H49.1793V23.7066Z" fill="#F3AE12"/>
<path fill-rule="evenodd" clip-rule="evenodd" d="M50.7838 23.7066H50.5525V22.6345L50.3352 23.7066H50.1039L49.8866 22.6345V23.7066H49.6553V22.4172H50.0164L50.2195 23.4301H50.2337L50.4368 22.4172H50.7838V23.7066Z" fill="#F3AE12"/>
<g clip-path="url(#clip0)">
<rect x="62.7842" y="0.990234" width="43.7797" height="28.019" rx="2.62678" fill="#0F3560"/>
<path d="M88.4947 21.8861H80.834V8.11841H88.4947V21.8861Z" fill="#FF5F00"/>
<path d="M81.3247 15.0011C81.3247 12.2083 82.6323 9.72052 84.6686 8.1173C83.1795 6.94494 81.3002 6.2452 79.2578 6.2452C74.4225 6.2452 70.5029 10.1653 70.5029 15.0011C70.5029 19.837 74.4225 23.7571 79.2578 23.7571C81.3002 23.7571 83.1795 23.0573 84.6686 21.885C82.6323 20.2818 81.3247 17.794 81.3247 15.0011Z" fill="#EB001B"/>
<path d="M98.8264 15.0011C98.8264 19.837 94.9069 23.7571 90.0716 23.7571C88.0292 23.7571 86.1498 23.0573 84.6602 21.885C86.697 20.2818 88.0047 17.794 88.0047 15.0011C88.0047 12.2083 86.697 9.72052 84.6602 8.1173C86.1498 6.94494 88.0292 6.2452 90.0716 6.2452C94.9069 6.2452 98.8264 10.1653 98.8264 15.0011Z" fill="#F79E1B"/>
<path d="M77.0909 15.0565C77.0909 14.6741 77.3416 14.3599 77.7511 14.3599C78.1424 14.3599 78.4066 14.6605 78.4066 15.0565C78.4066 15.4525 78.1424 15.7532 77.7511 15.7532C77.3416 15.7532 77.0909 15.439 77.0909 15.0565ZM78.8526 15.0565V13.9686H78.3795V14.2327C78.2295 14.0368 78.0018 13.9139 77.6922 13.9139C77.0821 13.9139 76.6038 14.3922 76.6038 15.0565C76.6038 15.7214 77.0821 16.1992 77.6922 16.1992C78.0018 16.1992 78.2295 16.0762 78.3795 15.8803V16.1445H78.8526V15.0565ZM94.8408 15.0565C94.8408 14.6741 95.0914 14.3599 95.501 14.3599C95.8928 14.3599 96.1565 14.6605 96.1565 15.0565C96.1565 15.4525 95.8928 15.7532 95.501 15.7532C95.0914 15.7532 94.8408 15.439 94.8408 15.0565ZM96.603 15.0565V13.0948H96.1294V14.2327C95.9793 14.0368 95.7516 13.9139 95.4421 13.9139C94.8319 13.9139 94.3536 14.3922 94.3536 15.0565C94.3536 15.7214 94.8319 16.1992 95.4421 16.1992C95.7516 16.1992 95.9793 16.0762 96.1294 15.8803V16.1445H96.603V15.0565ZM84.7255 14.3375C85.0303 14.3375 85.2262 14.5287 85.2763 14.8653H84.1471C84.1977 14.5511 84.3884 14.3375 84.7255 14.3375ZM84.7349 13.9139C84.0971 13.9139 83.6511 14.3781 83.6511 15.0565C83.6511 15.7485 84.1153 16.1992 84.7667 16.1992C85.0944 16.1992 85.3945 16.1174 85.6587 15.8944L85.4268 15.5437C85.2445 15.6891 85.0121 15.7714 84.7938 15.7714C84.4889 15.7714 84.2112 15.6302 84.143 15.2384H85.7588C85.7634 15.1795 85.7681 15.1201 85.7681 15.0565C85.7634 14.3781 85.3445 13.9139 84.7349 13.9139ZM90.4478 15.0565C90.4478 14.6741 90.6984 14.3599 91.1079 14.3599C91.4993 14.3599 91.7634 14.6605 91.7634 15.0565C91.7634 15.4525 91.4993 15.7532 91.1079 15.7532C90.6984 15.7532 90.4478 15.439 90.4478 15.0565ZM92.2095 15.0565V13.9686H91.7363V14.2327C91.5858 14.0368 91.3586 13.9139 91.0491 13.9139C90.4389 13.9139 89.9606 14.3922 89.9606 15.0565C89.9606 15.7214 90.4389 16.1992 91.0491 16.1992C91.3586 16.1992 91.5858 16.0762 91.7363 15.8803V16.1445H92.2095V15.0565ZM87.7758 15.0565C87.7758 15.7167 88.2353 16.1992 88.9367 16.1992C89.2644 16.1992 89.4828 16.1263 89.7193 15.9397L89.4921 15.5573C89.3145 15.6849 89.1279 15.7532 88.9226 15.7532C88.5449 15.7485 88.2671 15.4755 88.2671 15.0565C88.2671 14.6376 88.5449 14.3646 88.9226 14.3599C89.1279 14.3599 89.3145 14.4281 89.4921 14.5558L89.7193 14.1733C89.4828 13.9868 89.2644 13.9139 88.9367 13.9139C88.2353 13.9139 87.7758 14.3964 87.7758 15.0565ZM93.8758 13.9139C93.6028 13.9139 93.4251 14.0415 93.3021 14.2327V13.9686H92.8332V16.1445H93.3068V14.9247C93.3068 14.5647 93.4616 14.3646 93.7711 14.3646C93.867 14.3646 93.967 14.3781 94.067 14.4193L94.2129 13.9733C94.1082 13.9321 93.9717 13.9139 93.8758 13.9139ZM81.1927 14.1416C80.965 13.9915 80.6513 13.9139 80.3054 13.9139C79.7541 13.9139 79.3992 14.178 79.3992 14.6105C79.3992 14.9654 79.6634 15.1842 80.1501 15.2525L80.3736 15.2842C80.6331 15.3207 80.7556 15.389 80.7556 15.5119C80.7556 15.6802 80.5826 15.7761 80.2595 15.7761C79.9318 15.7761 79.6952 15.6714 79.5358 15.5484L79.3127 15.9168C79.5722 16.108 79.9 16.1992 80.2548 16.1992C80.8832 16.1992 81.2474 15.9033 81.2474 15.489C81.2474 15.1066 80.9608 14.9065 80.4872 14.8382L80.2642 14.8059C80.0594 14.7788 79.8953 14.7382 79.8953 14.5923C79.8953 14.4328 80.05 14.3375 80.3095 14.3375C80.5872 14.3375 80.8561 14.4422 80.9879 14.524L81.1927 14.1416ZM87.2974 13.9139C87.0244 13.9139 86.8467 14.0415 86.7243 14.2327V13.9686H86.2553V16.1445H86.7284V14.9247C86.7284 14.5647 86.8832 14.3646 87.1927 14.3646C87.2886 14.3646 87.3886 14.3781 87.4887 14.4193L87.6346 13.9733C87.5298 13.9321 87.3933 13.9139 87.2974 13.9139ZM83.2598 13.9686H82.486V13.3084H82.0077V13.9686H81.5663V14.401H82.0077V15.3937C82.0077 15.8986 82.2036 16.1992 82.7632 16.1992C82.9685 16.1992 83.205 16.1356 83.3551 16.0309L83.2186 15.6255C83.0774 15.7073 82.9226 15.7485 82.7997 15.7485C82.5631 15.7485 82.486 15.6026 82.486 15.3843V14.401H83.2598V13.9686ZM76.1853 16.1445V14.7788C76.1853 14.2645 75.8576 13.9185 75.3292 13.9139C75.0515 13.9092 74.7649 13.9957 74.5643 14.301C74.4143 14.0598 74.1777 13.9139 73.8453 13.9139C73.6129 13.9139 73.3857 13.9821 73.208 14.2369V13.9686H72.7344V16.1445H73.2122V14.9383C73.2122 14.5605 73.4217 14.3599 73.7452 14.3599C74.0594 14.3599 74.2183 14.5647 74.2183 14.9336V16.1445H74.6967V14.9383C74.6967 14.5605 74.915 14.3599 75.2292 14.3599C75.5523 14.3599 75.707 14.5647 75.707 14.9336V16.1445H76.1853Z" fill="white"/>
</g>
<g clip-path="url(#clip1)">
<rect x="118.563" y="0.990234" width="43.7797" height="28.019" rx="2.62678" fill="#00579F"/>
<path d="M138.234 19.8467H135.539L137.225 10.1841H139.92L138.234 19.8467Z" fill="white"/>
<path d="M148.005 10.4204C147.473 10.2249 146.63 10.009 145.588 10.009C142.926 10.009 141.052 11.3247 141.04 13.2058C141.018 14.5936 142.382 15.3644 143.402 15.8272C144.445 16.3 144.8 16.6087 144.8 17.0302C144.789 17.6775 143.957 17.9759 143.181 17.9759C142.105 17.9759 141.528 17.822 140.652 17.4619L140.297 17.3075L139.92 19.4766C140.552 19.7435 141.717 19.9804 142.926 19.9908C145.754 19.9908 147.595 18.6955 147.617 16.6909C147.628 15.591 146.908 14.7481 145.355 14.0594C144.412 13.6173 143.835 13.3192 143.835 12.8668C143.846 12.4556 144.323 12.0344 145.387 12.0344C146.263 12.0137 146.907 12.209 147.395 12.4043L147.639 12.5069L148.005 10.4204Z" fill="white"/>
<path d="M151.587 16.4236C151.809 15.8685 152.663 13.7201 152.663 13.7201C152.652 13.7407 152.885 13.1547 153.018 12.795L153.206 13.6276C153.206 13.6276 153.717 15.9405 153.827 16.4236C153.406 16.4236 152.119 16.4236 151.587 16.4236ZM154.914 10.1841H152.829C152.186 10.1841 151.698 10.3587 151.421 10.9858L147.417 19.8466H150.245C150.245 19.8466 150.711 18.654 150.811 18.3971C151.121 18.3971 153.872 18.3971 154.271 18.3971C154.349 18.7364 154.593 19.8466 154.593 19.8466H157.089L154.914 10.1841Z" fill="white"/>
<path d="M133.288 10.1841L130.649 16.7731L130.36 15.4367C129.872 13.8948 128.342 12.2195 126.634 11.3865L129.052 19.8365H131.902L136.138 10.1841H133.288Z" fill="white"/>
<path d="M128.197 10.1841H123.861L123.816 10.3793C127.199 11.1812 129.439 13.114 130.36 15.4371L129.417 10.9963C129.262 10.3792 128.785 10.2044 128.197 10.1841Z" fill="#FAA61A"/>
</g>
<path fill-rule="evenodd" clip-rule="evenodd" d="M210.517 18.953C210.457 19.4227 210.381 19.876 210.285 20.3088C209.883 20.1775 209.419 19.9663 208.763 20.0114C208.371 20.0381 207.91 20.1878 207.904 20.5406C207.898 20.9323 208.54 21.1641 208.896 21.3344C209.54 21.642 210.232 22.0543 210.285 22.8891C210.326 23.5311 210.029 24.091 209.69 24.411C208.788 25.2642 206.788 25.3524 205.422 24.8089C205.508 24.3535 205.584 23.89 205.654 23.4203C206.183 23.6459 206.909 23.9495 207.705 23.851C208.068 23.8059 208.511 23.5946 208.498 23.2234C208.482 22.7701 207.635 22.4994 207.208 22.2635C206.712 21.9907 206.148 21.5354 206.117 20.84C206.097 20.3785 206.277 19.9437 206.515 19.6484C207.219 18.7705 209.032 18.4587 210.517 18.953Z" fill="#2D2E91"/>
<path fill-rule="evenodd" clip-rule="evenodd" d="M194.304 10.0923H196.127L195.005 17.1706H193.18L194.304 10.0923Z" fill="#2D2E91"/>
<path fill-rule="evenodd" clip-rule="evenodd" d="M187.984 10.0923H190.778C192.554 10.0923 193.016 11.1158 192.823 12.3382C192.661 13.3597 191.927 14.0406 190.975 14.2826L192.743 17.1706H190.452L189.125 14.3914L188.684 17.1706H186.86L187.984 10.0923ZM189.584 11.4993L189.303 13.2756H189.83C190.343 13.2756 190.827 12.8756 190.909 12.3874C190.989 11.8993 190.636 11.4993 190.124 11.4993H189.584Z" fill="#2D2E91"/>
<path fill-rule="evenodd" clip-rule="evenodd" d="M202.633 10.0923H204.458L203.334 17.1706H201.511L202.633 10.0923Z" fill="#2D2E91"/>
<path fill-rule="evenodd" clip-rule="evenodd" d="M205.844 10.0923H209.849L209.605 11.6306H207.425L207.232 12.8407H209.306L209.062 14.379H206.988L206.789 15.6323H208.969L208.725 17.1706H204.722L205.844 10.0923Z" fill="#2D2E91"/>
<path fill-rule="evenodd" clip-rule="evenodd" d="M182.894 10.0923H186.9L186.656 11.6306H184.476L184.283 12.8407H186.357L186.113 14.379H184.039L183.84 15.6323H186.02L185.776 17.1706H181.772L182.894 10.0923Z" fill="#2D2E91"/>
<path fill-rule="evenodd" clip-rule="evenodd" d="M197.511 10.0923H201.56L201.315 11.6306H199.09L198.895 12.8407H200.92L200.676 14.379H198.651L198.208 17.1706H196.387L197.511 10.0923Z" fill="#2D2E91"/>
<path fill-rule="evenodd" clip-rule="evenodd" d="M210.924 10.0928H213.301C216.134 10.0928 216.78 12.2341 216.556 13.6329C216.238 15.6307 214.458 17.1711 212.177 17.1711H209.8L210.924 10.0928ZM212.505 11.6311C212.636 11.6311 212.762 11.6311 212.883 11.6311C214.277 11.6311 214.823 12.6136 214.671 13.5632C214.468 14.8369 213.553 15.6307 212.358 15.6307C212.198 15.6307 212.044 15.6307 211.869 15.6307L212.505 11.6311Z" fill="#2D2E91"/>
<path fill-rule="evenodd" clip-rule="evenodd" d="M174.343 9.12868H177.717L178.117 14.2707C180.35 10.4065 182.619 6.68789 184.906 3.03491H186.007C183.587 7.70113 181.197 12.3981 178.884 17.171H176.406L175.801 11.4997C175.651 10.0927 175.368 9.49582 174.343 9.34404V9.12868Z" fill="#2D2E91"/>
<path fill-rule="evenodd" clip-rule="evenodd" d="M175.62 6.2036L178.498 7.42399L178.748 10.6278H178.959L181.57 6.20565V5.98413H175.62V6.2036Z" fill="#FF8500"/>
<path fill-rule="evenodd" clip-rule="evenodd" d="M188.922 22.2411C189.359 22.2411 189.655 22.641 189.585 23.1333C189.515 23.6256 189.103 24.0255 188.668 24.0255C188.231 24.0255 187.936 23.6256 188.006 23.1333C188.075 22.641 188.486 22.2411 188.922 22.2411ZM187.448 18.8342H188.629L188.231 21.6237C188.568 21.2976 188.98 21.0966 189.441 21.0966C190.389 21.0966 191.01 22.0093 190.842 23.1353C190.674 24.2614 189.782 25.1762 188.834 25.1762C188.367 25.1762 188.032 24.9649 187.805 24.6121L187.741 25.0552H186.56L187.448 18.8342Z" fill="#2D2E91"/>
<path fill-rule="evenodd" clip-rule="evenodd" d="M190.944 21.1929H192.359L192.993 23.1701L194.223 21.1929H195.593L192 26.9646H190.632L192.146 24.53L190.944 21.1929Z" fill="#2D2E91"/>
<path fill-rule="evenodd" clip-rule="evenodd" d="M202.633 25.053L203.671 18.832H205.369L204.331 25.053H202.633Z" fill="#2D2E91"/>
<path fill-rule="evenodd" clip-rule="evenodd" d="M201.214 18.8198C200.629 20.1982 200.129 21.6606 199.526 23.0204L199.349 22.2041C199.349 22.2021 199.347 22.198 199.347 22.1939L199.378 22.3395C199.247 21.9108 199.025 21.5047 198.74 21.1334C198.732 21.1232 198.726 21.115 198.717 21.1047C198.668 21.0411 198.615 20.9796 198.562 20.916C198.529 20.8791 198.496 20.8401 198.463 20.8032C198.053 20.354 197.554 19.9664 197.027 19.6587L198.537 25.0387H200.356C201.214 22.9404 202.137 20.9099 203.002 18.8198C202.405 18.8198 201.81 18.8198 201.214 18.8198Z" fill="#2D2E91"/>
<path fill-rule="evenodd" clip-rule="evenodd" d="M198.009 18.8215H195.234V18.9569C196.832 19.2687 198.848 20.608 199.378 22.3412L198.781 19.443C198.701 18.9979 198.389 18.8215 198.009 18.8215Z" fill="#FF8500"/>
<path fill-rule="evenodd" clip-rule="evenodd" d="M216.242 25.0741C215.723 25.0741 215.206 25.0741 214.687 25.0741C214.587 24.7767 214.558 24.4095 214.455 24.1142C213.75 24.1142 213.044 24.1142 212.339 24.1142L211.941 25.0741C211.346 25.0741 210.749 25.0741 210.154 25.0741L212.47 19.7474C212.573 19.5136 212.757 19.1936 212.833 19.0521C212.95 18.8367 213.405 18.8203 213.6 18.8203H214.884L216.242 25.0741ZM213.668 20.5432L212.804 22.8568H214.203L213.668 20.5432Z" fill="#2D2E91"/>
<defs>
<clipPath id="clip0">
<rect width="43.7797" height="28.019" fill="white" transform="translate(62.7842 0.990234)"/>
</clipPath>
<clipPath id="clip1">
<rect width="43.7797" height="28.019" fill="white" transform="translate(118.563 0.990234)"/>
</clipPath>
</defs>
</svg>
