<svg width="133" height="92" viewBox="0 0 133 92" fill="none" xmlns="http://www.w3.org/2000/svg">
<g clip-path="url(#clip0)">
<circle cx="71.5732" cy="50" r="42" fill="#DD2930" fill-opacity="0.08"/>
<path d="M32.7325 13.1837C32.7325 13.1837 32.503 19.8717 27.4713 17.8893C22.4396 15.9068 20.4571 18.609 20 23.0526C20 23.0526 23.8122 19.7108 29.9115 24.8233C36.0107 29.9357 42.944 23.9223 42.944 23.9223C42.944 23.9223 36.3165 14.2722 32.7325 13.1837Z" fill="#E14D43"/>
<path opacity="0.2" d="M22.1134 17.9872C20.8704 18.9523 20.2346 20.7733 20 23.0526C20 23.0526 20.4699 22.6412 21.3428 22.3278C20.6561 20.1686 22.1 18.0069 22.1134 17.9872Z" fill="#E14D43"/>
<path opacity="0.2" d="M39.8105 20.8972C39.8105 20.8972 41.5843 27.1319 32.9775 26.526C38.1186 28.1072 42.9443 23.9224 42.9443 23.9224C42.9443 23.9224 41.6861 22.09 39.9694 19.9327C39.8416 20.1743 39.7799 20.4903 39.8105 20.8972Z" fill="#E14D43"/>
<path d="M48.1338 45.7474C48.121 45.7474 48.1083 45.7468 48.0956 45.7462C47.8273 45.7258 47.627 45.4912 47.6474 45.2235C47.6512 45.1771 47.9799 40.4945 46.2041 34.1435C44.5676 28.2922 40.756 19.7827 31.8891 12.4717C31.6818 12.3006 31.652 11.9935 31.823 11.7863C31.994 11.579 32.3011 11.5491 32.5084 11.7201C36.5158 15.0231 39.8563 18.8424 42.4376 23.0704C44.5034 26.4541 46.0903 30.1049 47.154 33.9222C48.9667 40.4296 48.6341 45.1021 48.6189 45.2979C48.5992 45.5529 48.3862 45.7474 48.1338 45.7474Z" fill="#3F4140"/>
<g opacity="0.2">
<path opacity="0.2" d="M31.8593 21.4483C33.8583 23.8879 35.1121 21.8209 33.7909 18.8053C32.5638 16.0046 32.6903 13.7564 32.7145 13.45C32.6077 14.6713 31.8968 19.6337 27.4717 17.8904C27.4717 17.8904 29.8604 19.0087 31.8593 21.4483Z" fill="#E14D43"/>
</g>
<path opacity="0.2" d="M28.4374 21.8879C28.4374 21.8879 27.1836 18.2536 25.2184 17.9866C23.2531 17.7196 22.1685 19.6848 23.5583 20.2271C24.9469 20.7701 29.2055 23.5587 28.4374 21.8879Z" fill="#E14D43"/>
<path d="M32.7489 12.697C33.053 12.3928 33.053 11.8997 32.7489 11.5955C32.4447 11.2914 31.9516 11.2914 31.6474 11.5955C31.3432 11.8997 31.3432 12.3928 31.6474 12.697C31.9516 13.0011 32.4447 13.0011 32.7489 12.697Z" fill="#3F4140"/>
<path d="M27.8761 50.4638C27.2867 50.4638 26.8086 49.9857 26.8086 49.3963V47.3547C26.8086 46.7654 27.2867 46.2872 27.8761 46.2872C28.4655 46.2872 28.9436 46.7654 28.9436 47.3547V49.3963C28.9436 49.9857 28.4655 50.4638 27.8761 50.4638Z" fill="#424443"/>
<path d="M55.2273 66.5374H32.481C31.9463 66.5374 31.5127 66.1038 31.5127 65.5691C31.5127 65.0344 31.9463 64.6008 32.481 64.6008H55.2273C55.762 64.6008 56.1957 65.0344 56.1957 65.5691C56.1957 66.1038 55.762 66.5374 55.2273 66.5374Z" fill="#E1E4EA"/>
<path d="M55.2272 64.6008H32.4808C32.0123 64.6008 31.6219 64.9333 31.5322 65.3752C31.6181 65.3497 31.709 65.3358 31.8031 65.3358H54.5494C55.0841 65.3358 55.5177 65.7694 55.5177 66.3041C55.5177 66.3702 55.5107 66.435 55.498 66.498C55.9005 66.3804 56.1955 66.0097 56.1955 65.5691C56.1955 65.0344 55.7619 64.6008 55.2272 64.6008Z" fill="#E1E4EA"/>
<path d="M87.4816 77.1883C87.2311 77.7523 85.1444 77.3365 84.6631 77.2665C84.2581 77.208 83.8607 77.1438 83.5129 76.8971C83.2039 76.6784 83.0615 76.2556 83.0615 75.8633V72.2495H87.7702C87.7702 72.2495 87.9057 75.3782 87.9057 75.3795C87.9057 76.2709 87.9222 76.1978 87.4816 77.1883Z" fill="#FFCEA3"/>
<path opacity="0.6" d="M83.0605 75.63H87.9047C87.9047 75.5556 87.9047 75.4736 87.9047 75.3801C87.9047 75.3795 87.8481 74.0723 87.8081 73.1478C86.3635 73.303 84.5884 73.509 83.0605 73.6902V75.63Z" fill="#FFCEA3"/>
<path d="M86.6793 76.3535C86.0047 76.9073 85.0434 77.1585 84.1698 77.0275C83.562 76.887 83.1544 76.386 83.061 75.8633C82.3514 76.4076 82.3311 77.3912 82.3311 78.1967C82.3311 79.4461 84.2919 79.5529 86.7104 79.5529C89.129 79.5529 91.971 79.5732 91.971 78.3239C91.971 77.4401 90.7579 76.501 88.4226 75.9377C87.8091 75.7889 87.1676 75.9524 86.6793 76.3535Z" fill="#272A33"/>
<path d="M89.7361 76.3339C89.7361 76.3339 89.0895 77.0193 89.0316 78.1033C88.9738 79.1873 83.9287 78.7791 82.336 77.9316C82.336 77.9316 81.9762 78.7467 82.6883 79.1708C83.3997 79.5942 88.4321 79.9681 90.2276 79.5523C92.0237 79.1365 92.6341 78.7067 92.0854 77.2812C91.6842 76.2398 89.7361 76.3339 89.7361 76.3339Z" fill="#E1E4EA"/>
<path d="M92.1673 77.5151C92.208 78.3366 91.529 78.6723 90.1169 78.9991C88.3208 79.4149 83.289 79.0411 82.5776 78.6176C82.4218 78.5248 82.3175 78.4135 82.2495 78.2959C82.226 78.5674 82.2864 78.9311 82.6876 79.1701C83.399 79.5936 88.4314 79.9674 90.2269 79.5516C91.9206 79.1606 92.5596 78.7556 92.1673 77.5151Z" fill="#E1E4EA"/>
<path opacity="0.8" d="M91.4722 77.0421C91.4722 77.2048 91.1251 77.3364 90.6966 77.3364C90.268 77.3364 89.9209 77.2048 89.9209 77.0421C89.9209 76.8793 90.268 76.7477 90.6966 76.7477C91.1251 76.7477 91.4722 76.8799 91.4722 77.0421Z" fill="white"/>
<path d="M109.641 87.9442C112.807 84.7782 112.807 79.6451 109.641 76.4792C106.475 73.3132 101.342 73.3132 98.1759 76.4792C95.0099 79.6451 95.0099 84.7782 98.1759 87.9442C101.342 91.1102 106.475 91.1101 109.641 87.9442Z" fill="#3F4140"/>
<path opacity="0.3" d="M110.953 78.1954C109.557 75.7521 106.925 74.1053 103.91 74.1053C99.4325 74.1053 95.8027 77.7351 95.8027 82.2124C95.8027 83.1922 95.9763 84.1312 96.2948 85.0004C96.3057 84.9858 96.3165 84.9718 96.326 84.9571C96.7749 84.2692 98.5519 81.4679 100.052 78.067C102.083 77.0637 105.595 76.3046 110.953 78.1954Z" fill="#3F4140"/>
<path opacity="0.3" d="M109.68 76.5182C110.559 77.7771 111.076 79.3081 111.076 80.9599C111.076 85.2477 107.6 88.7236 103.312 88.7236C99.7745 88.7236 96.7894 86.3572 95.8535 83.121C96.3056 87.1704 99.7395 90.3182 103.91 90.3182C108.387 90.3182 112.017 86.6884 112.017 82.2111C112.016 79.9928 111.124 77.9824 109.68 76.5182Z" fill="#3F4140"/>
<path d="M107.356 85.659C109.26 83.7551 109.26 80.6682 107.356 78.7643C105.452 76.8604 102.365 76.8604 100.461 78.7643C98.5571 80.6682 98.5571 83.7551 100.461 85.659C102.365 87.5629 105.452 87.5629 107.356 85.659Z" fill="#E7E4D5"/>
<path d="M107.356 85.659C109.26 83.7551 109.26 80.6682 107.356 78.7643C105.452 76.8604 102.365 76.8604 100.461 78.7643C98.5571 80.6682 98.5571 83.7551 100.461 85.659C102.365 87.5629 105.452 87.5629 107.356 85.659Z" fill="#F9EDD9"/>
<path d="M102.479 83.8738L104.902 86.9853C106.337 86.6884 107.541 85.7595 108.212 84.5032L105.976 81.796L102.479 83.8738Z" fill="#E7E4D5"/>
<path d="M102.103 83.2411L99.2938 75.7063C98.8952 74.6369 99.4388 73.446 100.508 73.0474C101.578 72.6487 102.768 73.1923 103.167 74.2617L105.977 81.7966C106.375 82.866 105.832 84.0568 104.762 84.4555C103.693 84.8548 102.502 84.3112 102.103 83.2411Z" fill="#FCF4E6"/>
<path opacity="0.5" d="M103.869 83.6061C104.24 83.4567 104.42 83.0351 104.271 82.6638L101.097 74.764C100.947 74.3927 100.526 74.2128 100.155 74.3622C99.7833 74.5116 99.6034 74.9332 99.7528 75.3045L102.927 83.2043C103.076 83.5756 103.498 83.7555 103.869 83.6061Z" fill="white"/>
<path opacity="0.3" d="M103.167 74.2624C102.768 73.193 101.578 72.6494 100.508 73.048C99.4388 73.4467 98.8952 74.6375 99.2938 75.7069L100.09 77.8432C101.072 77.3562 102.403 76.9258 104.123 76.8259L103.167 74.2624Z" fill="#E7E4D5"/>
<path d="M97.3596 78.7518C97.3596 78.7518 101.159 73.8103 110.778 77.3365C114.594 78.7352 112.811 68.277 100.691 68.9884C100.691 68.9884 96.4447 72.9577 97.3596 78.7518Z" fill="#E14D43"/>
<path opacity="0.1" d="M97.3596 78.7518C97.3596 78.7518 101.159 73.8103 110.778 77.3365C114.594 78.7352 112.811 68.277 100.691 68.9884C100.691 68.9884 96.4447 72.9577 97.3596 78.7518Z" fill="#E14D43"/>
<path opacity="0.5" d="M100.691 68.9884C100.691 68.9884 96.4447 72.9577 97.3596 78.7517C97.3596 78.7517 98.3095 77.5157 100.463 76.7216C101.515 74.2001 102.361 71.4216 102.391 68.9617C101.848 68.9458 101.282 68.9534 100.691 68.9884Z" fill="#E14D43"/>
<path d="M91.5878 55.8992C91.5878 55.8992 98.7647 74.4131 92.6757 79.2705C89.6601 81.6764 87.9314 84.8293 88.77 85.0582C89.6086 85.2871 95.0078 85.2871 95.8534 83.9907C96.699 82.6943 102.262 73.8923 101.804 67.7168C101.489 63.4532 96.8491 55.7466 94.7141 54.908C92.5791 54.0694 91.4353 54.0694 91.5878 55.8992Z" fill="#E14D43"/>
<path opacity="0.3" d="M94.7929 58.918L101.43 71.7122C101.743 70.3287 101.897 68.9687 101.804 67.7168C101.554 64.3344 98.5829 58.7877 96.2997 56.2191C95.3384 56.8949 94.7662 57.7755 94.7929 58.918Z" fill="#E14D43"/>
<path d="M56.6197 84.0168H46.8806C46.4247 84.0168 46.0547 83.6468 46.0547 83.1909V80.6496C46.0547 80.1938 46.4247 79.8237 46.8806 79.8237H56.6204C57.0762 79.8237 57.4463 80.1938 57.4463 80.6496V83.1909C57.4463 83.6468 57.0763 84.0168 56.6197 84.0168Z" fill="#D3DDDD"/>
<path opacity="0.4" d="M50.317 81.644C52.3662 81.644 54.0275 81.3084 54.0275 80.8944C54.0275 80.4804 52.3662 80.1448 50.317 80.1448C48.2677 80.1448 46.6064 80.4804 46.6064 80.8944C46.6064 81.3084 48.2677 81.644 50.317 81.644Z" fill="white"/>
<path d="M67.5901 87.9441C70.7561 84.7781 70.7561 79.645 67.5901 76.479C64.4241 73.3131 59.2911 73.3131 56.1251 76.479C52.9591 79.645 52.9591 84.7781 56.1251 87.9441C59.2911 91.11 64.4241 91.11 67.5901 87.9441Z" fill="#3F4140"/>
<path opacity="0.3" d="M61.8587 88.3879C57.7076 88.3879 54.2857 85.2674 53.8088 81.2448C53.7713 81.562 53.751 81.885 53.751 82.2124C53.751 86.6897 57.3807 90.3195 61.858 90.3195C66.3353 90.3195 69.9651 86.6897 69.9651 82.2124C69.9651 81.8863 69.9454 81.5646 69.9079 81.2486C69.4298 85.2694 66.0085 88.3879 61.8587 88.3879Z" fill="#3F4140"/>
<path d="M65.3049 85.6589C67.2088 83.755 67.2088 80.6681 65.3049 78.7642C63.401 76.8603 60.3141 76.8603 58.4102 78.7642C56.5063 80.6681 56.5063 83.755 58.4102 85.6589C60.3141 87.5628 63.401 87.5628 65.3049 85.6589Z" fill="#F9EDD9"/>
<path opacity="0.3" d="M69.9651 82.2118C69.9651 77.7345 66.3353 74.1047 61.858 74.1047C57.3807 74.1047 53.751 77.7345 53.751 82.2118C53.751 83.1725 53.9182 84.0938 54.2253 84.9489C57.7222 85.4143 63.2873 85.6928 69.1011 85.8575C69.6536 84.7613 69.9651 83.5235 69.9651 82.2118Z" fill="#3F4140"/>
<path d="M93.1557 79.2452C93.1557 79.2452 82.0947 79.874 81.6961 78.959C81.2975 78.0441 78.6538 65.3517 71.9321 64.2842C65.2105 63.2167 54.5367 62.338 50.4956 67.2178C46.4551 72.0975 46.3788 81.0171 50.4956 83.2284C54.6124 85.4397 92.0571 85.1161 92.0571 85.1161L93.1557 79.2452Z" fill="#E14D43"/>
<path d="M101.804 67.7168C101.488 63.4532 96.8484 55.7466 94.7134 54.908C92.5784 54.0694 91.4353 54.0694 91.5872 55.8992C91.5872 55.8992 98.7641 74.4131 92.6751 79.2705C90.5445 79.3786 82.0452 79.7588 81.6961 78.959C81.2975 78.0441 78.6538 65.3517 71.9321 64.2842C65.2105 63.2166 54.5367 62.338 50.4956 67.2177C46.4551 72.0975 46.3788 81.0171 50.4956 83.2284C53.9263 85.0709 80.5008 85.1536 89.2634 85.1294C89.9011 85.1847 90.9635 85.1955 92.0571 85.1154C93.6974 84.9959 95.4065 84.6729 95.8521 83.9901C96.6984 82.695 102.261 73.8923 101.804 67.7168Z" fill="#E14D43"/>
<path opacity="0.3" d="M101.804 67.7168C101.488 63.4532 96.8484 55.7466 94.7134 54.908C92.5784 54.0694 91.4353 54.0694 91.5872 55.8992C91.5872 55.8992 98.7641 74.4131 92.6751 79.2705C90.5445 79.3786 82.0452 79.7588 81.6961 78.959C81.2975 78.0441 78.6538 65.3517 71.9321 64.2842C65.2105 63.2166 54.5367 62.338 50.4956 67.2177C46.4551 72.0975 46.3788 81.0171 50.4956 83.2284C53.9263 85.0709 80.5008 85.1536 89.2634 85.1294C89.9011 85.1847 90.9635 85.1955 92.0571 85.1154C93.6974 84.9959 95.4065 84.6729 95.8521 83.9901C96.6984 82.695 102.261 73.8923 101.804 67.7168Z" fill="#E14D43"/>
<path d="M100.69 58.918C102.863 58.918 104.625 56.3435 104.625 53.1678C104.625 49.9921 102.863 47.4177 100.69 47.4177C98.5166 47.4177 96.7549 49.9921 96.7549 53.1678C96.7549 56.3435 98.5166 58.918 100.69 58.918Z" fill="#FDC055"/>
<path opacity="0.5" d="M103.926 53.0668C104.253 52.9788 104.303 52.1073 104.037 51.1203C103.771 50.1333 103.291 49.4045 102.964 49.4925C102.637 49.5805 102.588 50.452 102.853 51.439C103.119 52.426 103.599 53.1548 103.926 53.0668Z" fill="#FDC055"/>
<path d="M99.2399 46.6547C96.1931 46.6547 92.7509 47.5067 91.7642 49.1515C89.8892 52.2784 90.7628 56.3087 93.6696 58.5092C97.8653 61.6856 103.039 60.36 102.61 57.0049C102.058 52.7005 102.849 46.6547 99.2399 46.6547Z" fill="#E14D43"/>
<path opacity="0.3" d="M102.417 54.702C101.815 54.8533 101.185 54.934 100.537 54.934C96.5746 54.934 93.3136 51.9312 92.9048 48.077C92.4031 48.386 92.0083 48.7439 91.7642 49.1508C89.8892 52.2777 90.7628 56.308 93.6696 58.5085C97.8653 61.685 103.039 60.3593 102.61 57.0042C102.517 56.2749 102.461 55.4948 102.417 54.702Z" fill="#E14D43"/>
<path opacity="0.5" d="M101.643 56.7219C101.643 56.7219 99.5829 58.8824 96.7555 57.8657C93.9288 56.8491 95.5876 60.6849 99.1048 60.3186C102.623 59.9524 102.137 57.9166 102.137 57.9166L101.643 56.7219Z" fill="#E14D43"/>
<path d="M102.099 60.0968C101.65 60.1228 101.264 59.7795 101.238 59.3293L100.531 47.1595C100.505 46.71 100.848 46.3241 101.298 46.298C101.748 46.272 102.134 46.6153 102.16 47.0654L102.867 59.2352C102.893 59.6854 102.549 60.0707 102.099 60.0968Z" fill="#F9EDD9"/>
<path opacity="0.5" d="M98.1793 49.229C99.5151 49.229 100.598 48.7881 100.598 48.2442C100.598 47.7003 99.5151 47.2593 98.1793 47.2593C96.8436 47.2593 95.7607 47.7003 95.7607 48.2442C95.7607 48.7881 96.8436 49.229 98.1793 49.229Z" fill="#E14D43"/>
<g opacity="0.5">
<path opacity="0.5" d="M95.8528 82.8241C95.4071 83.5069 93.6981 83.8299 92.0577 83.9494C90.9641 84.0289 89.9017 84.0181 89.264 83.9634C80.5014 83.9869 53.927 83.9043 50.4962 82.0624C48.5761 81.0311 47.5684 78.54 47.4495 75.6802C47.3147 79.0131 48.3186 82.0592 50.4962 83.2291C53.927 85.0716 80.5014 85.1543 89.264 85.1301C89.9017 85.1854 90.9641 85.1962 92.0577 85.1161C93.6981 84.9966 95.4071 84.6736 95.8528 83.9907C96.6908 82.7064 102.159 74.0532 101.814 67.8879C101.502 73.9261 96.6386 81.6192 95.8528 82.8241Z" fill="#E14D43"/>
</g>
<path opacity="0.3" d="M54.6149 68.0938H75.5098C76.021 68.0938 76.5016 67.9667 76.9238 67.7422C75.5931 65.9658 73.9457 64.6033 71.9328 64.2841C65.8196 63.3133 56.4384 62.4995 51.75 66.0307C52.1506 67.2292 53.2816 68.0938 54.6149 68.0938Z" fill="#E14D43"/>
<path d="M74.8185 66.5317H55.8336C54.3179 66.5317 53.0889 65.3027 53.0889 63.787C53.0889 62.2712 54.3179 61.0422 55.8336 61.0422H74.8185C76.3343 61.0422 77.5633 62.2712 77.5633 63.787C77.5633 65.3027 76.3349 66.5317 74.8185 66.5317Z" fill="#3A3A3A"/>
<path opacity="0.5" d="M74.8185 64.6268H55.8336C54.6529 64.6268 53.6465 63.8811 53.2586 62.8345C53.1486 63.1315 53.0889 63.4519 53.0889 63.787C53.0889 65.3027 54.3179 66.5317 55.8336 66.5317H74.8185C76.3343 66.5317 77.5633 65.3027 77.5633 63.787C77.5633 63.4519 77.5029 63.1315 77.3935 62.8345C77.0063 63.8804 75.9999 64.6268 74.8185 64.6268Z" fill="#424443"/>
<path d="M78.4004 45.2604C78.4004 45.2604 88.6927 45.413 92.2761 46.4042C95.8594 47.3954 96.5455 51.2077 94.9445 52.3509C93.3436 53.4947 90.054 53.7992 89.4493 51.2071L75.9443 49.5006L78.4004 45.2604Z" fill="#FFCEA3"/>
<path opacity="0.6" d="M81.1163 45.3336C79.5051 45.277 78.4008 45.2604 78.4008 45.2604L75.9453 49.5006L78.2889 49.7969L81.1163 45.3336Z" fill="#FFCEA3"/>
<path d="M61.9051 58.5397C61.9051 58.5397 60.3976 65.5507 74.691 64.5493C83.3995 63.9396 81.8069 74.1047 81.8069 74.1047H88.8833C88.8833 74.1047 91.1588 59.0261 77.8617 58.7273C62.4703 58.382 61.9051 58.5397 61.9051 58.5397Z" fill="#272A33"/>
<path d="M75.721 33.8296L70.1787 32.1146L68.1412 38.6992L73.6836 40.4142L75.721 33.8296Z" fill="#FFCEA3"/>
<path opacity="0.5" d="M73.4646 84.9998C73.4646 84.9998 77.9712 84.4612 76.2355 80.0107C74.5004 75.5607 67.6465 72.1636 60.6209 71.4662C53.5953 70.7687 50.4557 77.1305 51.1163 81.0146C51.7776 84.898 58.1406 84.4708 58.1406 84.4708L73.4646 84.9998Z" fill="#C62B28"/>
<path d="M72.517 84.912C72.517 84.912 76.6052 84.3493 75.031 79.7022C73.4567 75.0552 67.2393 71.5081 60.8654 70.7795C54.4915 70.0508 51.6431 76.6943 52.2433 80.7494C52.8435 84.8045 58.6159 84.3582 58.6159 84.3582L72.517 84.912Z" fill="#E14D43"/>
<path opacity="0.15" d="M72.517 84.912C72.517 84.912 76.6052 84.3493 75.031 79.7022C73.4567 75.0552 67.2393 71.5081 60.8654 70.7795C54.4915 70.0508 51.6431 76.6943 52.2433 80.7494C52.8435 84.8045 58.6159 84.3582 58.6159 84.3582L72.517 84.912Z" fill="#E14D43"/>
<path d="M75.9697 38.1305C70.1007 36.9708 61.7526 31.0643 63.3625 25.9435L67.3051 13.4012C67.3566 13.2378 67.5308 13.1462 67.6948 13.1977L85.6529 16.8783C89.2649 18.0139 90.4087 18.6853 90.0863 23.0519C88.7874 24.4653 88.1433 29.1937 88.6857 31.3415C87.0758 36.4628 81.0904 39.7404 75.9697 38.1305Z" fill="#FFCEA3"/>
<path opacity="0.5" d="M73.6855 40.4131L75.0314 36.0636C73.3097 35.183 71.6992 34.4684 71.4633 34.738C70.9299 35.3471 71.8728 36.1037 71.8728 36.1037L70.2197 39.3405L73.6855 40.4131Z" fill="#FFCEA3"/>
<path d="M77.8762 18.4317C77.8762 18.4317 78.7574 21.0747 80.1467 20.6678C81.5359 20.2608 81.4532 18.9397 81.4532 18.9397C81.4532 18.9397 84.0257 22.6667 86.4156 22.3285C87.7572 22.1593 87.7031 21.1681 87.7031 21.1681C87.7031 21.1681 88.7535 25.0395 90.8541 24.8386C93.789 24.5576 92.684 21.3716 91.8028 20.4312C90.9215 19.4909 87.9422 19.0083 85.247 17.9573C82.5519 16.9064 77.0967 15.2126 77.8762 18.4317Z" fill="#4F3F3F"/>
<path d="M73.9668 29.1601C73.9668 29.1601 75.5525 36.8622 79.8461 39.2827C79.8461 39.2827 78.4193 39.3043 76.0631 38.5807C73.3183 37.7383 71.5139 32.9081 71.9336 29.1601C72.3532 25.4121 73.9668 29.1601 73.9668 29.1601Z" fill="#4F3F3F"/>
<path d="M88.5136 30.1558C88.5136 30.1558 84.8908 31.9392 81.8409 30.8208C78.7909 29.7024 77.1646 31.8883 74.9793 33.5147C71.656 35.9879 75.2845 39.3208 80.8751 39.3208C87.9153 39.3208 90.5824 31.8387 88.5136 30.1558Z" fill="#E3F9FC"/>
<path d="M72.4385 29.4386C72.4385 29.4386 72.3476 34.333 69.0631 35.7266C65.7785 37.1203 66.05 34.2052 66.05 34.2052C66.05 34.2052 63.3771 34.6134 61.9733 34.0831C60.5694 33.5535 61.1537 31.9901 64.6621 32.0657C68.171 32.1426 72.4385 29.4386 72.4385 29.4386Z" fill="#4F3F3F"/>
<path d="M80.0114 31.8387C79.9427 31.8387 79.8734 31.819 79.8117 31.7776C79.6299 31.6549 75.344 28.7296 73.6413 24.9708C73.5599 24.7909 73.6394 24.5791 73.8193 24.4978C73.9993 24.4164 74.211 24.4958 74.2924 24.6758C75.9105 28.2483 80.1697 31.1565 80.2123 31.1857C80.3757 31.2963 80.4189 31.5182 80.3083 31.6816C80.239 31.784 80.1258 31.8387 80.0114 31.8387Z" fill="#E3F9FC"/>
<path d="M76.7653 37.4992C76.7208 37.4903 76.6769 37.4725 76.6369 37.4458C76.5885 37.4134 75.439 36.6358 74.1382 34.9014C72.9461 33.3125 71.3947 30.5798 70.7729 26.5839C70.7424 26.3887 70.8759 26.2062 71.0711 26.1757C71.2663 26.1452 71.4488 26.2787 71.4793 26.4739C72.0756 30.3065 73.5532 32.9234 74.6881 34.4436C75.9191 36.0922 77.0234 36.8444 77.0342 36.852C77.1976 36.962 77.2415 37.1839 77.1322 37.3473C77.0489 37.4713 76.9026 37.5266 76.7653 37.4992Z" fill="#E3F9FC"/>
<path d="M80.4587 15.4224C80.2991 15.8115 80.1395 16.2013 79.9799 16.5904C78.8679 19.304 77.7553 22.0182 76.6433 24.7318C74.8096 29.2059 71.2975 32.8121 66.5156 32.5705C72.0433 33.7073 76.0869 29.8385 78.1024 24.9206C79.2144 22.207 80.3271 19.4928 81.4391 16.7792C81.551 16.5065 81.6622 16.2343 81.7741 15.9616L80.4587 15.4224Z" fill="#3A3535"/>
<path d="M84.6066 28.5546C85.4603 27.701 85.4602 26.317 84.6066 25.4633C83.753 24.6097 82.369 24.6097 81.5154 25.4633C80.6617 26.317 80.6617 27.701 81.5154 28.5546C82.369 29.4082 83.753 29.4082 84.6066 28.5546Z" fill="#4F3F3F"/>
<path d="M84.1534 22.8116C83.9245 23.148 83.1603 22.9089 82.3217 22.8498C81.4869 22.75 80.6915 22.8402 80.53 22.467C80.3532 22.1116 81.2071 21.2139 82.466 21.3321C83.7249 21.4529 84.3944 22.4956 84.1534 22.8116Z" fill="#4F3F3F"/>
<path opacity="0.3" d="M80.2716 39.3564L78.691 38.7085C73.8253 36.7147 71.497 31.154 73.4908 26.2882L77.633 16.179C77.6966 16.0232 77.8747 15.9489 78.0298 16.0131L96.0032 23.0653C96.1589 23.1289 96.2333 23.3069 96.1691 23.4621L92.6913 34.1562C90.6981 39.022 85.1374 41.3503 80.2716 39.3564Z" fill="#E9F1F4"/>
<path opacity="0.5" d="M96.0034 23.0647L95.456 22.8498C95.4763 22.9146 95.4763 22.9865 95.4483 23.0545L91.9705 33.7486C89.9767 38.6144 84.416 40.9427 79.5502 38.9488L77.9696 38.301C77.7261 38.2011 77.4896 38.0924 77.2588 37.9748C77.7077 38.2539 78.1851 38.5006 78.6906 38.7072L80.2712 39.3551C85.137 41.349 90.6977 39.0207 92.6915 34.1549L96.1693 23.4608C96.2336 23.3063 96.1592 23.1289 96.0034 23.0647Z" fill="#E9F1F4"/>
<path d="M90.8645 8.46995C89.0728 5.79959 86.4356 3.68302 83.2165 2.38663C80.4877 1.28797 77.5204 0.781875 74.583 0.858807C70.5431 0.964985 66.4677 2.18 63.2385 4.65707C62.5035 5.22102 61.8117 5.84029 61.1728 6.51105C56.169 11.7615 54.5159 20.2265 58.0084 26.7428C59.3779 29.2981 61.2637 31.2907 64.1267 32.1477C70.1318 33.9445 74.5169 29.9218 76.6436 24.7324C77.7556 22.0188 78.8683 19.3046 79.9803 16.591C80.1399 16.2019 80.2995 15.8121 80.4591 15.423C80.4591 15.423 93.2151 20.704 93.2164 20.7046C93.0955 20.655 93.4332 18.0533 93.444 17.8016C93.5896 14.3187 92.6435 11.1212 90.8645 8.46995Z" fill="#E14D43"/>
<path opacity="0.3" d="M85.8945 17.6731C89.3647 19.1101 93.2164 20.704 93.217 20.7046C93.0962 20.6544 93.4338 18.0534 93.4446 17.8016C93.5896 14.3193 92.6442 11.1219 90.8646 8.46997C90.0342 7.23207 89.022 6.1137 87.8541 5.14093C87.8547 5.14029 91.9639 14.6315 85.8945 17.6731Z" fill="#E14D43"/>
<g opacity="0.3">
<path opacity="0.3" d="M67.4299 26.5311C63.2953 26.5311 59.4996 25.0815 56.5215 22.6635C56.8229 24.0731 57.3137 25.447 58.008 26.7434C59.3775 29.2987 61.2633 31.2913 64.1263 32.1484C70.1314 33.9451 74.5165 29.9224 76.6432 24.733C76.8022 24.3452 76.9611 23.9567 77.1201 23.5689C74.355 25.4388 71.0202 26.5311 67.4299 26.5311Z" fill="#E14D43"/>
</g>
<path d="M95.248 23.8944L79.346 17.3788C78.5945 17.071 78.2346 16.2121 78.543 15.4599C78.8507 14.7084 79.7097 14.3485 80.4618 14.6569L96.3632 21.1726C97.1147 21.4803 97.4745 22.3392 97.1662 23.0914C96.8584 23.8429 95.9995 24.2021 95.248 23.8944Z" fill="#3A3535"/>
<path opacity="0.5" d="M82.8343 25.4858C83.0308 25.7128 82.8489 26.1915 82.4287 26.5552C82.0084 26.9189 81.508 27.0295 81.3116 26.8025C81.1151 26.5756 81.297 26.0968 81.7172 25.7331C82.1375 25.3695 82.6379 25.2588 82.8343 25.4858Z" fill="#4F3F3F"/>
<path opacity="0.5" d="M83.4125 25.5774C83.6063 25.5774 83.7634 25.4778 83.7634 25.3549C83.7634 25.232 83.6063 25.1323 83.4125 25.1323C83.2187 25.1323 83.0615 25.232 83.0615 25.3549C83.0615 25.4778 83.2187 25.5774 83.4125 25.5774Z" fill="#4F3F3F"/>
<path opacity="0.3" d="M88.5106 30.0693C88.4814 29.5498 88.489 28.9776 88.5303 28.3876C86.6859 28.5325 85.7125 28.8612 85.5688 29.5797C85.4689 30.0756 87.122 30.1189 88.5106 30.0693Z" fill="#FFCEA3"/>
<path d="M81.1327 29.1447C81.2323 28.7371 80.6018 28.233 79.7245 28.0186C78.8472 27.8043 78.0553 27.961 77.9557 28.3686C77.8561 28.7763 78.4866 29.2804 79.3639 29.4947C80.2412 29.7091 81.0331 29.5524 81.1327 29.1447Z" fill="#FF9580"/>
<path d="M61.9051 59.8634C61.9051 59.8634 60.905 40.5313 67.7983 37.194C74.691 33.8574 77.2971 40.4671 76.5024 48.9455C75.7076 57.4239 79.6686 59.1202 77.6392 59.8634C75.3942 60.6849 67.7977 60.5749 61.9051 59.8634Z" fill="#E14D43"/>
<path opacity="0.5" d="M76.5017 48.9455C76.8184 45.5663 76.5939 42.4846 75.7744 40.2103C73.3622 39.715 66.9107 38.8675 68.7647 44.4759C68.7647 44.4759 74.485 55.732 78.2133 59.3421C78.4072 58.3 75.8488 55.9132 76.5017 48.9455Z" fill="#E14D43"/>
<path d="M49.1511 64.6007H32.476C29.9353 64.6007 27.876 62.5414 27.876 60.0007V45.8313C27.876 43.2907 29.9353 41.2313 32.476 41.2313H49.1511C51.6917 41.2313 53.7511 43.2907 53.7511 45.8313V60.0007C53.7511 62.5407 51.6917 64.6007 49.1511 64.6007Z" fill="#E14D43"/>
<path d="M50.0055 74.1486C49.6965 75.7711 48.6074 76.9264 47.5736 76.7299C46.5398 76.5328 45.9517 75.0577 46.2613 73.4352C46.5709 71.8126 47.8552 69.574 48.889 69.7711C49.9229 69.9675 50.3145 72.526 50.0055 74.1486Z" fill="#FDC055"/>
<path opacity="0.3" d="M49.9358 71.3625C49.9243 71.69 49.8925 72.006 49.8378 72.2934C49.5288 73.9159 48.4397 75.0712 47.4059 74.8747C46.8687 74.7723 46.4529 74.3247 46.2195 73.6915C46.0154 75.2104 46.594 76.5437 47.5731 76.73C48.6069 76.927 49.6961 75.7712 50.0051 74.1486C50.1634 73.3176 50.1373 72.2412 49.9358 71.3625Z" fill="#FDC055"/>
<path d="M92.4944 53.6967C93.5751 53.5213 94.309 52.503 94.1336 51.4223C93.9582 50.3415 92.9399 49.6076 91.8592 49.783C90.7784 49.9584 90.0445 50.9767 90.2199 52.0574C90.3953 53.1382 91.4136 53.8721 92.4944 53.6967Z" fill="#3F4140"/>
<path opacity="0.3" d="M91.3887 52.3305L92.2998 53.7191C93.0926 53.6701 93.7589 53.1545 94.0285 52.4443L92.8396 51.0176L91.3887 52.3305Z" fill="#3F4140"/>
<path opacity="0.3" d="M92.1752 53.0535C92.9003 53.0535 93.4881 52.4656 93.4881 51.7405C93.4881 51.0154 92.9003 50.4276 92.1752 50.4276C91.4501 50.4276 90.8623 51.0154 90.8623 51.7405C90.8623 52.4656 91.4501 53.0535 92.1752 53.0535Z" fill="#3F4140"/>
<path d="M92.334 52.7101C92.8699 52.6231 93.2338 52.1182 93.1468 51.5823C93.0599 51.0465 92.555 50.6826 92.0191 50.7695C91.4832 50.8565 91.1193 51.3614 91.2063 51.8973C91.2933 52.4331 91.7982 52.797 92.334 52.7101Z" fill="#E7E4D5"/>
<path opacity="0.5" d="M65.6224 13.4097C68.4289 9.5748 69.6021 5.65957 68.2428 4.66474C66.8835 3.66992 63.5064 5.97223 60.6998 9.8071C57.8933 13.642 56.7201 17.5572 58.0795 18.552C59.4388 19.5468 62.8159 17.2445 65.6224 13.4097Z" fill="#E14D43"/>
<path opacity="0.5" d="M73.3076 6.30061C75.1532 6.30061 76.6493 5.59523 76.6493 4.72511C76.6493 3.85498 75.1532 3.1496 73.3076 3.1496C71.462 3.1496 69.9658 3.85498 69.9658 4.72511C69.9658 5.59523 71.462 6.30061 73.3076 6.30061Z" fill="#E14D43"/>
<path d="M73.7703 35.1029C73.2209 37.2112 76.4266 39.3208 80.8753 39.3208C86.4506 39.3208 89.2825 34.6286 89.1922 31.84C89.1496 31.9169 85.2795 38.8668 73.7703 35.1029Z" fill="#CCEFF2"/>
<path d="M74.836 49.821L68.7647 44.4759C67.2922 43.1795 67.1492 40.9345 68.4456 39.462C69.7419 37.9895 71.9869 37.8464 73.4595 39.1428L79.9624 44.1726C80.452 44.5515 80.5086 45.2694 80.0845 45.7201L76.2919 49.7517C75.9047 50.1644 75.26 50.1949 74.836 49.821Z" fill="#FDC055"/>
<path d="M92.2196 51.0189C92.3436 51.1429 92.2635 51.4245 92.0396 51.6477C91.8158 51.8708 91.5348 51.9516 91.4108 51.8276C91.2869 51.7036 91.367 51.422 91.5908 51.1988C91.8139 50.975 92.095 50.8949 92.2196 51.0189Z" fill="#F4F4F2"/>
<path d="M88.9723 75.155H81.9244C81.5035 75.155 81.1621 74.8136 81.1621 74.3927V73.2743C81.1621 72.8534 81.5035 72.512 81.9244 72.512H88.9723C89.3931 72.512 89.7346 72.8534 89.7346 73.2743V74.3927C89.7352 74.8143 89.3938 75.155 88.9723 75.155Z" fill="#272A33"/>
<g opacity="0.3">
<path opacity="0.3" d="M110.183 73.4683C109.768 73.7092 108.311 72.664 106.427 71.9462C104.562 71.1813 102.785 70.9486 102.646 70.4889C102.469 70.0445 104.531 69.4812 107.013 70.4654C109.497 71.4439 110.616 73.2654 110.183 73.4683Z" fill="#E14D43"/>
</g>
<path d="M60.6493 62.8345H56.7691C56.4283 62.8345 56.1523 62.5586 56.1523 62.2178C56.1523 61.877 56.4283 61.6011 56.7691 61.6011H60.6493C60.9901 61.6011 61.2661 61.877 61.2661 62.2178C61.2661 62.5586 60.9901 62.8345 60.6493 62.8345Z" fill="#424443"/>
<g opacity="0.5">
<path opacity="0.5" d="M66.1626 73.5808C65.839 74.0182 63.6162 73.1955 60.9427 73.2324C58.2685 73.1955 56.0458 74.0182 55.7228 73.5808C55.3553 73.1879 57.5431 71.3498 60.9427 71.3562C64.3423 71.3498 66.5301 73.1879 66.1626 73.5808Z" fill="#E14D43"/>
</g>
<path opacity="0.5" d="M69.8238 74.886C69.9488 74.5384 69.4285 74.0332 68.6619 73.7577C67.8952 73.4822 67.1724 73.5407 67.0475 73.8883C66.9226 74.2359 67.4428 74.7411 68.2095 75.0166C68.9761 75.2921 69.6989 75.2337 69.8238 74.886Z" fill="#E14D43"/>
<path d="M62.848 77.7713C62.848 78.0116 61.5351 78.2062 59.9157 78.2062C58.2963 78.2062 56.9834 78.0116 56.9834 77.7713C56.9834 77.531 58.2963 77.3364 59.9157 77.3364C61.5351 77.3364 62.848 77.531 62.848 77.7713Z" fill="#C62B28"/>
<path d="M59.9157 80.2808C61.5352 80.2808 62.848 80.0861 62.848 79.846C62.848 79.6058 61.5352 79.4111 59.9157 79.4111C58.2962 79.4111 56.9834 79.6058 56.9834 79.846C56.9834 80.0861 58.2962 80.2808 59.9157 80.2808Z" fill="#C62B28"/>
<path d="M62.848 81.9199C62.848 82.1603 61.5351 82.3548 59.9157 82.3548C58.2963 82.3548 56.9834 82.1603 56.9834 81.9199C56.9834 81.6796 58.2963 81.485 59.9157 81.485C61.5351 81.485 62.848 81.6796 62.848 81.9199Z" fill="#C62B28"/>
<g opacity="0.5">
<path opacity="0.5" d="M92.6759 79.2705C90.5453 79.3786 82.046 79.7588 81.6969 78.959C81.6334 78.814 81.5138 78.3722 81.3301 77.7281C81.4496 78.3092 81.503 78.7854 81.5215 79.1631C81.552 79.7932 82.0689 80.2897 82.6996 80.3031C84.1937 80.3349 87.6086 80.4143 89.6336 80.3908C92.405 80.3584 92.6759 79.2705 92.6759 79.2705Z" fill="#E14D43"/>
</g>
<path opacity="0.5" d="M96.4212 70.5188C96.0855 70.5868 95.7599 68.1365 95.1534 65.1552C94.5475 62.174 93.89 59.791 94.2257 59.7223C94.5614 59.6543 95.7631 61.9266 96.3697 64.9079C96.9756 67.8891 96.7569 70.4508 96.4212 70.5188Z" fill="#E14D43"/>
<path opacity="0.5" d="M96.5683 72.7206C96.525 73.2966 96.2796 73.748 96.0196 73.7283C95.7595 73.7086 95.5834 73.2261 95.6266 72.65C95.6699 72.074 95.9153 71.6226 96.1753 71.6423C96.4354 71.6614 96.6109 72.1446 96.5683 72.7206Z" fill="#E14D43"/>
<path opacity="0.5" d="M48.1157 73.0108C48.3377 72.2629 48.2124 71.5659 47.8357 71.4541C47.4591 71.3422 46.9737 71.8579 46.7517 72.6058C46.5296 73.3538 46.6549 74.0507 47.0316 74.1626C47.4083 74.2744 47.8936 73.7587 48.1157 73.0108Z" fill="#FDC055"/>
<path opacity="0.5" d="M48.5986 71.0427C48.4422 71.2614 48.2063 71.3612 48.0722 71.2652C47.938 71.1692 47.9564 70.9143 48.1129 70.6949C48.2693 70.4762 48.5051 70.3764 48.6393 70.4724C48.7734 70.569 48.755 70.824 48.5986 71.0427Z" fill="#FDC055"/>
<path opacity="0.3" d="M53.7511 50.0823L27.876 47.5283V46.2516H53.7511V50.0823Z" fill="#E14D43"/>
<path opacity="0.5" d="M47.8392 43.4052H33.0124C32.5635 43.4052 32.1992 43.0409 32.1992 42.592C32.1992 42.1431 32.5635 41.7788 33.0124 41.7788H47.8392C48.2881 41.7788 48.6524 42.1431 48.6524 42.592C48.6524 43.0409 48.2881 43.4052 47.8392 43.4052Z" fill="#E14D43"/>
<path opacity="0.2" d="M28.4463 62.2178C29.2296 63.6381 30.7409 64.6007 32.4773 64.6007H49.1517C50.8881 64.6007 52.3994 63.6381 53.1827 62.2178H28.4463Z" fill="#E14D43"/>
</g>
<defs>
<clipPath id="clip0">
<rect width="92.5729" height="89.4676" fill="white" transform="translate(20 0.851196)"/>
</clipPath>
</defs>
</svg>
