<svg width="54" height="54" viewBox="0 0 54 54" fill="none" xmlns="http://www.w3.org/2000/svg">
<path d="M44.333 27C46.8084 27 49.1823 26.0167 50.9327 24.2664C52.683 22.516 53.6663 20.1421 53.6663 17.6667C53.6663 15.3905 53.218 13.1365 52.3469 11.0335C51.4758 8.93055 50.1991 7.01974 48.5895 5.41019C46.98 3.80064 45.0692 2.52388 42.9662 1.6528C40.8632 0.781714 38.6093 0.333374 36.333 0.333374C33.8577 0.333374 31.4837 1.3167 29.7333 3.06704C27.983 4.81738 26.9997 7.19135 26.9997 9.66671C26.9997 7.19135 26.0163 4.81738 24.266 3.06704C22.5157 1.3167 20.1417 0.333374 17.6663 0.333374C13.0693 0.333374 8.66045 2.15956 5.40982 5.41019C2.15919 8.66082 0.333008 13.0696 0.333008 17.6667C0.333008 20.1421 1.31634 22.516 3.06668 24.2664C4.81702 26.0167 7.19099 27 9.66634 27C7.19099 27 4.81702 27.9834 3.06668 29.7337C1.31634 31.4841 0.333008 33.858 0.333008 36.3334C0.333008 38.6096 0.781347 40.8636 1.65243 42.9666C2.52351 45.0695 3.80027 46.9803 5.40982 48.5899C8.66045 51.8405 13.0693 53.6667 17.6663 53.6667C20.1417 53.6667 22.5157 52.6834 24.266 50.933C26.0163 49.1827 26.9997 46.8087 26.9997 44.3334C26.9997 46.8087 27.983 49.1827 29.7333 50.933C31.4837 52.6834 33.8577 53.6667 36.333 53.6667C38.6093 53.6667 40.8632 53.2184 42.9662 52.3473C45.0692 51.4762 46.98 50.1994 48.5895 48.5899C50.1991 46.9803 51.4758 45.0695 52.3469 42.9666C53.218 40.8636 53.6663 38.6096 53.6663 36.3334C53.6663 33.858 52.683 31.4841 50.9327 29.7337C49.1823 27.9834 46.8084 27 44.333 27ZM26.9997 37.6667C24.1707 37.6667 21.4576 36.5429 19.4572 34.5425C17.4568 32.5421 16.333 29.829 16.333 27C16.333 24.1711 17.4568 21.458 19.4572 19.4576C21.4576 17.4572 24.1707 16.3334 26.9997 16.3334C29.8287 16.3334 32.5418 17.4572 34.5421 19.4576C36.5425 21.458 37.6663 24.1711 37.6663 27C37.6663 29.829 36.5425 32.5421 34.5421 34.5425C32.5418 36.5429 29.8287 37.6667 26.9997 37.6667ZM33.6663 27C33.6663 28.7682 32.964 30.4638 31.7137 31.7141C30.4635 32.9643 28.7678 33.6667 26.9997 33.6667C25.2316 33.6667 23.5359 32.9643 22.2856 31.7141C21.0354 30.4638 20.333 28.7682 20.333 27C20.333 25.2319 21.0354 23.5362 22.2856 22.286C23.5359 21.0358 25.2316 20.3334 26.9997 20.3334C28.7678 20.3334 30.4635 21.0358 31.7137 22.286C32.964 23.5362 33.6663 25.2319 33.6663 27Z" fill="#212121"/>
</svg>
