<svg width="60" height="51" viewBox="0 0 60 51" fill="none" xmlns="http://www.w3.org/2000/svg">
<path d="M12.667 51C10.587 51 8.77366 49.8 7.89366 48.0667L0.933659 22.84L0.666992 21.6667C0.666992 20.9594 0.947944 20.2811 1.44804 19.781C1.94814 19.2809 2.62641 19 3.33366 19H15.547L27.8137 1.47999C28.0595 1.12233 28.3892 0.830287 28.7739 0.629381C29.1587 0.428475 29.5867 0.324811 30.0207 0.327441C30.4547 0.330072 30.8815 0.438917 31.2638 0.644471C31.646 0.850026 31.9721 1.14604 32.2137 1.50666L44.4537 19H56.667C57.3742 19 58.0525 19.2809 58.5526 19.781C59.0527 20.2811 59.3337 20.9594 59.3337 21.6667L59.227 22.44L52.107 48.0667C51.227 49.8 49.4137 51 47.3337 51H12.667ZM30.0003 7.63999L22.0003 19H38.0003L30.0003 7.63999ZM30.0003 29.6667C28.5858 29.6667 27.2293 30.2286 26.2291 31.2288C25.2289 32.229 24.667 33.5855 24.667 35C24.667 36.4145 25.2289 37.771 26.2291 38.7712C27.2293 39.7714 28.5858 40.3333 30.0003 40.3333C31.4148 40.3333 32.7714 39.7714 33.7716 38.7712C34.7718 37.771 35.3337 36.4145 35.3337 35C35.3337 33.5855 34.7718 32.229 33.7716 31.2288C32.7714 30.2286 31.4148 29.6667 30.0003 29.6667Z" fill="#212121"/>
</svg>
