<svg width="111" height="60" viewBox="0 25 111 60" fill="none" xmlns="http://www.w3.org/2000/svg">
<path d="M5.544 76C4.312 76 3.3 75.67 2.508 75.01C1.76 74.306 1.386 73.426 1.386 72.37C1.386 72.018 1.408 71.754 1.452 71.578L8.052 34.222C8.272 32.946 8.932 31.89 10.032 31.054C11.132 30.218 12.364 29.8 13.728 29.8H28.116C31.416 29.8 34.364 30.46 36.96 31.78C39.6 33.1 41.646 34.926 43.098 37.258C44.55 39.59 45.276 42.186 45.276 45.046C45.276 46.146 45.188 47.136 45.012 48.016L43.296 57.652C42.196 63.68 39.688 68.256 35.772 71.38C31.856 74.46 26.576 76 19.932 76H5.544ZM20.724 67.684C24.376 67.684 27.28 66.848 29.436 65.176C31.636 63.504 33.022 61.04 33.594 57.784L35.31 47.884C35.442 47.004 35.508 46.212 35.508 45.508C35.508 43.088 34.694 41.262 33.066 40.03C31.482 38.754 29.106 38.116 25.938 38.116H17.028L11.814 67.684H20.724ZM47.8545 76C46.6225 76 45.6105 75.67 44.8185 75.01C44.0705 74.306 43.6965 73.426 43.6965 72.37C43.6965 72.018 43.7185 71.754 43.7625 71.578L50.3625 34.222C50.5825 32.946 51.2425 31.89 52.3425 31.054C53.4425 30.218 54.6745 29.8 56.0385 29.8H70.4265C73.7265 29.8 76.6745 30.46 79.2705 31.78C81.9105 33.1 83.9565 34.926 85.4086 37.258C86.8606 39.59 87.5866 42.186 87.5866 45.046C87.5866 46.146 87.4985 47.136 87.3225 48.016L85.6065 57.652C84.5065 63.68 81.9985 68.256 78.0826 71.38C74.1665 74.46 68.8865 76 62.2425 76H47.8545ZM63.0345 67.684C66.6865 67.684 69.5905 66.848 71.7465 65.176C73.9465 63.504 75.3325 61.04 75.9045 57.784L77.6205 47.884C77.7525 47.004 77.8185 46.212 77.8185 45.508C77.8185 43.088 77.0045 41.262 75.3765 40.03C73.7925 38.754 71.4165 38.116 68.2485 38.116H59.3385L54.1245 67.684H63.0345Z" fill="#F6F6F6"/>
<path d="M96.879 73.976C96.741 74.712 96.4037 75.2717 95.867 75.655C95.3457 76.023 94.6327 76.207 93.728 76.207L93.981 74.827C94.257 74.5817 94.487 74.3287 94.671 74.068L94.533 73.976C93.9197 74.6967 93.245 75.2487 92.509 75.632C91.773 76.0153 91.0063 76.207 90.209 76.207C89.1817 76.207 88.346 75.8927 87.702 75.264C87.0733 74.6353 86.759 73.815 86.759 72.803C86.759 72.527 86.782 72.251 86.828 71.975L87.863 66.041C87.9703 65.4277 88.277 64.983 88.783 64.707C89.289 64.431 90.048 64.293 91.06 64.293L89.726 71.768C89.68 71.9673 89.657 72.159 89.657 72.343C89.657 72.8183 89.8103 73.171 90.117 73.401C90.4237 73.6157 90.8913 73.723 91.52 73.723C92.2713 73.723 92.9153 73.493 93.452 73.033C94.004 72.5577 94.349 71.9443 94.487 71.193L95.384 66.041C95.5067 65.4277 95.8133 64.983 96.304 64.707C96.81 64.431 97.569 64.293 98.581 64.293L96.879 73.976ZM99.9396 66.271C100.047 65.6577 100.369 65.1747 100.906 64.822C101.442 64.4693 102.117 64.293 102.93 64.293L102.7 65.535C102.485 65.7343 102.301 65.9413 102.148 66.156L102.24 66.248C102.868 65.5733 103.512 65.0827 104.172 64.776C104.846 64.454 105.59 64.293 106.403 64.293C107.507 64.293 108.388 64.5997 109.048 65.213C109.722 65.8263 110.06 66.6313 110.06 67.628C110.06 67.8887 110.037 68.157 109.991 68.433L109.347 72.067C109.132 73.3703 108.542 74.39 107.576 75.126C106.625 75.8467 105.414 76.207 103.942 76.207C103.359 76.207 102.784 76.0843 102.217 75.839C101.665 75.5937 101.228 75.2717 100.906 74.873L100.791 74.988C100.883 75.1567 101.021 75.3177 101.205 75.471L100.607 78.875C100.499 79.5037 100.17 79.979 99.6176 80.301C99.0809 80.6383 98.3296 80.807 97.3636 80.807L99.9396 66.271ZM103.827 73.723C104.578 73.723 105.191 73.562 105.667 73.24C106.142 72.918 106.433 72.4657 106.541 71.883L107.116 68.617C107.131 68.525 107.139 68.4023 107.139 68.249C107.139 67.7737 106.962 67.4133 106.61 67.168C106.257 66.9073 105.743 66.777 105.069 66.777C104.394 66.777 103.796 66.9457 103.275 67.283C102.769 67.605 102.477 68.0113 102.401 68.502L101.78 71.998C101.764 72.0593 101.757 72.1437 101.757 72.251C101.757 72.6803 101.948 73.033 102.332 73.309C102.715 73.585 103.213 73.723 103.827 73.723Z" fill="white" fill-opacity="0.75"/>
</svg>
