<svg xmlns="http://www.w3.org/2000/svg" width="54" height="54" viewBox="0 0 54 54">
    <path fill="#000" fill-rule="evenodd" d="M26.97 0C41.87 0 54 12.115 54 27c0 14.824-12.128 26.939-26.97 27C12.13 54 0 41.885 0 27S12.128 0 26.97 0zm0 50.925c5.248 0 10.136-1.688 14.058-4.581-.302.061-.545.061-.785.061-1.447 0-2.896-.24-4.223-.723-2.595 2.35-6.215 3.737-10.137 3.737-4.224 0-8.146-1.627-10.74-4.34-.844.483-1.63.846-2.534 1.086a23.885 23.885 0 0 0 14.36 4.76zm18.885-9.221A23.642 23.642 0 0 0 50.983 27c0-13.259-10.74-23.987-24.014-23.987-13.212 0-23.953 10.728-23.894 23.99a23.808 23.808 0 0 0 6.397 16.271c.363.059.785.12 1.207.12 1.388 0 2.654-.482 3.74-1.386.422-.363.542-.603 1.025-.603.545 0 .604.301 1.087.784 1.992 2.65 5.491 4.219 9.352 4.219 3.438 0 6.637-1.267 8.748-3.496.425-.424.545-.664.967-.664.301 0 .301.06.785.301 1.145.541 2.533.843 3.921.843 1.629 0 3.922-.784 5.55-1.688zM26.969 14.525A12.43 12.43 0 0 1 39.458 27c0 6.87-5.612 12.475-12.489 12.475-6.877 0-12.489-5.606-12.489-12.475 0-6.87 5.612-12.475 12.49-12.475zm0 21.875c-5.19 0-9.472-4.218-9.472-9.46 0-5.185 4.224-9.462 9.472-9.462 5.19 0 9.472 4.219 9.472 9.461A9.445 9.445 0 0 1 26.97 36.4zm3.682-27.12l-1.39-1.387a1.164 1.164 0 0 1 0-1.688 1.167 1.167 0 0 1 1.69 0l1.387 1.387a1.164 1.164 0 0 1 0 1.688c-.24.242-.542.362-.843.362-.302 0-.604-.122-.844-.362zm12.67 16.573c-.603-.179-1.025-.843-.905-1.384l.483-1.928a1.154 1.154 0 0 1 1.447-.904c.665.12 1.087.781.906 1.445l-.484 1.928c-.12.542-.603.904-1.145.904-.12 0-.182-.06-.302-.06zm-32.159-6.266c.483-.422 1.268-.363 1.69.242l1.207 1.568c.421.544.36 1.267-.182 1.688-.181.179-.483.24-.723.24a1.26 1.26 0 0 1-.967-.483l-1.206-1.567c-.422-.544-.361-1.267.181-1.688zm2.293 16.693c.663 0 1.207.482 1.268 1.144 0 .664-.48 1.205-1.145 1.266l-1.992.12h-.06c-.666 0-1.146-.48-1.208-1.144 0-.663.481-1.205 1.146-1.266l1.991-.12zm23.411-24.59c-.665 0-1.148-.48-1.207-1.144 0-.663.481-1.205 1.146-1.266l1.991-.12c.665 0 1.207.48 1.268 1.144 0 .664-.48 1.205-1.145 1.266l-1.992.12h-.061zm-8.327 30.616c.662 0 1.207.483 1.268 1.145 0 .663-.48 1.205-1.145 1.266l-1.992.12h-.061c-.665 0-1.146-.48-1.207-1.144 0-.664.481-1.205 1.146-1.266l1.991-.12zM46.156 31.52c.484.421.484 1.205-.002 1.688l-2.475 2.472c-.24.242-.542.362-.843.362-.302 0-.604-.122-.844-.362a1.164 1.164 0 0 1 0-1.688l2.475-2.472a1.167 1.167 0 0 1 1.69 0zm-27.514-18.2l-2.595-2.35c-.542-.42-.542-1.205-.12-1.687.422-.542 1.207-.542 1.69-.12l2.595 2.35c.542.42.542 1.204.12 1.687-.24.301-.603.421-.905.421-.243 0-.544-.12-.785-.3zM8.567 27.904c.544.301.846 1.024.542 1.624l-1.508 3.134c-.182.423-.665.664-1.087.664-.179 0-.36-.06-.542-.12a1.206 1.206 0 0 1-.542-1.627l1.508-3.134a1.209 1.209 0 0 1 1.629-.541zm32.701-12.416c0 1.365-2.05 1.365-2.05 0 0-1.366 2.05-1.366 2.05 0zM26.788 7.05c0 1.365-2.05 1.365-2.05 0 0-1.366 2.05-1.366 2.05 0zm-2.414 4.82c0 1.366-2.05 1.366-2.05 0 0-1.364 2.05-1.364 2.05 0zM12.307 13.68c0 1.365-2.05 1.365-2.05 0 0-1.366 2.05-1.366 2.05 0zm4.224 3.616c0 1.365-2.05 1.365-2.05 0 0-1.366 2.05-1.366 2.05 0zm-4.224 15.067c0 1.365-2.05 1.365-2.05 0 0-1.366 2.05-1.366 2.05 0zm7.24 7.231c0 1.366-2.05 1.366-2.05 0 0-1.365 2.05-1.365 2.05 0zM6.877 24.528c0 1.365-2.05 1.365-2.05 0 0-1.366 2.05-1.366 2.05 0zm33.184 15.066c0 1.366-2.05 1.366-2.05 0 0-1.365 2.05-1.365 2.05 0zm4.827.603c0 1.366-2.05 1.366-2.05 0 0-1.365 2.05-1.365 2.05 0z"/>
</svg>
