<svg xmlns="http://www.w3.org/2000/svg" xmlns:xlink="http://www.w3.org/1999/xlink" viewBox="0 0 1233.97 621.78"><defs><style>.cls-1{fill:#333;}.cls-2{fill:url(#New_Gradient_Swatch_1);}.cls-3{fill:url(#New_Gradient_Swatch_9);}.cls-4{fill:url(#New_Gradient_Swatch_13);}.cls-5{fill:url(#linear-gradient);}.cls-6{fill:url(#linear-gradient-2);}</style><linearGradient id="New_Gradient_Swatch_1" x1="697.47" y1="162.05" x2="697.47" y2="0.07" gradientUnits="userSpaceOnUse"><stop offset="0" stop-color="#0496ff"/><stop offset="0.99" stop-color="#006ba6"/></linearGradient><linearGradient id="New_Gradient_Swatch_9" x1="472.71" y1="80.99" x2="613.05" y2="80.99" gradientUnits="userSpaceOnUse"><stop offset="0" stop-color="#d81159"/><stop offset="1" stop-color="#ad0d48"/></linearGradient><linearGradient id="New_Gradient_Swatch_13" x1="537.99" y1="256.93" x2="537.99" y2="93.47" gradientUnits="userSpaceOnUse"><stop offset="0" stop-color="#fad961"/><stop offset="1" stop-color="#f76b1c"/></linearGradient><linearGradient id="linear-gradient" x1="627.33" y1="175.2" x2="777.45" y2="175.2" gradientUnits="userSpaceOnUse"><stop offset="0" stop-color="#fad961"/><stop offset="1" stop-color="#f76b1c"/></linearGradient><linearGradient id="linear-gradient-2" x1="620.19" y1="349.33" x2="620.19" y2="186.79" gradientUnits="userSpaceOnUse"><stop offset="0" stop-color="#b4ec51"/><stop offset="1" stop-color="#429321"/></linearGradient></defs><title>logo</title><g id="Слой_2" data-name="Слой 2"><g id="Layer_1" data-name="Layer 1"><path class="cls-1" d="M98.84,618.25,59.5,550.42H37.31v67.83H0V431.93H71.35c20.68,0,36.56,5.79,47.4,17.14s16.39,25.21,16.39,41.85c0,24.21-12.6,45.64-37.82,54.71l45.13,72.62ZM37.31,466.47v50.42H67.82c19.42,0,29-11.09,29-25.46,0-14.12-9.58-25-25.72-25Z"/><path class="cls-1" d="M169.44,498.23q20.81-21.17,52.94-21.17t53,21.17c13.86,13.87,20.67,31,20.67,51.19,0,20.42-6.81,37.56-20.67,51.43s-31.52,20.93-53,20.93-39.07-7.06-52.94-20.93-20.68-31-20.68-51.43C148.76,529.25,155.57,512.1,169.44,498.23Zm52.94,90.52a35.76,35.76,0,0,0,27-11.35,39.61,39.61,0,0,0,11.1-28,38.63,38.63,0,0,0-11.1-27.74,35.8,35.8,0,0,0-27-11.35q-16.24,0-27.22,11.35c-7.31,7.57-10.84,16.89-10.84,27.74a39.42,39.42,0,0,0,10.84,28Q206.13,588.76,222.38,588.75Z"/><path class="cls-1" d="M329,601.1c-13.61-13.36-20.42-30.76-20.42-51.68s6.81-38.33,20.67-51.69c13.87-13.61,31.52-20.42,53.2-20.42,28,0,52.7,13.86,64,38.32L418,531.26c-8.32-13.86-20.17-20.93-35-20.93q-17,0-28,11.35c-7.31,7.31-11.09,16.64-11.09,27.74,0,11.34,3.53,20.67,10.84,28.23,7.31,7.32,16.64,11.1,27.48,11.1,14.37,0,29-8.57,35.05-20.68L446,585c-11.85,22.18-36.31,36.3-64.55,36.3C360.05,621.27,342.66,614.46,329,601.1Z"/><path class="cls-1" d="M553.19,618.25,507.81,559.5l-9.33,8.32v50.43H462.93V426.63h35.55v101.1l49.92-46.89h44.88L532,537.06l64.8,81.19Z"/><path class="cls-1" d="M662.37,618.25V431.93h37.32V506.3h78.16V431.93h37.31V618.25H777.85V542.36H699.69v75.89Z"/><path class="cls-1" d="M977,562H873.91c5.05,19.42,18.41,29.25,40.09,29.25,14.88,0,32.53-5.8,44.38-13.87l14.12,25c-17.4,12.61-37.32,18.91-60,18.91-24.2,0-42.61-7.06-55.47-20.92s-19.16-31-19.16-50.93c0-20.93,6.56-38.08,19.92-51.69s30.51-20.42,51.69-20.42c19.91,0,36.55,6.3,49.41,18.65s19.42,29,19.42,50.43A119.2,119.2,0,0,1,977,562ZM873.91,535.55h69.85c-3.28-17.9-16.14-28.74-34.29-28.74C891.57,506.81,878.2,517.65,873.91,535.55Z"/><path class="cls-1" d="M997.72,618.25V480.84h34v18.4c8.33-14.87,20.93-22.18,37.83-22.18a48.37,48.37,0,0,1,16.64,3l-3,34a57.11,57.11,0,0,0-16.39-2.78c-20.17,0-33.53,13.12-33.53,41.61v65.3Z"/><path class="cls-1" d="M1107.4,498.23q20.8-21.17,52.94-21.17t53,21.17c13.86,13.87,20.67,31,20.67,51.19,0,20.42-6.81,37.56-20.67,51.43s-31.52,20.93-53,20.93-39.07-7.06-52.94-20.93-20.68-31-20.68-51.43C1086.72,529.25,1093.53,512.1,1107.4,498.23Zm52.94,90.52a35.76,35.76,0,0,0,27-11.35,39.61,39.61,0,0,0,11.1-28,38.63,38.63,0,0,0-11.1-27.74,35.8,35.8,0,0,0-27-11.35q-16.24,0-27.22,11.35c-7.31,7.57-10.84,16.89-10.84,27.74a39.42,39.42,0,0,0,10.84,28Q1144.09,588.76,1160.34,588.75Z"/><path class="cls-2" d="M758.45,72.74l-.64-.43-83-47.95L641.63,5.22A41,41,0,0,0,627.34.07v162l97.74-56.44L767.6,81.1A42.76,42.76,0,0,0,758.45,72.74Z"/><path class="cls-3" d="M484.36,71.24a4.32,4.32,0,0,0-.79.5,41.56,41.56,0,0,0-10.86,9.36L613.05,162V0a41.31,41.31,0,0,0-14.29,5.22Z"/><path class="cls-4" d="M465.65,93.47a41,41,0,0,0-2.72,14.92v61.89l150.12,86.65V178.48Zm96.83,95.12a7.12,7.12,0,0,1-9.75,2.63L516.1,170.06a7.14,7.14,0,1,1,7.15-12.37l36.63,21.14A7.15,7.15,0,0,1,562.48,188.59Z"/><path class="cls-5" d="M774.73,93.47l-147.4,85.1v78.36l20.58-11.85,129.54-74.73v-62A41.45,41.45,0,0,0,774.73,93.47Zm-50.45,76.59-36.62,21.16a7.25,7.25,0,0,1-3.57,1,7.16,7.16,0,0,1-3.59-13.35l36.63-21.14a7.14,7.14,0,1,1,7.15,12.37Z"/><path class="cls-6" d="M623.77,275.54a7.19,7.19,0,0,1-7.15,0L462.93,186.79v53.64a42.77,42.77,0,0,0,21.43,37.16l114.39,66c.07.07.16.07.22.14a43.14,43.14,0,0,0,42.44,0c.07-.07.15-.07.22-.14l114.39-66a43,43,0,0,0,21.43-37.16V186.79Zm46.78,14.92a58.16,58.16,0,0,1-100.72,0,7.15,7.15,0,1,1,12.39-7.15,43.83,43.83,0,0,0,75.94,0,7.15,7.15,0,1,1,12.39,7.15Z"/></g></g></svg>