<?xml version="1.0" encoding="utf-8"?>
<!-- Generator: Adobe Illustrator 19.0.0, SVG Export Plug-In . SVG Version: 6.00 Build 0)  -->
<svg version="1.1" id="Layer_1" xmlns="http://www.w3.org/2000/svg" xmlns:xlink="http://www.w3.org/1999/xlink" x="0px" y="0px"
	 viewBox="0 0 82 20" style="enable-background:new 0 0 82 20;" xml:space="preserve">
<style type="text/css">
	.st0{fill:none;stroke:#388853;stroke-width:0.85;stroke-miterlimit:10;}
	.st1{fill:none;stroke:#388853;stroke-width:0.85;stroke-linecap:round;stroke-miterlimit:10;}
	.st2{fill:#388853;}
</style>
<g id="XMLID_2_">
	<g id="XMLID_14_">
		<circle id="XMLID_17_" class="st0" cx="10" cy="10.5" r="9"/>
		<line id="XMLID_16_" class="st1" x1="10" y1="11.2" x2="10" y2="4.9"/>
		<line id="XMLID_15_" class="st1" x1="10" y1="11.2" x2="14.1" y2="11.2"/>
	</g>
	<g id="XMLID_3_">
		<path id="XMLID_11_" class="st2" d="M40.4,10.3c0,3.5-2.9,6.2-6.5,6.2s-6.5-2.8-6.5-6.2c0-3.5,2.9-6.2,6.5-6.2
			C37.6,4.1,40.4,6.8,40.4,10.3z M28.9,10.3c0,2.7,2.3,4.9,5,4.9s5-2.2,5-4.9s-2.3-4.9-5-4.9S28.9,7.6,28.9,10.3z"/>
		<path id="XMLID_8_" class="st2" d="M52.3,11.9c0,2.8-1.8,4.7-4.4,4.7c-1.7,0-2.9-0.8-3.6-2V20h-1.4V7.2h1.4v2
			c0.7-1.3,2-2.1,3.6-2.1C50.5,7.1,52.3,9.1,52.3,11.9z M50.9,11.8c0-2-1.4-3.5-3.3-3.5c-2,0-3.3,1.4-3.3,3.5c0,2,1.4,3.5,3.3,3.5
			S50.9,13.8,50.9,11.8z"/>
		<path id="XMLID_5_" class="st2" d="M62.7,12.4h-7.6c0.2,1.8,1.6,3,3.4,3c1.1,0,2.1-0.4,2.9-1.2l0.8,0.8c-0.9,1-2.2,1.6-3.7,1.6
			c-2.7,0-4.6-1.9-4.6-4.7s1.9-4.7,4.6-4.7C61.4,7.1,62.9,9.2,62.7,12.4z M61.5,11.2c-0.1-1.8-1.3-2.9-3.1-2.9s-3,1.1-3.2,2.9H61.5z
			"/>
		<path id="XMLID_4_" class="st2" d="M73.6,10.8v5.7h-1.4v-5.4c0-1.6-1-2.6-2.6-2.6c-1.8,0-3,1.2-3.1,3v5h-1.4V7.2h1.4v2
			c0.7-1.4,1.9-2.1,3.6-2.1C72.3,7.1,73.6,8.5,73.6,10.8z"/>
	</g>
</g>
</svg>
