<?xml version="1.0" encoding="utf-8"?>
<!-- Generator: Adobe Illustrator 19.0.0, SVG Export Plug-In . SVG Version: 6.00 Build 0)  -->
<svg version="1.1" id="Layer_1" xmlns="http://www.w3.org/2000/svg" xmlns:xlink="http://www.w3.org/1999/xlink" x="0px" y="0px"
	 viewBox="0 0 82 20" style="enable-background:new 0 0 82 20;" xml:space="preserve">
<style type="text/css">
	.st1{fill:#AE191B;}
</style>
<g>
	<path class="st1" d="M12,1.2c-5.2,0-9.4,4.2-9.4,9.4S6.8,20,12,20c5.2,0,9.4-4.2,9.4-9.4S17.2,1.2,12,1.2z M12,19.1
		c-4.7,0-8.5-3.8-8.5-8.5S7.3,2.1,12,2.1s8.5,3.8,8.5,8.5S16.7,19.1,12,19.1z"/>
	<path class="st1" d="M16.1,10.8h-3.6V4.9c0-0.2-0.2-0.4-0.4-0.4s-0.4,0.2-0.4,0.4v6.3c0,0.2,0.2,0.4,0.4,0.4h4.1
		c0.2,0,0.4-0.2,0.4-0.4S16.3,10.8,16.1,10.8z"/>
</g>
<g>
</g>
</svg>
