<svg xmlns="http://www.w3.org/2000/svg" width="18.677" height="14.462" viewBox="0 0 18.677 14.462">
  <path id="Path_5792" data-name="Path 5792" d="M23.186,18.719a2.169,2.169,0,0,1-2.154,2.169H6.666a2.169,2.169,0,0,1-2.155-2.169V11.865a.358.358,0,0,1,.548-.307l7.083,4.45a3.232,3.232,0,0,0,3.427,0l7.075-4.45a.353.353,0,0,1,.542.306ZM23.136,8.686,14.42,14.171a1.086,1.086,0,0,1-1.143,0L4.561,8.69A.108.108,0,0,1,4.51,8.6,2.169,2.169,0,0,1,6.665,6.426H21.033A2.168,2.168,0,0,1,23.187,8.6.107.107,0,0,1,23.136,8.686Z" transform="translate(-4.51 -6.426)"/>
</svg>
