<svg width="44" height="22" viewBox="0 0 44 22" fill="none" xmlns="http://www.w3.org/2000/svg">
<path d="M43.875 3.1875V0.0625H31.375V21.9375H34.5V12.5625H42.3125V9.4375H34.5V3.1875H43.875Z" fill="#606060"/>
<path d="M9.5 0.0625H0.125V21.9375H3.25V14.125H9.5C10.3288 14.125 11.1237 13.7958 11.7097 13.2097C12.2958 12.6237 12.625 11.8288 12.625 11V3.1875C12.625 2.3587 12.2958 1.56384 11.7097 0.977792C11.1237 0.391741 10.3288 0.0625 9.5 0.0625ZM9.5 11H3.25V3.1875H9.5V11Z" fill="#606060"/>
<path d="M22 21.9375H15.75V0.0625H22C23.6576 0.0625 25.2473 0.72098 26.4194 1.89308C27.5915 3.06518 28.25 4.6549 28.25 6.3125V15.6875C28.25 17.3451 27.5915 18.9348 26.4194 20.1069C25.2473 21.279 23.6576 21.9375 22 21.9375ZM18.875 18.8125H22C22.8288 18.8125 23.6237 18.4833 24.2097 17.8972C24.7958 17.3112 25.125 16.5163 25.125 15.6875V6.3125C25.125 5.4837 24.7958 4.68884 24.2097 4.10279C23.6237 3.51674 22.8288 3.1875 22 3.1875H18.875V18.8125Z" fill="#606060"/>
</svg>
