<svg width="77" height="77" viewBox="0 0 77 77" fill="none" xmlns="http://www.w3.org/2000/svg">
<g clip-path="url(#clip0_1142_475)">
<path d="M25.367 35.3987C23.7848 35.404 22.2306 35.8165 20.8539 36.5964C22.7921 31.5797 26.0066 27.156 30.1795 23.7631C30.4182 23.5665 30.6159 23.3248 30.7613 23.0518C30.9066 22.7787 30.9967 22.4798 31.0265 22.1719C31.0563 21.8641 31.0252 21.5534 30.9349 21.2575C30.8446 20.9617 30.6969 20.6866 30.5003 20.4478C30.3037 20.2091 30.062 20.0114 29.789 19.8661C29.516 19.7207 29.217 19.6306 28.9091 19.6008C28.6013 19.571 28.2906 19.6021 27.9948 19.6924C27.6989 19.7827 27.4238 19.9304 27.185 20.127C18.6295 27.0784 14.8223 36.7034 14.8223 42.6709C14.837 44.7809 15.4658 46.8409 16.6319 48.5995C17.7979 50.3581 19.4508 51.7391 21.3887 52.5739C22.6428 53.1815 24.0162 53.5029 25.4098 53.5151C26.6363 53.5747 27.8622 53.3846 29.0131 52.9563C30.164 52.5279 31.216 51.8703 32.1051 51.0233C32.9943 50.1764 33.7022 49.1576 34.1859 48.0288C34.6695 46.9001 34.9189 45.6849 34.9189 44.4569C34.9189 43.2288 34.6695 42.0136 34.1859 40.8849C33.7022 39.7561 32.9943 38.7374 32.1051 37.8904C31.216 37.0434 30.164 36.3858 29.0131 35.9575C27.8622 35.5291 26.6363 35.339 25.4098 35.3987H25.367Z" fill="#F4F4F4" fill-opacity="0.2"/>
<path d="M49.1946 35.3989C47.6122 35.4023 46.0575 35.8149 44.6816 36.5967C46.619 31.5852 49.8251 27.163 53.9857 23.7634C54.2462 23.5756 54.4654 23.3366 54.63 23.061C54.7946 22.7854 54.901 22.479 54.9428 22.1607C54.9845 21.8424 54.9607 21.5189 54.8727 21.2102C54.7848 20.9014 54.6346 20.614 54.4314 20.3654C54.2282 20.1169 53.9763 19.9126 53.6912 19.7651C53.406 19.6176 53.0938 19.53 52.7735 19.5076C52.4533 19.4853 52.1318 19.5288 51.829 19.6353C51.5262 19.7419 51.2484 19.9093 51.0127 20.1272C42.4571 27.0786 38.6499 36.7036 38.6499 42.6711C38.66 44.7572 39.2705 46.7963 40.4083 48.5448C41.5462 50.2933 43.1633 51.6773 45.0666 52.5314C46.3525 53.1567 47.7647 53.4787 49.1946 53.4725C50.4212 53.5321 51.6471 53.342 52.798 52.9137C53.9489 52.4854 55.0008 51.8278 55.89 50.9808C56.7792 50.1338 57.487 49.1151 57.9707 47.9863C58.4544 46.8576 58.7038 45.6423 58.7038 44.4143C58.7038 43.1863 58.4544 41.9711 57.9707 40.8423C57.487 39.7136 56.7792 38.6948 55.89 37.8478C55.0008 37.0008 53.9489 36.3432 52.798 35.9149C51.6471 35.4866 50.4212 35.2965 49.1946 35.3561V35.3989Z" fill="#F4F4F4" fill-opacity="0.2"/>
</g>
<defs>
<clipPath id="clip0_1142_475">
<rect width="77" height="77" fill="white"/>
</clipPath>
</defs>
</svg>
