<svg xmlns="http://www.w3.org/2000/svg" width="44" height="37" fill="#a7a39e" viewBox="0 0 460.8 266.24"><g id="Слой_2" data-name="Слой 2"><g id="Layer_1" data-name="Layer 1"><path d="M419.84,0H102.4a41.08,41.08,0,0,0-41,41V56.32a10.24,10.24,0,1,0,20.48,0V41a25.68,25.68,0,0,1,1-6.14l114.69,98.3L82.94,231.42a25.68,25.68,0,0,1-1-6.14V209.92a10.24,10.24,0,1,0-20.48,0v15.36a41.08,41.08,0,0,0,41,41H419.84a41.08,41.08,0,0,0,41-41V41A41.08,41.08,0,0,0,419.84,0ZM98.3,21a10,10,0,0,1,4.1-.51H419.84a10,10,0,0,1,4.1.51L267.78,154.62a10.76,10.76,0,0,1-13.32,0ZM419.84,245.76H102.4a10,10,0,0,1-4.1-.51l115.2-98.82,27.65,24.07a29.8,29.8,0,0,0,39.94,0l27.65-24.07,115.2,98.82A10,10,0,0,1,419.84,245.76Zm20.48-20.48a25.68,25.68,0,0,1-1,6.14l-114.69-98.3L439.3,34.82a25.68,25.68,0,0,1,1,6.14ZM30.72,107.52A10.27,10.27,0,0,1,41,97.28H102.4a10.24,10.24,0,1,1,0,20.48H41A10.27,10.27,0,0,1,30.72,107.52ZM102.4,169H10.24a10.24,10.24,0,0,1,0-20.48H102.4a10.24,10.24,0,0,1,0,20.48Z"/></g></g></svg>