<svg xmlns="http://www.w3.org/2000/svg" viewBox="0 0 500.58 512" fill="#a7a39d" width="76" height="81"><g id="Слой_2" data-name="Слой 2"><g id="Layer_1" data-name="Layer 1"><path d="M284.94,167H145.85a27.34,27.34,0,0,0-27.29,27.32v112a27.33,27.33,0,0,0,27.29,27.32H284.94a27.33,27.33,0,0,0,27.29-27.32V306l56.23,21.44A10,10,0,0,0,382,318.12V185.43a10,10,0,0,0-13.56-9.35l-56.23,21.45V194.3A27.34,27.34,0,0,0,284.94,167Zm7.29,139.34a7.4,7.4,0,0,1-7.29,7.32H145.85a7.31,7.31,0,0,1-7.29-7.32v-112a7.31,7.31,0,0,1,7.29-7.32H284.94a7.4,7.4,0,0,1,7.29,7.32v112ZM362,199.94V303.6l-49.79-19V218.93Z"/><path d="M496.28,204.49A250.22,250.22,0,0,0,44,108.75,250.51,250.51,0,0,0,37.44,382c-3.73,36.6-11.57,70-36.06,112.11A10,10,0,0,0,8.25,509,209.66,209.66,0,0,0,45.11,512c40.21,0,85.28-9.54,120.26-26.28A250.24,250.24,0,0,0,496.28,204.49ZM292.44,476.66a229.59,229.59,0,0,1-124-11.16,10,10,0,0,0-8.09.42c-38,19.19-92.12,29.07-134.44,25.22,22.7-43.29,28.79-78.7,31.82-110.66a10,10,0,0,0-1.53-6.32A228.75,228.75,0,0,1,24,292.47C.72,167.66,83.34,47.2,208.15,24A230.23,230.23,0,0,1,476.62,208.15C499.86,333,417.24,453.42,292.44,476.66Z"/><path d="M225.87,220h-50a10,10,0,0,0,0,20h50a10,10,0,0,0,0-20Z"/><path d="M272.85,49A203.47,203.47,0,0,0,144.33,77.58a10,10,0,0,0,10.47,17,182,182,0,0,1,224.61,26.56c71.2,71.2,71.2,187.06,0,258.26s-187,71.19-258.23,0A182,182,0,0,1,94.59,154.83a10,10,0,0,0-17-10.47A203.62,203.62,0,0,0,49,272.88a202.69,202.69,0,0,0,344.6,120.71A202.6,202.6,0,0,0,272.85,49Z"/><path d="M114.11,124.11a10,10,0,0,0,7.07-2.93l0,0a10,10,0,1,0-7.1,3Z"/></g></g></svg>