<svg xmlns="http://www.w3.org/2000/svg" viewBox="0 0 447.97 480" fill="#a7a39d" width="72" height="81"><g id="Слой_2" data-name="Слой 2"><g id="Capa_1" data-name="Capa 1"><path d="M216,408a24,24,0,1,0,24,24A24,24,0,0,0,216,408Zm0,32a8,8,0,1,1,8-8A8,8,0,0,1,216,440Z"/><path d="M160,40h16a8,8,0,0,0,0-16H160a8,8,0,0,0,0,16Z"/><path d="M208,40h64a8,8,0,0,0,0-16H208a8,8,0,0,0,0,16Z"/><path d="M280,216H240V176a8,8,0,0,0-8-8H200a8,8,0,0,0-8,8v40H152a8,8,0,0,0-8,8v32a8,8,0,0,0,8,8h40v40a8,8,0,0,0,8,8h32a8,8,0,0,0,8-8V264h40a8,8,0,0,0,8-8V224A8,8,0,0,0,280,216Zm-8,32H232a8,8,0,0,0-8,8v40H208V256a8,8,0,0,0-8-8H160V232h40a8,8,0,0,0,8-8V184h16v40a8,8,0,0,0,8,8h40Z"/><path d="M376,296.41V40A40.05,40.05,0,0,0,336,0H112a39.85,39.85,0,0,0-36.7,24.24A79.94,79.94,0,0,0,72,183.59V440a40.05,40.05,0,0,0,40,40H336a39.85,39.85,0,0,0,36.7-24.24A79.94,79.94,0,0,0,376,296.41ZM112,16H336a24,24,0,0,1,24,24v8h-223c-.92-.94-1.84-1.89-2.81-2.78-.58-.53-1.19-1-1.79-1.54q-2-1.76-4.14-3.38l-2.12-1.55c-1.44-1-2.9-2-4.39-2.88-.69-.41-1.37-.85-2.08-1.25-1.82-1-3.69-2-5.6-2.9-.38-.18-.75-.39-1.14-.57-2.37-1.06-4.79-2-7.25-2.86-.34-.12-.69-.2-1-.31q-3.14-1-6.34-1.79c-.69-.17-1.38-.29-2.07-.44-1-.21-2-.48-3-.65A24,24,0,0,1,112,16ZM288.39,384H88V183.6H88c.61-.06,1.2-.19,1.8-.26,2-.25,4-.52,5.91-.91.94-.19,1.85-.46,2.77-.69,1.6-.37,3.15-.73,4.69-1.2,1-.3,2-.68,2.94-1,1.42-.5,2.84-1,4.22-1.55,1-.41,2-.88,2.94-1.34,1.31-.6,2.61-1.2,3.88-1.87,1-.51,1.92-1.07,2.86-1.6,1.22-.71,2.4-1.42,3.61-2.19.92-.61,1.81-1.25,2.71-1.9,1.14-.8,2.26-1.6,3.34-2.49.87-.7,1.71-1.41,2.55-2.14q1.61-1.35,3.06-2.79c.8-.8,1.6-1.55,2.35-2.4,1-1,1.89-2,2.8-3.07.72-.84,1.44-1.68,2.12-2.56.87-1.08,1.69-2.2,2.5-3.32.64-.91,1.28-1.81,1.88-2.74.8-1.17,1.48-2.4,2.18-3.58.56-1,1.12-1.91,1.6-2.89.66-1.26,1.26-2.55,1.85-3.83.46-1,.93-2,1.35-3,.56-1.36,1-2.75,1.52-4.13.35-1,.72-2,1-3,.44-1.47.8-3,1.16-4.5.23-1,.51-2,.71-3,.33-1.69.56-3.42.8-5.15.11-.86.28-1.7.37-2.56.25-2.61.4-5.25.4-7.93a79.4,79.4,0,0,0-.62-9.37c-.1-.85-.22-1.68-.35-2.52-.39-2.6-.9-5.16-1.54-7.7-.13-.52-.22-1.05-.37-1.6a77.45,77.45,0,0,0-2.95-8.66c-.29-.74-.63-1.46-1-2.19q-1.48-3.39-3.29-6.65c-.25-.44-.41-.91-.67-1.34H360V296.4h-.07c-.61.07-1.2.2-1.8.27-2,.25-4,.52-5.91.91-.94.19-1.85.46-2.77.68-1.6.38-3.15.74-4.69,1.2-1,.32-2,.69-2.94,1-1.42.49-2.84,1-4.22,1.54-1,.42-2,.89-2.94,1.34-1.31.61-2.61,1.21-3.88,1.88-1,.51-1.91,1.07-2.85,1.6-1.23.71-2.4,1.42-3.62,2.19-.92.61-1.81,1.25-2.71,1.9-1.14.8-2.26,1.6-3.34,2.49-.87.7-1.71,1.41-2.55,2.14-1.06.9-2.09,1.83-3.06,2.79-.8.8-1.6,1.55-2.35,2.4-1,1-1.89,2-2.8,3.06-.72.84-1.44,1.69-2.12,2.56-.87,1.08-1.69,2.2-2.5,3.33-.64.91-1.28,1.81-1.88,2.74-.8,1.17-1.48,2.4-2.18,3.58-.56,1-1.12,1.91-1.6,2.89-.66,1.26-1.26,2.55-1.86,3.85-.46,1-.92,2-1.34,3-.56,1.35-1,2.75-1.52,4.14-.35,1-.72,2-1,3-.44,1.47-.8,3-1.16,4.5-.23,1-.51,1.95-.71,3-.33,1.68-.56,3.42-.8,5.15-.11.85-.28,1.69-.37,2.56-.25,2.61-.4,5.25-.4,7.93S288.13,381.34,288.39,384ZM79.06,168A64,64,0,0,1,80,40h.91a64,64,0,0,1-1.82,128ZM336,464H112a24,24,0,0,1-24-24V400H291.62c.47,1.53,1,3,1.6,4.49.17.45.32.93.5,1.38a80.55,80.55,0,0,0,4.51,9.36c.31.56.62,1.11.95,1.67a78.66,78.66,0,0,0,5.68,8.35c.37.48.8.95,1.17,1.42a76.87,76.87,0,0,0,6.92,7.51c.3.28.61.54.92.8a78.59,78.59,0,0,0,7.66,6.2c.34.24.66.51,1,.75A80,80,0,0,0,331.2,447c.63.32,1.23.66,1.87,1a80.25,80.25,0,0,0,9.12,3.71c.71.24,1.42.46,2.14.68a79.29,79.29,0,0,0,9.84,2.4,3.39,3.39,0,0,1,.61.15A24,24,0,0,1,336,464Zm32-24H367a63.78,63.78,0,0,1-61.47-49.7A67.47,67.47,0,0,1,304,376a64,64,0,1,1,64,64Z"/><path d="M119.57,73.8l0,0a24.64,24.64,0,0,0-33.95,0L80,79.38l-5.6-5.6a24.63,24.63,0,0,0-34,0,24,24,0,0,0,0,34l33.92,33.92a8,8,0,0,0,11.31,0h0l33.92-33.92A24,24,0,0,0,119.57,73.8ZM108.22,96.42h0L80,124.69,51.71,96.42a8,8,0,0,1,0-11.31h0a7.92,7.92,0,0,1,5.6-2.4A8.14,8.14,0,0,1,63,85.1L74.29,96.38a8,8,0,0,0,11.31,0L96.88,85.1a8.17,8.17,0,0,1,11.32,0A8,8,0,0,1,108.22,96.42Z"/><path d="M368,342.06,334,376A24,24,0,1,0,368,409.94L401.91,376a24,24,0,0,0,0-33.94A24.59,24.59,0,0,0,368,342.06Zm-11.31,56.56a8.17,8.17,0,0,1-11.31,0A7.86,7.86,0,0,1,343,393a8,8,0,0,1,2.34-5.66L356.66,376,368,387.31Zm33.93-33.93L379.28,376,368,364.69l11.31-11.31a8,8,0,1,1,11.31,11.31Z"/><path d="M184,352H120V328a8,8,0,0,0-16,0v32a8,8,0,0,0,8,8h72a8,8,0,1,0,0-16Z"/><path d="M112,312a8,8,0,0,0,8-8v-8a8,8,0,0,0-16,0v8A8,8,0,0,0,112,312Z"/><path d="M328,136a8,8,0,0,0,16,0V88a8,8,0,0,0-8-8H272a8,8,0,0,0,0,16h56Z"/><path d="M336,152a8,8,0,0,0-8,8v8a8,8,0,0,0,16,0v-8A8,8,0,0,0,336,152Z"/></g></g></svg>