<svg xmlns="http://www.w3.org/2000/svg" viewBox="0 0 218.45 191.15" fill="#a7a39d" width="92" height="81"><g id="Слой_2" data-name="Слой 2"><g id="Capa_1" data-name="Capa 1"><path d="M186,0H32.43a32.43,32.43,0,1,0,0,64.85h3a3.41,3.41,0,1,0,0-6.82h-3a25.6,25.6,0,0,1,0-51.2H186A25.6,25.6,0,0,1,186,58H56.43a3.41,3.41,0,0,0,0,6.82H186A32.43,32.43,0,0,0,186,0Z"/><polygon points="83.32 20.9 83.32 16.55 65.55 16.55 65.55 48.04 70.65 48.04 70.65 48.04 70.65 35.12 82.52 35.12 82.52 30.74 70.65 30.74 70.65 20.9 83.32 20.9"/><path d="M103.76,34.11q6.12-2.51,6.12-8.38,0-4.62-2.93-6.9t-9-2.28H89V48h5.15V35.46h5.08L106.8,48h5.86Zm-6-2.91H94.18V20.9h3.4a9.63,9.63,0,0,1,5.26,1.16,4.29,4.29,0,0,1,1.74,3.84,4.86,4.86,0,0,1-1.61,4Q101.35,31.2,97.75,31.2Z"/><polygon points="135.04 20.9 135.04 16.55 117.23 16.55 117.23 48.04 135.04 48.04 135.04 43.67 122.38 43.67 122.38 33.78 134.25 33.78 134.25 29.47 122.38 29.47 122.38 20.9 135.04 20.9"/><polygon points="159.67 20.9 159.67 16.55 141.85 16.55 141.85 48.04 159.67 48.04 159.67 43.67 147 43.67 147 33.78 158.87 33.78 158.87 29.47 147 29.47 147 20.9 159.67 20.9"/><path d="M82,78.51l-24-3V46.08a11.95,11.95,0,0,0-23.9,0v80.68a16.48,16.48,0,0,0,10.24,15.31v45.66a3.42,3.42,0,0,0,3.42,3.42H92.16a3.42,3.42,0,0,0,3.41-3.42V142.07a16.47,16.47,0,0,0,10.24-15.32V102.52A24,24,0,0,0,82,78.51Zm17,48.25a9.71,9.71,0,0,1-7.59,9.5,3.42,3.42,0,0,0-2.65,3.33v44.73H51.2V139.59a3.42,3.42,0,0,0-2.65-3.33,9.7,9.7,0,0,1-7.59-9.5V46.08a5.12,5.12,0,0,1,10.24,0V78.51a3.4,3.4,0,0,0,3,3.38l27.19,3.42a3,3,0,0,0,.42,0A17.21,17.21,0,0,1,99,102.52v24.24Z"/><path d="M54.61,75.09a3.42,3.42,0,0,0-3.41,3.42V95.57a3.42,3.42,0,1,0,6.83,0V78.51A3.42,3.42,0,0,0,54.61,75.09Z"/><path d="M68.27,78.51a3.42,3.42,0,0,0-3.42,3.41V92.16a3.42,3.42,0,0,0,6.83,0V81.92A3.41,3.41,0,0,0,68.27,78.51Z"/><path d="M81.92,78.51a3.41,3.41,0,0,0-3.41,3.41V92.16a3.41,3.41,0,0,0,6.82,0V81.92A3.41,3.41,0,0,0,81.92,78.51Z"/><path d="M143.77,84.33l-9.65-9.65a3.42,3.42,0,1,0-4.83,4.83L139,89.16a3.41,3.41,0,1,0,4.82-4.83Z"/><path d="M143.77,74.68a3.41,3.41,0,0,0-4.82,0l-9.66,9.66a3.41,3.41,0,0,0,4.83,4.82l9.65-9.65A3.4,3.4,0,0,0,143.77,74.68Z"/><path d="M177.91,118.47l-9.66-9.66a3.41,3.41,0,1,0-4.82,4.83l9.65,9.65a3.41,3.41,0,0,0,4.83-4.82Z"/><path d="M177.91,108.81a3.42,3.42,0,0,0-4.83,0l-9.65,9.66a3.41,3.41,0,1,0,4.82,4.83l9.66-9.66A3.42,3.42,0,0,0,177.91,108.81Z"/></g></g></svg>