<svg xmlns="http://www.w3.org/2000/svg" fill="#ffffff" viewBox="0 0 512 469.32"><g id="Слой_2" data-name="Слой 2"><g id="Layer_1" data-name="Layer 1"><path d="M234.66,469.32C105.28,469.32,0,364,0,234.66S105.28,0,234.66,0A233.89,233.89,0,0,1,361.25,37.1,16,16,0,1,1,344,64,201.8,201.8,0,0,0,234.66,32C122.92,32,32,122.92,32,234.66s90.92,202.66,202.66,202.66S437.32,346.4,437.32,234.66q0-10-.94-19.8a16,16,0,1,1,31.85-3.09q1.08,11.29,1.09,22.89C469.32,364,364,469.32,234.66,469.32Z"/><path d="M261.32,288A15.88,15.88,0,0,1,250,283.3l-96-96a16,16,0,0,1,22.63-22.63l84.7,84.69L484.68,26a16,16,0,0,1,22.63,22.63L272.65,283.32A16,16,0,0,1,261.32,288Z"/></g></g></svg>