<svg xmlns="http://www.w3.org/2000/svg" viewBox="0 0 512 512" fill="#a7a39d" width="80" height="81"><g id="Слой_2" data-name="Слой 2"><g id="Layer_1" data-name="Layer 1"><g id="Page-1"><g id="_006---QA-Testing" data-name="006---QA-Testing"><path id="Shape" d="M492.61,210.36l-34.31-8.54a9,9,0,0,1-6.48-5.85,202.68,202.68,0,0,0-15-36.07,8.53,8.53,0,0,1,.4-8.32L455.59,121a25.59,25.59,0,0,0-3.85-31.26L422.31,60.26A25.63,25.63,0,0,0,391,56.41L360.47,74.75a8.56,8.56,0,0,1-8.32.42,203.91,203.91,0,0,0-36.08-15,8.92,8.92,0,0,1-5.85-6.48l-8.58-34.3A25.6,25.6,0,0,0,276.8,0H235.2a25.6,25.6,0,0,0-24.84,19.39l-8.54,34.3A8.88,8.88,0,0,1,196,60.17a203.47,203.47,0,0,0-36.07,15,8.54,8.54,0,0,1-8.32-.41L121,56.41a25.61,25.61,0,0,0-31.28,3.86L60.27,89.69A25.61,25.61,0,0,0,56.41,121l18.35,30.56a8.51,8.51,0,0,1,.4,8.32,203.09,203.09,0,0,0-15,36.08,9,9,0,0,1-6.48,5.85l-34.32,8.53A25.6,25.6,0,0,0,0,235.2v41.6a25.6,25.6,0,0,0,19.39,24.84l34.31,8.58a9,9,0,0,1,6.48,5.85,203.09,203.09,0,0,0,15,36.08,8.54,8.54,0,0,1-.4,8.32L56.41,391a25.63,25.63,0,0,0,3.86,31.27l29.42,29.43A25.63,25.63,0,0,0,121,455.59l30.56-18.34a8.44,8.44,0,0,1,8.32-.41,205.38,205.38,0,0,0,36.08,15,8.92,8.92,0,0,1,5.85,6.48l8.53,34.3A25.61,25.61,0,0,0,235.2,512h41.6a25.6,25.6,0,0,0,24.84-19.39l8.58-34.3a8.92,8.92,0,0,1,5.85-6.48,205.38,205.38,0,0,0,36.08-15,8.46,8.46,0,0,1,8.32.41L391,455.59a25.63,25.63,0,0,0,31.28-3.85l29.43-29.43A25.63,25.63,0,0,0,455.59,391l-18.35-30.56a8.51,8.51,0,0,1-.4-8.32,203.09,203.09,0,0,0,15-36.08,9,9,0,0,1,6.48-5.85l34.32-8.58A25.6,25.6,0,0,0,512,276.8V235.2a25.6,25.6,0,0,0-19.39-24.84Zm2.32,66.44a8.53,8.53,0,0,1-6.46,8.29l-34.3,8.58a26.07,26.07,0,0,0-18.66,17.4,187.18,187.18,0,0,1-13.73,33.05,25.59,25.59,0,0,0,.85,25.13L441,399.81a8.55,8.55,0,0,1-1.29,10.43l-29.42,29.42A8.53,8.53,0,0,1,399.85,441l-30.58-18.34a25.69,25.69,0,0,0-25.12-.85,188.33,188.33,0,0,1-33,13.75,26.06,26.06,0,0,0-17.41,18.65l-8.57,34.3a8.53,8.53,0,0,1-8.29,6.46H235.2a8.53,8.53,0,0,1-8.29-6.46l-8.58-34.3a26.05,26.05,0,0,0-17.4-18.65,188,188,0,0,1-33.05-13.75,24.77,24.77,0,0,0-11.71-2.88,26.09,26.09,0,0,0-13.42,3.72l-30.57,18.34a8.53,8.53,0,0,1-10.42-1.29L72.34,410.24a8.53,8.53,0,0,1-1.29-10.42L89.4,369.25a25.61,25.61,0,0,0,.85-25.13,186.43,186.43,0,0,1-13.73-33.05,26.07,26.07,0,0,0-18.66-17.4l-34.33-8.58a8.53,8.53,0,0,1-6.46-8.29V235.2a8.53,8.53,0,0,1,6.46-8.29l34.3-8.58a26.07,26.07,0,0,0,18.66-17.4,187.18,187.18,0,0,1,13.73-33.05,25.59,25.59,0,0,0-.85-25.13L71,112.19a8.55,8.55,0,0,1,1.29-10.43l29.42-29.42a8.53,8.53,0,0,1,10.42-1.29l30.58,18.34a25.61,25.61,0,0,0,25.13.85,187.88,187.88,0,0,1,33-13.74,26.06,26.06,0,0,0,17.41-18.65l8.57-34.3a8.53,8.53,0,0,1,8.32-6.48h41.6a8.53,8.53,0,0,1,8.29,6.46l8.58,34.3a26,26,0,0,0,17.4,18.65,188,188,0,0,1,33.05,13.75,25.66,25.66,0,0,0,25.13-.85L399.82,71a8.53,8.53,0,0,1,10.42,1.29l29.42,29.42A8.53,8.53,0,0,1,441,112.17L422.6,142.75a25.61,25.61,0,0,0-.85,25.13,186,186,0,0,1,13.73,33,26.08,26.08,0,0,0,18.66,17.41l34.3,8.57a8.55,8.55,0,0,1,6.47,8.29Z"/><path id="Shape-2" data-name="Shape" d="M256,85.33A170.67,170.67,0,1,0,426.67,256,170.67,170.67,0,0,0,256,85.33Zm0,324.27A153.6,153.6,0,1,1,409.6,256,153.6,153.6,0,0,1,256,409.6Z"/><path id="Shape-3" data-name="Shape" d="M256,119.47A136.53,136.53,0,1,0,392.53,256,136.52,136.52,0,0,0,256,119.47Zm0,256A119.47,119.47,0,1,1,375.47,256,119.47,119.47,0,0,1,256,375.47Z"/><path id="Shape-4" data-name="Shape" d="M326.77,198.77l-104.9,104.9L185.23,267a8.53,8.53,0,0,0-12.06,12.07l42.66,42.67a8.54,8.54,0,0,0,12.07,0L338.83,210.83a8.53,8.53,0,0,0-12.06-12.06Z"/></g></g></g></g></svg>