<svg xmlns="http://www.w3.org/2000/svg" viewBox="0 0 512 512" fill="#a7a39d" width="81" height="81"><g id="Слой_2" data-name="Слой 2"><g id="Layer_1" data-name="Layer 1"><g id="User_Lock_Privacy" data-name="User Lock Privacy"><g id="Outline"><path d="M72,440a8,8,0,0,0-8,8v56a8,8,0,0,0,16,0V448A8,8,0,0,0,72,440Z"/><path d="M168.07,40.56a8,8,0,1,0-6.32-3.09A7.91,7.91,0,0,0,168.07,40.56Z"/><path d="M327.35,269a109.92,109.92,0,0,0,16.17-29.44,36.63,36.63,0,0,0,29.67-27.31L377.75,194a27.37,27.37,0,0,0-17.06-32.29l2.25-11a127.85,127.85,0,0,0,2-13.76v0q.54-5.82.55-11.63a124,124,0,0,0-9.67-48.08A125.28,125.28,0,0,0,240,0h0a125,125,0,0,0-47.32,9.2,8,8,0,0,0,6,14.82A109.66,109.66,0,0,1,348.74,112.1c-15.31-12.47-34.3-15.81-35.43-16l-3.12-.52L279.53,116a71.29,71.29,0,0,1-79.06,0L169.81,95.59l-3.12.52c-1.13.19-20.12,3.52-35.43,16a108.44,108.44,0,0,1,20.9-52,8,8,0,0,0-12.83-9.56A125.61,125.61,0,0,0,121,85.43a124,124,0,0,0-6.56,39.81,127.1,127.1,0,0,0,2.6,25.44l2.25,11a27.15,27.15,0,0,0-10,6.48,27.46,27.46,0,0,0-5.77,8.67A27.18,27.18,0,0,0,102.25,194l4.56,18.24a36.63,36.63,0,0,0,29.67,27.31,110,110,0,0,0,39.52,52v31.16a8,8,0,0,1-6.57,7.87L65.69,349.38A80,80,0,0,0,0,428.09V504a8,8,0,0,0,16,0V428.09a64,64,0,0,1,52.55-63L161,348.32A80,80,0,0,0,240,416a8,8,0,0,0,0-16,64,64,0,0,1-63.36-55A24,24,0,0,0,192,322.65V301A110.15,110.15,0,0,0,327.35,269ZM240,296h0A93.65,93.65,0,0,1,150,229.64L148.31,224l-5.92,0a20.64,20.64,0,0,1-20.06-15.67l-4.56-18.24a11.33,11.33,0,0,1,11-14.09h9.81l-5.85-28.54c-.69-3.38-1.22-6.8-1.59-10.22,7.65-16.34,27.71-22.8,35.25-24.7l25.2,16.8a87.28,87.28,0,0,0,96.82,0l25.2-16.8c7.56,1.9,27.61,8.36,35.26,24.69-.38,3.43-.9,6.84-1.6,10.24l-5.84,28.47V176h9.81a11.34,11.34,0,0,1,11,14.1l-4.56,18.23A20.62,20.62,0,0,1,337.61,224h-5.87L330,229.64A93.65,93.65,0,0,1,240,296Z"/><path d="M496,369.38V336a88,88,0,0,0-87.89-88H408a88.39,88.39,0,0,0-21,2.52,8,8,0,0,0,1.9,15.77,7.68,7.68,0,0,0,1.91-.23A72,72,0,0,1,480,336v32H464V336a56,56,0,0,0-112,0v32H336V336a72,72,0,0,1,9.86-36.41,8,8,0,1,0-13.55-8.51l-.24.41A87.93,87.93,0,0,0,320,336v33.38A24,24,0,0,0,304,392v96a24,24,0,0,0,24,24H488a24,24,0,0,0,24-24V392A24,24,0,0,0,496,369.38ZM368,336a40,40,0,0,1,80,0v32H368ZM496,488a8,8,0,0,1-8,8H328a8,8,0,0,1-8-8V392a8,8,0,0,1,8-8H488a8,8,0,0,1,8,8Z"/><path d="M360.16,263.87a8,8,0,1,0,6.42,3.21A8,8,0,0,0,360.16,263.87Z"/><path d="M408,400a28,28,0,0,0-8,54.83V472a8,8,0,0,0,16,0V454.83A28,28,0,0,0,408,400Zm0,40a12,12,0,1,1,12-12A12,12,0,0,1,408,440Z"/></g></g></g></g></svg>