<svg xmlns="http://www.w3.org/2000/svg" viewBox="0 0 512 512" fill="#a7a39d" width="78" height="81"><g id="Слой_2" data-name="Слой 2"><g id="Capa_1" data-name="Capa 1"><path d="M290.36,432l-109-168.53V128a10.67,10.67,0,0,0-10.66-10.67H117.33A10.67,10.67,0,0,0,106.67,128V263.77l-99.41,169A52.59,52.59,0,0,0,52.59,512H246.83a51.86,51.86,0,0,0,43.53-80Zm-43.53,58.67H52.59a31.26,31.26,0,0,1-27-47.11L126.53,272.08a10.72,10.72,0,0,0,1.47-5.41v-128h32v128a10.65,10.65,0,0,0,1.71,5.79L272.43,443.58a30.52,30.52,0,0,1-25.6,47.09Z"/><path d="M153.65,310.11l-18.39-10.8-90.57,154a10.67,10.67,0,0,0,9.21,16.07H128V448H72.53Z"/><path d="M486.25,245.33H320A42.68,42.68,0,0,0,277.33,288V458.67A53.41,53.41,0,0,0,330.67,512h96A53.4,53.4,0,0,0,480,458.67V313.75l24.47-24.46a25.76,25.76,0,0,0-18.22-44Zm3.13,28.88-27.59,27.58a10.67,10.67,0,0,0-3.12,7.54V458.67a32,32,0,0,1-32,32h-96a32,32,0,0,1-32-32V288A21.33,21.33,0,0,1,320,266.67H486.25a4.42,4.42,0,0,1,3.13,7.54Z"/><path d="M416,309.33V448H384v21.33h42.67a10.66,10.66,0,0,0,10.66-10.66V309.33Z"/><path d="M298.67,154.5V10.67A10.67,10.67,0,0,0,288,0H213.33a10.67,10.67,0,0,0-10.66,10.67V157.53a181.13,181.13,0,0,0-37.34,16.28L176,192.28a159.52,159.52,0,0,1,40-16.35,10.68,10.68,0,0,0,8-10.34V21.33h53.33V163.1A10.69,10.69,0,0,0,286,173.58a160.1,160.1,0,0,1,94.85,57.1l16.63-13.36A181.57,181.57,0,0,0,298.67,154.5Z"/><path d="M453.33,149.33a37.34,37.34,0,1,0,37.34,37.34A37.33,37.33,0,0,0,453.33,149.33Zm0,53.34a16,16,0,1,1,16-16A16,16,0,0,1,453.33,202.67Z"/><path d="M416,74.67a32,32,0,1,0,32,32A32,32,0,0,0,416,74.67Zm0,42.66a10.67,10.67,0,1,1,10.67-10.66A10.67,10.67,0,0,1,416,117.33Z"/><path d="M37.33,85.33a37.34,37.34,0,1,0,37.34,37.34A37.33,37.33,0,0,0,37.33,85.33Zm0,53.34a16,16,0,1,1,16-16A16,16,0,0,1,37.33,138.67Z"/><path d="M85.33,10.67a32,32,0,1,0,32,32A32,32,0,0,0,85.33,10.67Zm0,42.66A10.67,10.67,0,1,1,96,42.67,10.66,10.66,0,0,1,85.33,53.33Z"/><rect x="320" y="309.33" width="32" height="21.33"/><rect x="320" y="352" width="21.33" height="21.33"/><rect x="320" y="394.67" width="32" height="21.33"/><rect x="320" y="437.33" width="21.33" height="21.33"/><rect x="21.33" y="192" width="21.33" height="21.33"/><rect x="53.33" y="245.33" width="21.33" height="21.33"/><rect x="234.67" y="288" width="21.33" height="21.33"/><rect x="213.33" y="245.33" width="21.33" height="21.33"/><rect x="202.67" y="202.67" width="21.33" height="21.33"/><rect x="213.33" y="437.33" width="21.33" height="21.33"/><rect x="181.33" y="394.67" width="21.33" height="21.33"/></g></g></svg>