<svg xmlns="http://www.w3.org/2000/svg" fill="#72c9c6" width="51" height="51" viewBox="0 0 428.44 429.16"><g id="Слой_2" data-name="Слой 2"><g id="Layer_1" data-name="Layer 1"><g id="Layer_50" data-name="Layer 50"><path d="M396.9,176.47c-8.39-5.32-20.48-12.7-20.48-17.61A64.54,64.54,0,0,1,384,130.19c7-17.41,14.13-35.23,5.12-48.34s-28.26-11.67-46.69-10.24a61.44,61.44,0,0,1-27.45,0,69.33,69.33,0,0,1-9.42-27.44c-4.09-18.64-8.4-37.89-23.76-43S252.72,8.74,239,21.64c-7.78,7-18.23,16.39-23.55,16.39s-16-9.42-23.76-16.39C178.18,9.15,164-3.55,148.89,1.16s-20.28,23.55-24.37,42.19a69.65,69.65,0,0,1-9.63,27.24,57.87,57.87,0,0,1-27.44,0C69.22,69,50.18,67.31,41,80.83s-2.05,30.92,4.92,48.33a65.43,65.43,0,0,1,7.78,28.67c-1.64,4.92-13.11,12.29-21.51,17.62C16.38,185.28,0,195.93,0,212.31s16.38,27,32.15,37.07c8.4,5.32,20.48,12.49,21.51,17.41a66.23,66.23,0,0,1-7.78,28.87c-7,17.41-14.14,35.23-4.92,48.34s28.26,11.67,46.49,10a61.44,61.44,0,0,1,27.44,1,71,71,0,0,1,9.63,27.23c4.09,18.64,8.4,38.1,23.55,43.22a21.82,21.82,0,0,0,7,2.66,61.4,61.4,0,0,0,35.84-20.48c7.79-7,18.44-16.59,23.76-16.59s15.77,9.63,23.55,16.59C251.9,420,266,432.88,281,428.17s20.48-24.58,23.75-43.21a68,68,0,0,1,9.42-27.24,61.49,61.49,0,0,1,27.45-1c18.43,1.64,37.27,3.49,46.69-10s1.84-30.93-5.12-48.33a65.45,65.45,0,0,1-7.58-28.88c1.44-4.92,12.91-12.08,20.48-17.41,16-10,32.36-20.48,32.36-37.07S412.88,186.3,396.9,176.47ZM386.05,233.2c-13.52,8.4-26.22,16.38-30.11,28.67a69.1,69.1,0,0,0,8.19,42.4c3.9,9.42,10,25,7.38,29.08s-18.43,2.25-28.06,1.43a60.22,60.22,0,0,0-41,5.12A65.53,65.53,0,0,0,285.29,379c-2.05,9.21-5.94,26.62-10.24,28.06s-16.8-10.65-22.53-15.77a65.15,65.15,0,0,0-37.28-21.92,64.92,64.92,0,0,0-37.47,21.92c-5.53,5.12-19.05,17-22.53,15.77S147.05,388.23,145,379a65.57,65.57,0,0,0-17-39.12,38.3,38.3,0,0,0-24-6.14,176.89,176.89,0,0,0-17.82,1c-9.42,0-25.39,2.25-27.85-1.43s2.46-19.66,6.55-28.06a68.93,68.93,0,0,0,8.19-42.39c-3.68-12.29-16.38-20.48-29.9-28.68-9-5.73-22.73-14.33-22.73-20.48s13.72-13.92,22.73-20.48c13.52-8.39,26.22-16.58,29.9-28.67A69.58,69.58,0,0,0,64.92,122c-4.09-8.8-10-24.57-7.17-28.46s18.44-2.26,27.86-1.44a61.43,61.43,0,0,0,41-5.12,65.47,65.47,0,0,0,17-39.11c2.05-9.22,5.94-26.63,10.24-28.06s17,10.65,22.53,15.77a64.52,64.52,0,0,0,37.48,21.71,64.72,64.72,0,0,0,37.27-21.71c5.74-5.12,19-17,22.53-15.77s8.19,18.84,10.24,28.06A65.54,65.54,0,0,0,301.06,87a60.17,60.17,0,0,0,41,5.12c9.62,0,25.39-2.25,28.05,1.44S366.59,114,362.7,122.4a69.58,69.58,0,0,0-8.19,42.6c3.89,12.09,16.59,20.48,30.1,28.67,9,5.74,22.74,14.34,22.74,20.48s-12.29,13.32-21.3,19Z"/><path d="M274.64,147.8,191.08,257.16,153.8,218.25a10,10,0,0,0-14.19-.14,1.85,1.85,0,0,0-.14.14,10.24,10.24,0,0,0-.06,14.48l.06.06,44.24,47.11a9.85,9.85,0,0,0,7.37,3.07,11.14,11.14,0,0,0,7.58-3.89l90.72-118.79A10.24,10.24,0,0,0,273.2,147.8Z"/></g></g></g></svg>