<svg xmlns="http://www.w3.org/2000/svg" width="37" height="37" fill="#a7a39e" viewBox="0 0 409.6 333.31"><g id="Слой_2" data-name="Слой 2"><g id="Layer_1" data-name="Layer 1"><path id="_04.Twitter" data-name="04.Twitter" d="M409.6,39.42a172.18,172.18,0,0,1-48.13,13.32,82,82,0,0,0,36.87-46.6,176.74,176.74,0,0,1-53.25,20.48A84,84,0,0,0,199.68,84a76.56,76.56,0,0,0,2,18.94C132.1,99.84,70.66,66.05,29.18,15.36c-29.69,53.25,3.59,97.28,25.6,112.13-13.31,0-26.62-4.1-37.88-10.24C16.9,158.72,46.08,193,84,200.7c-8.19,2.56-26.63,4.1-37.89,1.54,10.75,33.28,42,57.86,78.34,58.37C95.74,283.14,53.76,301.06,0,295.42a236.83,236.83,0,0,0,129,37.89c154.63,0,238.6-128,238.6-238.59A74.44,74.44,0,0,0,367.1,84c17.41-12.8,31.75-27.65,42.5-44.55Z"/></g></g></svg>