<svg width="145" height="48" viewBox="0 0 145 48" fill="none" xmlns="http://www.w3.org/2000/svg">
<rect width="145" height="48.0006" rx="24.0003" fill="#212121"/>
<path d="M53 14.2316C53 15.0352 52.754 15.672 52.2619 16.1488C51.703 16.714 50.9789 17.0001 50.0826 17.0001C49.225 17.0001 48.4974 16.714 47.8998 16.1385C47.3023 15.5631 47 14.8514 47 14C47 13.1487 47.2988 12.437 47.8998 11.8615C48.4974 11.286 49.225 11 50.0826 11C50.5079 11 50.9121 11.0817 51.2988 11.2418C51.6854 11.4018 51.9947 11.6164 52.2267 11.882L51.7065 12.3859C51.3128 11.933 50.7715 11.7049 50.0826 11.7049C49.4569 11.7049 48.9192 11.916 48.4622 12.3417C48.0053 12.7673 47.7803 13.319 47.7803 14C47.7803 14.6811 48.0088 15.2327 48.4622 15.6584C48.9192 16.0841 49.4569 16.2952 50.0826 16.2952C50.7434 16.2952 51.2953 16.0807 51.7381 15.655C52.0264 15.3758 52.1916 14.9876 52.2337 14.4904H50.0791V13.7957H52.9508C52.9895 13.9456 53 14.092 53 14.2316Z" fill="white" stroke="white" stroke-width="0.0695595" stroke-miterlimit="10"/>
<path d="M57 11.7362H54.6609V13.639H56.7716V14.361H54.6609V16.2638H57V17.0001H54V11H57V11.7362Z" fill="white" stroke="white" stroke-width="0.0695595" stroke-miterlimit="10"/>
<path d="M60.3745 17.0001H59.6255V11.7362H58V11H62V11.7362H60.3745V17.0001Z" fill="white" stroke="white" stroke-width="0.0695595" stroke-miterlimit="10"/>
<path d="M65 17.0001V11H66V17.0001H65Z" fill="white" stroke="white" stroke-width="0.0695595" stroke-miterlimit="10"/>
<path d="M69.3745 17.0001H68.6255V11.7362H67V11H71V11.7362H69.3745V17.0001Z" fill="white" stroke="white" stroke-width="0.0695595" stroke-miterlimit="10"/>
<path d="M78.1384 16.1283C77.564 16.7106 76.8512 17.0001 75.9965 17.0001C75.1419 17.0001 74.4291 16.7106 73.8581 16.1283C73.2837 15.5494 73 14.8377 73 14C73 13.1623 73.2872 12.4506 73.8581 11.8717C74.4325 11.2894 75.1453 11 75.9965 11C76.8443 11 77.5571 11.2929 78.1349 11.8752C78.7093 12.4575 79 13.1657 79 14C79 14.8377 78.7128 15.546 78.1384 16.1283ZM74.4152 15.6448C74.8478 16.0738 75.3772 16.2918 76 16.2918C76.6263 16.2918 77.1557 16.0772 77.5848 15.6448C78.0173 15.2157 78.2353 14.6641 78.2353 13.9966C78.2353 13.3292 78.0173 12.7775 77.5848 12.3485C77.1523 11.9194 76.6228 11.7015 76 11.7015C75.3737 11.7015 74.8478 11.916 74.4152 12.3485C73.9827 12.7775 73.7682 13.3292 73.7682 13.9966C73.7682 14.6641 73.9827 15.2157 74.4152 15.6448Z" fill="white" stroke="white" stroke-width="0.0695595" stroke-miterlimit="10"/>
<path d="M80 17.0001V11H81.0146L84.166 15.6663H84.2006L84.166 14.5104V11H85V17.0001H84.1314L80.834 12.1061H80.7994L80.834 13.262V17.0001H80Z" fill="white" stroke="white" stroke-width="0.0695595" stroke-miterlimit="10"/>
<path d="M72.5268 25.7C70.2252 25.7 68.3483 27.4856 68.3483 29.9456C68.3483 32.3914 70.2252 34.1912 72.5268 34.1912C74.8285 34.1912 76.7054 32.3914 76.7054 29.9456C76.7054 27.4856 74.8285 25.7 72.5268 25.7ZM72.5268 32.5192C71.2663 32.5192 70.1764 31.4578 70.1764 29.9456C70.1764 28.4192 71.2663 27.372 72.5268 27.372C73.7874 27.372 74.8773 28.4156 74.8773 29.9456C74.8738 31.4578 73.7874 32.5192 72.5268 32.5192ZM63.4072 25.7C61.1055 25.7 59.2286 27.4856 59.2286 29.9456C59.2286 32.3914 61.1055 34.1912 63.4072 34.1912C65.7088 34.1912 67.5857 32.3914 67.5857 29.9456C67.5857 27.4856 65.7088 25.7 63.4072 25.7ZM63.4072 32.5192C62.1466 32.5192 61.0567 31.4578 61.0567 29.9456C61.0567 28.4192 62.1466 27.372 63.4072 27.372C64.6677 27.372 65.7576 28.4156 65.7576 29.9456C65.7576 31.4578 64.6677 32.5192 63.4072 32.5192ZM52.5603 27.0028V28.8026H56.7876C56.6623 29.8143 56.3315 30.5562 55.8266 31.0709C55.2102 31.6992 54.2492 32.3879 52.5603 32.3879C49.9592 32.3879 47.9221 30.2509 47.9221 27.5956C47.9221 24.9403 49.9557 22.8033 52.5603 22.8033C53.9636 22.8033 54.9909 23.3677 55.7465 24.0884L56.9931 22.8175C55.938 21.7881 54.5312 21 52.5603 21C48.9946 21 46 23.957 46 27.5921C46 31.2271 48.9981 34.1841 52.5603 34.1841C54.4859 34.1841 55.9345 33.5416 57.0697 32.3347C58.2362 31.1455 58.5983 29.4735 58.5983 28.121C58.5983 27.7021 58.567 27.3187 58.5043 26.9957H52.5603V27.0028ZM96.9192 28.4014C96.5709 27.4536 95.5159 25.7 93.3535 25.7C91.2085 25.7 89.4256 27.4217 89.4256 29.9456C89.4256 32.324 91.1911 34.1912 93.5589 34.1912C95.4671 34.1912 96.5709 33.002 97.0306 32.3098L95.6099 31.3442C95.1363 32.0507 94.4886 32.5192 93.5589 32.5192C92.6292 32.5192 91.9641 32.0862 91.5393 31.2342L97.1072 28.8878L96.9192 28.4014ZM91.2398 29.8178C91.1911 28.1778 92.4864 27.34 93.4161 27.34C94.1404 27.34 94.7568 27.7092 94.9622 28.2417L91.2398 29.8178ZM86.713 33.9356H88.5412V21.4579H86.713V33.9356ZM83.7184 26.6514H83.6557C83.2448 26.1544 82.4579 25.7035 81.462 25.7035C79.3797 25.7035 77.4715 27.5672 77.4715 29.9634C77.4715 32.3418 79.3797 34.1912 81.462 34.1912C82.4544 34.1912 83.2448 33.7404 83.6557 33.2257H83.7184V33.8362C83.7184 35.4621 82.8653 36.3282 81.4933 36.3282C80.3721 36.3282 79.6791 35.5082 79.3971 34.816L77.8023 35.4905C78.2584 36.6158 79.4737 38.0002 81.4933 38.0002C83.6383 38.0002 85.4525 36.7152 85.4525 33.5771V25.9591H83.7184V26.6514ZM81.6187 32.5192C80.3582 32.5192 79.2996 31.4436 79.2996 29.9634C79.2996 28.4689 80.3582 27.3755 81.6187 27.3755C82.8653 27.3755 83.8438 28.4689 83.8438 29.9634C83.8438 31.4401 82.8653 32.5192 81.6187 32.5192ZM105.489 21.4579H101.112V33.9356H102.94V29.2072H105.492C107.519 29.2072 109.507 27.7128 109.507 25.3308C109.507 22.9489 107.515 21.4579 105.489 21.4579ZM105.537 27.4714H102.94V23.1938H105.537C106.902 23.1938 107.679 24.3475 107.679 25.3308C107.679 26.2999 106.902 27.4714 105.537 27.4714ZM116.826 25.6787C115.503 25.6787 114.135 26.2715 113.567 27.5885L115.19 28.2772C115.535 27.5885 116.182 27.3613 116.858 27.3613C117.801 27.3613 118.763 27.9399 118.78 28.9659V29.0936C118.449 28.902 117.742 28.6109 116.875 28.6109C115.127 28.6109 113.348 29.5906 113.348 31.4188C113.348 33.0872 114.779 34.1628 116.388 34.1628C117.617 34.1628 118.292 33.6019 118.717 32.9417H118.78V33.9037H120.542V29.1291C120.542 26.914 118.923 25.6787 116.826 25.6787ZM116.607 32.5157C116.008 32.5157 115.172 32.2104 115.172 31.4578C115.172 30.4958 116.21 30.1266 117.109 30.1266C117.913 30.1266 118.289 30.3041 118.776 30.5455C118.637 31.6992 117.662 32.5157 116.607 32.5157ZM126.966 25.952L124.874 31.362H124.811L122.638 25.952H120.671L123.93 33.5132L122.071 37.7198H123.975L129 25.952H126.966ZM110.513 33.9356H112.341V21.4579H110.513V33.9356Z" fill="white"/>
<path d="M16.4651 11.0709C16.1717 11.3795 16 11.8549 16 12.4721V34.5282C16 35.1454 16.1717 35.6208 16.4651 35.9294L16.5402 36.0003L29 23.6456V23.5001V23.3547L16.5402 11L16.4651 11.0709Z" fill="url(#paint0_linear)"/>
<path d="M33.0626 29.0001L29 24.6516V24.4982V24.3447L33.0626 20L33.1536 20.0561L37.9686 22.9826C39.3438 23.8171 39.3438 25.1868 37.9686 26.0213L33.1536 28.9477L33.0626 29.0001Z" fill="url(#paint1_linear)"/>
<path d="M33 28.2715L28.6957 24L16 36.5987C16.471 37.0913 17.2428 37.1524 18.1159 36.6599L33 28.2715Z" fill="url(#paint2_linear)"/>
<path d="M33 19.7323L18.1159 11.3403C17.2428 10.8477 16.471 10.9088 16 11.4014L28.6957 24.0002L33 19.7323Z" fill="url(#paint3_linear)"/>
<path opacity="0.2" d="M32.9094 28L18.1164 36.5067C17.2901 36.9835 16.5508 36.9505 16.0761 36.5177L16 36.591L16.0761 36.6644C16.5508 37.0973 17.2901 37.1303 18.1164 36.6534L33 28.0917L32.9094 28Z" fill="black"/>
<path opacity="0.12" d="M16.8609 36.8119C16.3179 36.4174 16 35.7982 16 35V35.1881C16 35.9862 16.3179 36.6009 16.8609 37L17 36.9037L16.8609 36.8119Z" fill="black"/>
<path opacity="0.12" d="M37.957 25.229L33 27.9125L33.0919 28L37.957 25.367C38.65 24.9899 39 24.495 39 24C38.9434 24.4478 38.5899 24.8889 37.957 25.229Z" fill="black"/>
<path opacity="0.25" d="M18.5296 11.4874L37.9549 22.6878C38.5855 23.0509 38.9398 23.5219 39 24.0002C39 23.4716 38.6528 22.943 37.9549 22.5403L18.5296 11.34C17.1372 10.5382 16 11.2034 16 12.8214V12.9688C16 11.3508 17.1372 10.6856 18.5296 11.4874Z" fill="white"/>
<defs>
<linearGradient id="paint0_linear" x1="27.896" y1="12.2396" x2="11.1589" y2="29.1191" gradientUnits="userSpaceOnUse">
<stop stop-color="#00A0FF"/>
<stop offset="0.00657445" stop-color="#00A1FF"/>
<stop offset="0.2601" stop-color="#00BEFF"/>
<stop offset="0.5122" stop-color="#00D2FF"/>
<stop offset="0.7604" stop-color="#00DFFF"/>
<stop offset="1" stop-color="#00E3FF"/>
</linearGradient>
<linearGradient id="paint1_linear" x1="39.7606" y1="24.4994" x2="15.954" y2="24.4994" gradientUnits="userSpaceOnUse">
<stop stop-color="#FFE000"/>
<stop offset="0.4087" stop-color="#FFBD00"/>
<stop offset="0.7754" stop-color="#FFA500"/>
<stop offset="1" stop-color="#FF9C00"/>
</linearGradient>
<linearGradient id="paint2_linear" x1="30.6613" y1="26.3209" x2="7.6548" y2="49.5044" gradientUnits="userSpaceOnUse">
<stop stop-color="#FF3A44"/>
<stop offset="1" stop-color="#C31162"/>
</linearGradient>
<linearGradient id="paint3_linear" x1="12.8037" y1="3.95918" x2="23.077" y2="14.3116" gradientUnits="userSpaceOnUse">
<stop stop-color="#32A071"/>
<stop offset="0.0685" stop-color="#2DA771"/>
<stop offset="0.4762" stop-color="#15CF74"/>
<stop offset="0.8009" stop-color="#06E775"/>
<stop offset="1" stop-color="#00F076"/>
</linearGradient>
</defs>
</svg>
