<?xml version="1.0" encoding="utf-8"?>
<!-- Generator: Adobe Illustrator 24.0.2, SVG Export Plug-In . SVG Version: 6.00 Build 0)  -->
<svg version="1.1" id="Layer_1" xmlns="http://www.w3.org/2000/svg" xmlns:xlink="http://www.w3.org/1999/xlink" x="0px" y="0px"
	 viewBox="0 0 172.55 87.71" style="enable-background:new 0 0 172.55 87.71;" xml:space="preserve">
<style type="text/css">
	.st0{fill:#3C3C3B;}
	.st1{fill:url(#SVGID_1_);}
	.st2{fill:url(#SVGID_2_);}
</style>
<g>
	<path class="st0" d="M47.76,46.03c-0.79-2.82-3.17-4.66-8.18-4.31c-1.32,0.09-2.55,0.18-4.22,0.44
		c4.14-7.57,7.57-13.64,10.47-18.48c8.45-1.5,12.76-2.46,17.25-2.38c1.85,0,2.29-0.97,1.85-1.94c-1.23-2.99-3.7-4.75-7.92-4.75
		c-2.11,0-5.02,0.35-8.1,0.88c-4.22,0.7-8.01,1.23-13.11,1.23c-1.67,0-2.2,0.53-1.94,1.67c0.35,1.58,1.32,3.34,3.34,4.49
		C29.46,35.3,20.57,52.02,18.02,59.5c-0.7,2.2-1.06,4.05-1.06,5.37c0,2.11,0.79,3.96,2.02,4.75c1.23,0.79,2.46,0.53,2.99-0.62
		c3.08-6.6,5.63-12.06,8.89-18.39c4.84-1.23,11.09-2.02,15.14-2.38C47.94,48.06,48.11,47.27,47.76,46.03z"/>
	<path class="st0" d="M151.25,48.41c0.79-7.48-1.67-8.1-4.14-11c-1.67-2.29-3.26-3.26-5.81-3.26c-5.81,0-11.35,4.4-15.31,11.44
		c-2.29,4.14-3.7,8.45-3.7,12.32c0,0.46,0.03,0.92,0.07,1.37c-2.74,4.33-5.95,7.43-8.52,7.43c-1.5,0-2.38-1.85-2.38-4.49
		c0-1.94,0.53-4.22,1.58-6.6c3.08-6.69,8.1-15.4,11.44-21.12c1.94-0.26,4.22-0.44,5.81-0.26c2.11,0.26,2.73-0.79,1.85-2.38
		c-0.62-1.06-2.11-2.46-4.84-2.82c1.06-2.46,1.41-4.49,1.41-6.07c0-1.06-0.35-2.55-0.97-3.61c-0.97-1.67-2.02-1.76-3.34,0.18
		c-2.02,2.9-3.87,5.81-6.6,10.56c-1.94,0.18-4.31,0.26-6.33,0.18c-2.02-0.09-2.9,0.79-1.67,2.64c0.7,1.06,2.29,2.02,5.02,2.38
		c-3.52,6.34-6.86,13.29-8.62,17.6c-1.13,2.67-1.66,4.96-1.74,6.81c-1.28,1.63-2.83,3.01-4.68,4.27c0.97-1.94,1.41-4.4,1.5-6.6
		c0.18-4.75-0.97-10.47-0.97-16.72c0-1.14,0.09-2.64,0.18-3.7c2.73-4.49,2.2-6.42-0.18-6.42c-1.32,0-2.9,0.62-4.31,1.85
		c-2.02,1.67-3.08,3.7-3.43,6.86c-2.29,3.78-5.37,8.36-8.27,12.5c-0.26-2.11-1.58-2.55-3.34-1.06c-1.94,1.67-2.82,4.22-2.82,6.86
		c0,0.97,0.13,1.95,0.36,2.9c-2.44,3.57-5.16,6.34-7.31,6.34c-0.88,0-1.23-0.79-1.23-2.11c0-5.9,7.39-15.49,9.68-20.33
		c2.29-4.58,1.5-8.45,0-10.21c-1.06-1.23-2.55-1.14-3.61,0.62l-1.67,2.73c-0.79-2.29-2.73-3.87-5.9-3.87
		c-4.49,0-11.7,4.14-18.74,14.26c-3.17,4.4-4.75,9.33-4.75,13.11c0,5.19,2.82,8.98,8.01,8.98c3.52,0,7.48-2.73,10.03-5.19
		c0.7,3.26,3.26,5.54,7.66,5.54c3.66,0,7.43-2.17,10.19-5.07c3.09,3.99,7.71,5.05,12.34,4.9c4.6-0.18,8.98-1.87,12.35-4.96
		c1.51,3.08,4.42,4.87,7.62,4.87c4.42,0,8.29-2.7,10.97-5.44c0.2,0.33,0.41,0.65,0.65,0.96c2.46,3.26,5.72,4.49,8.62,4.49
		c1.32,0,2.38-0.26,3.17-0.53c6.69-2.29,12.32-10.91,14.17-18.22c0.97-0.18,1.67-0.53,2.29-1.23
		C153.71,49.2,153.53,48.41,151.25,48.41z M54.1,66.1c-0.88,0-1.23-1.06-1.23-2.64c0-2.82,1.5-7.48,4.14-11.62
		c4.49-7.22,10.56-12.76,12.32-12.76c0.88,0,1.06,0.62,1.06,1.67c0,2.29-1.58,6.6-5.02,12.58C61.05,60.73,57,66.1,54.1,66.1z
		 M90.18,66.01c-1.94,0-3.78-3.08-4.84-7.22c2.64-3.78,5.1-7.57,7.22-10.91c0.18,2.38,0.26,5.19,0.26,8.01
		C92.82,61.61,92.03,66.01,90.18,66.01z M140.33,56.33c-3.26,5.98-6.78,9.24-9.06,9.24c-1.32,0-2.11-1.06-2.11-3.7
		c0-3.26,1.41-8.18,3.7-12.41c1.5-2.64,3.17-4.84,5.02-6.6c0.7,3.08,2.55,5.37,5.37,7.13C142.71,51.84,141.66,54.04,140.33,56.33z
		 M144.65,46.65c-0.97-1.14-1.41-3.43-1.41-5.02c0-1.41,0.79-2.11,1.32-2.11c0.62,0,1.32,0.53,1.32,1.85
		C145.88,42.51,145.53,44.63,144.65,46.65z"/>
</g>
<g>
	<linearGradient id="SVGID_1_" gradientUnits="userSpaceOnUse" x1="41.8956" y1="15.9867" x2="41.8956" y2="71.4405">
		<stop  offset="0" style="stop-color:#FDC800"/>
		<stop  offset="0.8959" style="stop-color:#F28D08"/>
		<stop  offset="1" style="stop-color:#EB6019"/>
	</linearGradient>
	<path class="st1" d="M48.64,47.4c-0.79-2.82-3.17-4.66-8.18-4.31c-1.32,0.09-2.55,0.18-4.22,0.44c4.14-7.57,7.57-13.64,10.47-18.48
		c8.45-1.5,12.76-2.46,17.25-2.38c1.85,0,2.29-0.97,1.85-1.94c-1.23-2.99-3.7-4.75-7.92-4.75c-2.11,0-5.02,0.35-8.1,0.88
		c-4.22,0.7-8.01,1.23-13.11,1.23c-1.67,0-2.2,0.53-1.94,1.67c0.35,1.58,1.32,3.34,3.34,4.49c-7.74,12.41-16.63,29.13-19.18,36.61
		c-0.7,2.2-1.06,4.05-1.06,5.37c0,2.11,0.79,3.96,2.02,4.75c1.23,0.79,2.46,0.53,2.99-0.62c3.08-6.6,5.63-12.06,8.89-18.39
		c4.84-1.23,11.09-2.02,15.14-2.38C48.81,49.43,48.99,48.63,48.64,47.4z"/>
	<linearGradient id="SVGID_2_" gradientUnits="userSpaceOnUse" x1="100.0345" y1="19.4736" x2="100.0345" y2="71.6893">
		<stop  offset="0" style="stop-color:#FDC800"/>
		<stop  offset="0.8959" style="stop-color:#F28D08"/>
		<stop  offset="1" style="stop-color:#EB6019"/>
	</linearGradient>
	<path class="st2" d="M152.12,49.78c0.79-7.48-1.67-8.1-4.14-11c-1.67-2.29-3.26-3.26-5.81-3.26c-5.81,0-11.35,4.4-15.31,11.44
		c-2.29,4.14-3.7,8.45-3.7,12.32c0,0.46,0.03,0.92,0.07,1.37c-2.74,4.33-5.95,7.43-8.52,7.43c-1.5,0-2.38-1.85-2.38-4.49
		c0-1.94,0.53-4.22,1.58-6.6c3.08-6.69,8.1-15.4,11.44-21.12c1.94-0.26,4.22-0.44,5.81-0.26c2.11,0.26,2.73-0.79,1.85-2.38
		c-0.62-1.06-2.11-2.46-4.84-2.82c1.06-2.46,1.41-4.49,1.41-6.07c0-1.06-0.35-2.55-0.97-3.61c-0.97-1.67-2.02-1.76-3.34,0.18
		c-2.02,2.9-3.87,5.81-6.6,10.56c-1.94,0.18-4.31,0.26-6.33,0.18c-2.02-0.09-2.9,0.79-1.67,2.64c0.7,1.06,2.29,2.02,5.02,2.38
		c-3.52,6.34-6.86,13.29-8.62,17.6c-1.13,2.67-1.66,4.96-1.74,6.81c-1.28,1.63-2.83,3.01-4.68,4.27c0.97-1.94,1.41-4.4,1.5-6.6
		c0.18-4.75-0.97-10.47-0.97-16.72c0-1.14,0.09-2.64,0.18-3.7c2.73-4.49,2.2-6.42-0.18-6.42c-1.32,0-2.9,0.62-4.31,1.85
		c-2.02,1.67-3.08,3.7-3.43,6.86c-2.29,3.78-5.37,8.36-8.27,12.5c-0.26-2.11-1.58-2.55-3.34-1.06C79.88,53.74,79,56.29,79,58.93
		c0,0.97,0.13,1.95,0.36,2.9c-2.44,3.57-5.16,6.34-7.31,6.34c-0.88,0-1.23-0.79-1.23-2.11c0-5.9,7.39-15.49,9.68-20.33
		c2.29-4.58,1.5-8.45,0-10.21c-1.06-1.23-2.55-1.14-3.61,0.62l-1.67,2.73c-0.79-2.29-2.73-3.87-5.9-3.87
		c-4.49,0-11.7,4.14-18.74,14.26c-3.17,4.4-4.75,9.33-4.75,13.11c0,5.19,2.82,8.98,8.01,8.98c3.52,0,7.48-2.73,10.03-5.19
		c0.7,3.26,3.26,5.54,7.66,5.54c3.66,0,7.43-2.17,10.19-5.07c3.09,3.99,7.71,5.05,12.34,4.9c4.6-0.18,8.98-1.87,12.35-4.96
		c1.51,3.08,4.42,4.87,7.62,4.87c4.42,0,8.29-2.7,10.97-5.44c0.2,0.33,0.41,0.65,0.65,0.96c2.46,3.26,5.72,4.49,8.62,4.49
		c1.32,0,2.38-0.26,3.17-0.53c6.69-2.29,12.32-10.91,14.17-18.22c0.97-0.18,1.67-0.53,2.29-1.23
		C154.59,50.57,154.41,49.78,152.12,49.78z M54.97,67.47c-0.88,0-1.23-1.06-1.23-2.64c0-2.82,1.5-7.48,4.14-11.62
		c4.49-7.22,10.56-12.76,12.32-12.76c0.88,0,1.06,0.62,1.06,1.67c0,2.29-1.58,6.6-5.02,12.58C61.92,62.1,57.88,67.47,54.97,67.47z
		 M91.05,67.38c-1.94,0-3.78-3.08-4.84-7.22c2.64-3.78,5.1-7.57,7.22-10.91c0.18,2.38,0.26,5.19,0.26,8.01
		C93.69,62.98,92.9,67.38,91.05,67.38z M141.21,57.7c-3.26,5.98-6.78,9.24-9.06,9.24c-1.32,0-2.11-1.06-2.11-3.7
		c0-3.26,1.41-8.18,3.7-12.41c1.5-2.64,3.17-4.84,5.02-6.6c0.7,3.08,2.55,5.37,5.37,7.13C143.59,53.21,142.53,55.41,141.21,57.7z
		 M145.52,48.02c-0.97-1.14-1.41-3.43-1.41-5.02c0-1.41,0.79-2.11,1.32-2.11c0.62,0,1.32,0.53,1.32,1.85
		C146.75,43.88,146.4,45.99,145.52,48.02z"/>
</g>
</svg>
