<?xml version="1.0" encoding="UTF-8"?> <svg xmlns="http://www.w3.org/2000/svg" xmlns:xlink="http://www.w3.org/1999/xlink" width="139px" height="36px" viewBox="0 0 139 36"><!-- Generator: sketchtool 52.5 (67469) - http://www.bohemiancoding.com/sketch --><title>DF1461EA-5784-4C06-8486-9B989C997C0B</title><desc>Created with sketchtool.</desc><g id="Symbols" stroke="none" stroke-width="1" fill="none" fill-rule="evenodd"><g id="Desktop-/-Nav-Copy"><g id="Nav"><g id="Logo"><g id="Group-3" transform="translate(30.570930, 0.000000)"><polygon id="Clip-2" points="0.338547319 0.162995186 31.7327904 0.162995186 31.7327904 35.6660854 0.338547319 35.6660854"></polygon><path d="M28.1920948,23.9758482 C26.6005587,29.6806386 21.7937559,33.1648585 15.6456254,33.0428805 C9.65671859,32.9337422 5.179911,29.4409625 3.66991141,23.6990794 C2.73941571,20.1613604 2.68167529,16.5694289 3.49773996,13.0235067 C4.97694466,6.59576483 9.54228757,2.91359818 16.0288119,2.91359818 L16.0771039,2.91359818 C23.0444485,2.93321453 27.7847624,7.19673837 28.757951,14.318899 C29.2286229,17.7649561 29.0435036,20.9239013 28.1920948,23.9758482 M22.4645946,1.38102649 C17.7631243,-0.595231299 11.8155106,-0.134425476 7.6655488,2.52911778 C2.74886415,5.68413969 0.422449944,10.5889398 0.343363059,17.9657562 C0.309418688,19.7565503 0.454644605,21.4193032 0.787789358,23.0478167 C2.16516094,29.7883502 6.75394997,34.4128148 13.0627038,35.4182417 C14.1055308,35.5844457 15.1259616,35.666121 16.118747,35.666121 C21.9053874,35.666121 26.7373861,32.8912996 29.3822474,27.9091041 C31.8300915,23.2989059 32.3595537,18.1369534 31.001079,12.1290013 C29.5229241,5.59033789 25.5430341,2.67534873 22.4645946,1.38102649" id="Fill-1" fill="#2f1946"></path></g><g id="Group-6" transform="translate(0.000000, 1.273789)"><polygon id="Clip-5" points="0 0.195235347 24.0894174 0.195235347 24.0894174 34.3564506 0 34.3564506"></polygon><path d="M22.7261349,30.9225394 C21.0980998,28.8877209 19.4144362,26.8433293 17.7860399,24.8659496 C16.6427669,23.4782027 15.499494,22.0901012 14.3656129,20.694554 C13.6644777,19.8308464 13.6037921,19.5741452 13.6027085,19.5248613 C13.6431655,19.4688409 13.8552038,19.3153165 14.9403197,19.1064808 C16.8031503,18.7480209 18.7595377,18.2246907 20.4478972,16.8362347 C23.6519512,14.2018557 23.9759688,9.63477143 22.8760427,6.27744507 C21.6601638,2.5669772 18.6641746,0.497057326 14.2117316,0.291058106 C11.9685325,0.187881216 9.68921111,0.200999927 7.48502422,0.213054959 C5.89744615,0.221918953 4.25568453,0.230782947 2.64571059,0.19639065 C1.70580658,0.178662662 1.06499577,0.364451976 0.628637569,0.788860008 C0.0499572348,1.35154634 -0.00711610648,2.21667216 0.000469590783,2.81871463 C0.045261327,6.32601976 0.0369531824,9.89430918 0.0290062614,13.3455939 C0.026116472,14.678384 0.0228654589,16.0108196 0.0228654589,17.3436097 C0.0221430115,21.7738339 0.0214205642,26.2044126 0.0228654589,30.6349914 L0.0217817879,31.033162 C0.0199756695,31.5486919 0.0181695511,32.0819498 0.0470674454,32.6120166 C0.0727143266,33.077199 0.133038681,34.3092942 1.41646641,34.2617832 C2.6030862,34.2146267 2.66919013,33.0857084 2.69736558,32.6035072 L2.69989415,32.5584781 C2.72590225,32.1202422 2.72409613,31.6816518 2.72229001,31.2572438 L2.72156757,30.9331761 C2.72373491,22.0723732 2.7251798,13.2112157 2.7251798,4.35041279 L2.72481858,4.20220681 C2.72301246,3.71929641 2.72120634,3.22007627 2.92385283,3.02329561 C3.08170757,2.86977123 3.41945171,2.84211557 3.67266951,2.84566117 C5.05362764,2.86551652 6.45589796,2.85842532 7.81157043,2.85204324 C9.94459625,2.84211557 12.1491444,2.83147878 14.3067334,2.92401888 C17.5815873,3.06442454 19.9035331,5.00244818 20.5176133,8.10732799 C20.9774511,10.4304035 20.7014762,12.3184342 19.6972744,13.7196544 C18.645391,15.1875318 16.7915911,16.1317245 14.1871684,16.5256403 C12.3980275,16.796524 11.2923218,17.4283495 10.9003941,18.4033888 C10.5091889,19.3780736 10.877637,20.5796766 11.9963468,21.9748693 C14.7286427,25.3825431 17.5732791,28.8660928 20.6928068,32.6247808 C20.7896148,32.7417855 20.8961758,32.9038193 21.0088775,33.0754262 C21.3690176,33.623221 21.7768391,34.2437006 22.4523274,34.3433319 C22.5108456,34.3518413 22.5693638,34.3564506 22.6278821,34.3564506 C22.9435916,34.3564506 23.2560501,34.2298728 23.5591167,33.9795536 C23.892165,33.7044152 24.069887,33.382475 24.0879482,33.0229514 C24.1211808,32.3482241 23.5844024,31.8089388 23.1108381,31.332765 C22.9627364,31.1838499 22.8225816,31.0427351 22.7261349,30.9225394" id="Fill-4" fill="#2f1946"></path></g><g id="Group-9" transform="translate(105.724467, 1.273789)"><polygon id="Clip-8" points="0.0641043936 0.303189895 33.0469291 0.303189895 33.0469291 34.3347516 0.0641043936 34.3347516"></polygon><path d="M32.6996834,31.9514009 L32.638788,31.8255321 C32.2431465,30.9933804 31.8393144,30.1651288 31.4351261,29.3365226 C30.6117929,27.6477545 29.7599707,25.9019023 28.9993133,24.1571137 C28.3501193,22.6672536 27.3163233,21.9942992 25.6465095,21.9744438 C25.3908204,21.9719619 25.1358435,21.9911081 24.8890572,22.0102543 C24.6639938,22.0276278 24.4489016,22.0442921 24.2448488,22.0442921 C25.5168844,21.9177142 26.332027,21.6925688 26.6981112,21.0511702 C27.0958894,20.3548148 26.7999595,19.4560058 26.1546828,18.1384618 C23.5878203,12.897714 20.9337103,7.47862263 18.2543161,2.0715863 C18.2005431,1.96344558 18.15318,1.84324982 18.1047487,1.7209267 C17.8839586,1.16816804 17.5228601,0.247021784 16.4167731,0.305878704 C15.4050561,0.364381064 15.0621193,1.2284432 14.8352753,1.79999353 C14.7861317,1.924444 14.7380565,2.04676712 14.6839273,2.15951712 C9.25213592,13.4834467 4.80642138,22.7817764 0.692248037,31.4220431 C0.64381667,31.5234472 0.581140784,31.6326516 0.516328221,31.7457562 C0.25636574,32.2013655 -0.0676970789,32.7683065 0.119974466,33.3458844 C0.227520588,33.6781069 0.480716922,33.9372901 0.872441208,34.1156336 C1.23745702,34.2819222 1.57896938,34.3063868 1.88771934,34.1872547 C2.42046437,33.98161 2.65906007,33.4228239 2.85100497,32.9735966 C2.9175981,32.8179449 2.98027398,32.6704481 3.04579877,32.5580526 C3.07428781,32.5084142 3.09743515,32.4555848 3.11987027,32.4020463 L4.94815435,28.5923017 C8.69339464,20.7973054 12.4382788,13.0023091 16.1899291,5.20979473 C16.2454828,5.09385369 16.2942702,4.96231202 16.3427016,4.82864299 C16.3850791,4.71128371 16.4595067,4.50599361 16.5200459,4.42728134 C16.5542327,4.50244801 16.5912685,4.62512569 16.6154842,4.70667443 C16.6596422,4.85310761 16.7048685,5.00450463 16.7775156,5.14951957 C17.6033416,6.79893157 18.4234698,8.45118004 19.243598,10.1034285 C20.6067985,12.8505575 22.0162937,15.6912903 23.4318429,18.4717479 C23.6932298,18.9858596 23.8143082,19.3007087 23.8057615,19.3815483 C23.8007759,19.3865121 23.6697263,19.5070624 22.9884822,19.5322362 C21.478207,19.5879021 20.4725439,20.643781 20.485364,22.159524 C20.4974718,23.5813086 21.3920277,24.4903999 23.0048634,24.7187363 C23.7527007,24.8247497 24.3552438,24.8509871 24.9022334,24.8006396 C25.9107454,24.7070359 26.4919218,25.0800327 26.9587859,26.1313024 C27.8483561,28.1359833 28.8298035,30.1346367 29.7788446,32.0673419 L30.2891545,33.1086839 C30.4807433,33.5033089 30.883151,34.3347516 31.664819,34.3347516 C31.831836,34.3347516 32.0163025,34.2968137 32.2192869,34.2085283 C32.6021084,34.0422398 32.856017,33.7965298 32.9742465,33.4774261 C33.1772309,32.9321132 32.9126389,32.3882185 32.6996834,31.9514009" id="Fill-7" fill="#2f1946"></path></g><path d="M100.075101,33.2066326 C99.9493459,33.0371138 99.827194,32.8876225 99.7014389,32.749218 L95.3428886,27.9590608 C92.336296,24.6555904 89.3300637,21.3524777 86.3274347,18.045431 C85.3361672,16.9546456 84.2004074,16.7879879 82.9457387,17.5490343 C83.0322179,17.4657054 83.1280656,17.3827342 83.2264357,17.2972595 C83.2927364,17.2396804 83.3590371,17.1821012 83.4235361,17.1234491 L87.4138293,13.5188505 C90.8719153,10.3952703 94.3303616,7.27169014 97.7812409,4.140242 C97.844659,4.08266284 97.915644,4.02436841 97.9880703,3.9642858 C98.3923604,3.6298975 99.3385867,2.84703546 98.5682014,1.83385678 C98.3102052,1.49446159 98.0035645,1.30741872 97.6576478,1.27773505 C97.0663464,1.22766621 96.5957556,1.66469564 96.2523612,1.98370566 L96.1262457,2.09993688 C90.5047391,7.16404214 84.905573,12.2313661 80.1693969,16.5201196 C79.5914278,17.0436966 78.9749033,17.7060358 78.9749033,18.9470277 L78.9749033,18.9620484 C79.0019281,19.8947593 79.5164792,20.7044439 80.3524445,21.1285985 C81.4928886,21.7065359 82.7108036,21.4522577 83.6087457,20.4458741 C83.9009733,20.1189961 84.1492405,19.945901 84.3276038,19.945901 L84.3304865,19.945901 C84.5315506,19.9484045 84.8194541,20.1726413 85.2111327,20.6314865 C87.0787225,22.8205675 89.0403585,24.9885482 90.9378557,27.0853596 L91.7662541,28.0012617 C93.5841184,30.0122407 95.4499065,32.0393134 97.2544386,33.999866 L98.0932866,34.9118341 C98.3289424,35.1682581 98.7858407,35.6660854 99.3645305,35.6660854 C99.6109961,35.6660854 99.8798022,35.5756038 100.163022,35.3374192 C101.085466,34.5613522 100.404082,33.647596 100.112936,33.2574167 L100.075101,33.2066326 Z" id="Fill-10" fill="#2f1946"></path><path d="M73.8409587,1.27508764 C73.4646748,1.28833815 73.1648338,1.42433023 72.9490142,1.6792282 C72.5384627,2.16356921 72.591841,2.91257173 72.6350049,3.51407514 C72.6468668,3.68040391 72.6590581,3.84045613 72.6587286,3.98167867 C72.632369,13.5998055 72.6409359,23.3302129 72.6508207,31.6958178 C72.6518092,32.2359505 72.7150724,32.8304799 72.8455526,33.5132299 C72.9440718,34.0317433 73.3879023,34.3922966 73.9134477,34.3922966 C73.9355239,34.3922966 73.9576001,34.3915992 73.9800058,34.3905531 C74.5157656,34.3598677 74.9240106,33.9588655 74.9961702,33.3922318 C75.0614103,32.8806924 75.0946893,32.3328884 75.0956778,31.7641626 C75.1006203,28.2193024 75.1002908,24.6744423 75.0999613,21.1295822 L75.0996318,17.6460928 C75.0996318,16.503062 75.1012792,15.3596824 75.1029267,14.2166516 C75.1072102,10.8266132 75.1118231,7.3208072 75.0765671,3.87218761 C75.0752491,3.74282079 75.0920534,3.57195895 75.1101756,3.39133358 C75.1665194,2.82225904 75.2370314,2.11440285 74.8281274,1.6495889 C74.5961625,1.38597349 74.2643605,1.25939625 73.8409587,1.27508764" id="Fill-12" fill="#2f1946"></path></g></g></g></g></svg> 