<svg xmlns="http://www.w3.org/2000/svg" width="19.287" height="19.287" viewBox="0 0 19.287 19.287">
  <path id="social_icons_linkedin" data-name="social icons_linkedin" d="M16.364,0H2.923A2.915,2.915,0,0,0,0,2.923V16.364a2.915,2.915,0,0,0,2.923,2.923H16.364a2.915,2.915,0,0,0,2.923-2.923V2.923A2.915,2.915,0,0,0,16.364,0ZM6.342,15.378H3.754V7.641H6.342ZM5.052,6.58h0a1.343,1.343,0,1,1,0-2.671,1.343,1.343,0,1,1,0,2.671Zm8.041,8.8V11.238c0-1.039-.371-1.751-1.313-1.751a1.432,1.432,0,0,0-1.328.942,1.765,1.765,0,0,0-.082.623v4.325h-2.6V7.641h2.611v1.09a2.582,2.582,0,0,1,2.329-1.276c1.706,0,2.967,1.105,2.967,3.487v4.451Z" fill="#5a5b5d"/>
</svg>
