<svg xmlns="http://www.w3.org/2000/svg" width="120" height="44" viewBox="0 0 120 44">
    <g fill="none" fill-rule="evenodd">
        <rect width="119" height="43" x=".5" y=".5" fill="#FCF8EC" stroke="#F0F0F0" rx="21.5"/>
        <text fill="#262626" font-family=".SFNSText, .SF NS Text" font-size="12.8" letter-spacing="-.45">
            <tspan x="48" y="31">App Store</tspan>
        </text>
        <text fill="#262626" font-family=".SFNSText, .SF NS Text" font-size="7" letter-spacing=".06">
            <tspan x="48" y="18">Available on the</tspan>
        </text>
        <path fill="#262626" d="M33.722 8c-3.205 1.052-5.703 2.105-5.347 6.667 3.205-.702 6.06-2.456 5.347-6.667zm-10.18 6.333C20.458 14.333 16 17 16 22c0 7 4.8 14 7.543 14 2.057 0 3.771-1.333 5.143-1.333 1.371 0 2.743 1.333 4.8 1.333 2.743 0 5.828-4 6.514-7.667-2.4-1.666-4.114-2.666-4.114-5.666 0-2 1.714-4 3.771-5.667-1.028-1.333-3.086-2.667-5.143-2.667s-4.27 1.582-5.828 1.667c-1.372 0-3.086-1.667-5.143-1.667z"/>
    </g>
</svg>
