<svg xmlns="http://www.w3.org/2000/svg" width="88" height="88" viewBox="0 0 88 88">
    <g fill="none" fill-rule="evenodd">
        <circle cx="44" cy="44" r="44" fill="#FCF8EC"/>
        <path fill="#262626" fill-rule="nonzero" stroke="#262626" d="M27.288 71.355h34.589c.365 0 .66-.3.66-.671v-1.077c0-7.92-5.709-14.61-12.467-14.61h-.23v-3.886c2.874-1.83 4.688-5.05 4.688-8.612 0-2.239-.742-4.41-2.084-6.184v-4.012c2.567-.94 4.17-3.522 3.861-6.333-.294-2.677-2.414-4.89-5.042-5.262a5.831 5.831 0 0 0-2.029.062 5.902 5.902 0 0 0-5.193-3.123c-2.316 0-4.404 1.377-5.365 3.481a4.726 4.726 0 0 0-1.998.106 5.109 5.109 0 0 0-3.765 4.885c-.014 2.426 1.625 4.473 3.898 4.989v4.89a10.259 10.259 0 0 0-2.328 6.502c0 3.601 1.855 6.853 4.79 8.673v3.825H39.1c-6.76 0-12.471 6.692-12.471 14.614v1.073a.663.663 0 0 0 .66.67zm33.928-1.749v.407H45.3V57.764a8.611 8.611 0 0 0 3.77-1.247l.293-.18h.707c5.938 0 11.146 6.201 11.146 13.27zM37.712 37h9.143c-3.795 2.84-9.172 4.119-10.987 4.487A8.904 8.904 0 0 1 37.712 37zm11.21.012l.008-.013h2.365a8.896 8.896 0 0 1 1.889 5.017c-2.788-.128-5.267-2.333-6.302-3.398a15.888 15.888 0 0 0 2.04-1.606zM34.233 26.126a3.767 3.767 0 0 1 2.784-3.596 3.49 3.49 0 0 1 1.885.018.66.66 0 0 0 .8-.426c.644-1.874 2.387-3.135 4.339-3.135 1.598 0 3.058.84 3.89 2.185a5.04 5.04 0 0 0-2.338 2.075.677.677 0 0 0 .233.92.651.651 0 0 0 .905-.237c.818-1.403 2.214-1.705 2.272-1.718.012-.002.02-.01.03-.012.013-.004.025-.001.036-.005a4.56 4.56 0 0 1 2.01-.16c2.039.29 3.684 2.007 3.912 4.083.256 2.32-1.165 4.442-3.378 5.044a.668.668 0 0 0-.49.648v3.848H38.131v-5.121a.667.667 0 0 0-.594-.668c-1.895-.196-3.316-1.805-3.304-3.743zm1.585 16.739c1.328-.247 5.918-1.223 9.908-3.527 1.008 1.09 3.926 3.874 7.435 4.02-.33 3.459-2.626 6.422-5.898 7.517-2.933.79-5.465.015-5.48.011-3.461-1.158-5.817-4.353-5.965-8.021zm5.56 9.297c.078.025 1.316.409 3.11.409.93 0 2.007-.103 3.151-.412.301-.1.593-.219.879-.345v3.474l-.132.082a7.274 7.274 0 0 1-7.622.02l-.17-.104v-3.425a9.7 9.7 0 0 0 .785.301zM27.95 69.611c0-7.071 5.21-13.273 11.15-13.273h.651l.334.203a8.604 8.604 0 0 0 3.895 1.24v12.232h-16.03v-.402zm11.756-7.83h1.373c.366 0 .66-.301.66-.672 0-.37-.294-.67-.66-.67h-1.373c-.366 0-.661.3-.661.67 0 .37.295.671.66.671zm1.373 2.223h-1.373c-.366 0-.661.3-.661.67 0 .371.295.672.66.672h1.374c.366 0 .66-.3.66-.671 0-.37-.294-.67-.66-.67zm7.009-3.565h1.374c.365 0 .66.3.66.67 0 .37-.295.671-.66.671h-1.374c-.365 0-.66-.3-.66-.67 0-.37.295-.671.66-.671zm1.374 3.565c.365 0 .66.3.66.67 0 .371-.295.672-.66.672h-1.374c-.365 0-.66-.3-.66-.671 0-.37.295-.67.66-.67h1.374z"/>
    </g>
</svg>
