<svg width="133" height="92" viewBox="0 0 133 92" fill="none" xmlns="http://www.w3.org/2000/svg">
<g clip-path="url(#clip0)">
<ellipse cx="66" cy="42.3839" rx="42" ry="41.6482" fill="#DD2930" fill-opacity="0.08"/>
<path d="M32.0058 85.9139L34.6657 82.6799L37.2849 85.9139L39.9448 82.6799L42.564 85.9139L45.2239 82.6799L47.8431 85.9139L50.503 82.6799L53.1222 85.9139L55.782 82.6799L58.4019 85.9139L61.0618 82.6799L63.681 85.9139L66.3409 82.6799L68.9601 85.9139L71.6199 82.6799L74.2391 85.9139L76.899 82.6799L79.5182 85.9139L82.1781 82.6799L84.7973 85.9139L87.4572 82.6799L90.0764 85.9139L92.7363 82.6799L95.3484 85.9049V7.0462H32V85.9139H32.0058Z" fill="#E14D43"/>
<rect x="38" y="16.7419" width="20" height="2" fill="#FFD200"/>
<rect x="38" y="21.7419" width="25" height="2" fill="#FFD200"/>
<rect x="38" y="31.7419" width="25" height="2" fill="#FFD200"/>
<rect x="38" y="36.7419" width="16" height="2" fill="#FFD200"/>
<rect x="38" y="41.7419" width="19" height="2" fill="#FFD200"/>
<rect x="38" y="51.7419" width="20" height="2" fill="#FFD200"/>
<rect x="38" y="56.7419" width="20" height="2" fill="#FFD200"/>
<rect x="78" y="56.7419" width="11" height="2" fill="#FFD200"/>
<rect x="78" y="51.7419" width="11" height="2" fill="#FFD200"/>
<path d="M80.2701 44.4295C68.0661 44.4295 58.1377 34.5842 58.1377 22.4825C58.1377 10.3807 68.0661 0.535461 80.2701 0.535461C92.474 0.535461 102.402 10.3807 102.402 22.4825C102.402 34.5842 92.4734 44.4295 80.2701 44.4295Z" fill="#272A33"/>
<path d="M94.6097 36.7031C102.53 28.8496 102.53 16.1164 94.6096 8.26281C86.6897 0.409236 73.849 0.409236 65.9291 8.26281C58.0092 16.1164 58.0092 28.8496 65.9291 36.7031C73.849 44.5567 86.6897 44.5567 94.6097 36.7031Z" fill="#F5F5F5"/>
<path d="M88.1844 30.5586C87.9241 30.5586 87.6606 30.4933 87.419 30.3549L78.2373 25.1041V11.1929C78.2373 10.3519 78.9252 9.66974 79.7733 9.66974C80.6214 9.66974 81.3093 10.3519 81.3093 11.1929V23.3439L88.9537 27.716C89.6888 28.1362 89.9407 29.0675 89.517 29.7958C89.2321 30.2851 88.7154 30.5586 88.1844 30.5586Z" fill="#3F4140"/>
</g>
<defs>
<clipPath id="clip0">
<rect width="133" height="92" fill="white"/>
</clipPath>
</defs>
</svg>
