<svg width="133" height="92" viewBox="0 0 133 92" fill="none" xmlns="http://www.w3.org/2000/svg">
<circle cx="67" cy="46" r="42" fill="#DD2930" fill-opacity="0.08"/>
<g clip-path="url(#clip0)">
<path d="M79.6812 45.4594C80.6708 44.5235 77.6015 39.0559 73.5571 35.102C69.2176 30.8592 63.1214 27.7374 61.9865 28.9678C61.4579 29.5411 62.1273 30.9263 62.7923 32.3014C63.9719 34.7416 66.093 37.631 72.9033 42.0392C77.0175 44.7017 79.0744 46.0333 79.6812 45.4594Z" fill="#F4BD92"/>
<path d="M89.8258 66.7029C85.2674 70.1701 80.7083 73.6367 76.1498 77.1039C76.0442 77.0162 75.9392 76.929 75.8347 76.8419C66.2802 68.8693 63.4282 63.1497 63.1667 59.0846C63.1192 58.347 63.1572 57.6636 63.2556 57.0311C63.2779 56.8858 63.3047 56.7428 63.3327 56.6025C64.8045 49.4401 75.4363 41.6614 75.4363 41.6614C75.1899 40.8529 74.9434 40.0449 74.6976 39.2364C73.4716 37.5081 71.6042 35.3015 68.888 33.2787C67.4 32.1712 65.9612 31.3443 64.6911 30.7246C64.3547 30.7441 64.0183 30.7631 63.6819 30.7827C60.3969 30.971 57.1119 31.1604 53.8268 31.3498C53.2088 31.3856 52.5908 31.4208 51.9728 31.4566C47.2428 32.3467 43.7912 31.6879 43.2962 30.1786C42.8341 28.7711 45.0116 26.8232 45.7246 26.2203L51.8856 25.0865L57.1314 24.121L63.5886 22.933C65.2001 22.6369 66.8636 22.8766 68.3231 23.622C70.4364 24.7015 72.6134 25.8761 74.8395 27.1551C77.354 28.6007 79.7243 30.0607 81.9522 31.513C83.3547 32.4266 84.3918 33.7766 84.9259 35.3283C85.2193 36.1821 85.283 36.8756 85.3009 37.0834C85.5132 39.4459 87.2236 50.4912 89.8258 66.7029Z" fill="#F9C99D"/>
<path d="M34.2605 4.38177L62.8719 11.9766C64.494 12.4074 65.4596 14.0709 65.0293 15.693L60.905 31.2303C60.4742 32.8524 58.8107 33.818 57.1886 33.3877L28.5772 25.7929C26.955 25.3621 25.9895 23.6986 26.4197 22.0765L30.544 6.5392C30.9749 4.91708 32.6389 3.95152 34.2605 4.38177Z" fill="#3F4140"/>
<path d="M31.4194 10.2197L31.1738 11.1448L38.1843 13.006L38.4299 12.0809L31.4194 10.2197Z" fill="#FDC055"/>
<path d="M31.1241 11.3339L30.8975 12.1877L33.6085 12.9075L33.8352 12.0537L31.1241 11.3339Z" fill="#FDC055"/>
<path d="M35.423 12.4747L35.1963 13.3286L37.9074 14.0483L38.1341 13.1945L35.423 12.4747Z" fill="#FDC055"/>
<path d="M30.8463 12.3756L30.6201 13.2278L33.3312 13.9473L33.5574 13.0951L30.8463 12.3756Z" fill="#FDC055"/>
<path d="M35.1451 13.5171L34.9189 14.3693L37.63 15.0888L37.8562 14.2366L35.1451 13.5171Z" fill="#FDC055"/>
<path d="M30.57 13.4187L30.3438 14.2709L33.0548 14.9907L33.2811 14.1385L30.57 13.4187Z" fill="#FDC055"/>
<path d="M34.0484 12.1096L33.2686 15.0469L34.4308 15.3555L35.2106 12.4181L34.0484 12.1096Z" fill="#FDC055"/>
<path d="M34.8698 14.5601L34.6436 15.4123L37.3546 16.1321L37.5809 15.2799L34.8698 14.5601Z" fill="#FDC055"/>
<path d="M30.2942 14.4597L30.0615 15.3362L37.072 17.1975L37.3047 16.321L30.2942 14.4597Z" fill="#FDC055"/>
<path d="M35.8138 21.1226L29.2057 19.3687C29.0945 19.339 29.0286 19.2251 29.0576 19.1139L29.3784 17.9058C29.408 17.7946 29.522 17.7287 29.6332 17.7577L36.2412 19.5117C36.3524 19.5413 36.4184 19.6553 36.3893 19.7665L36.0686 20.9746C36.039 21.0863 35.925 21.1523 35.8138 21.1226Z" fill="white"/>
<path d="M43.8196 23.2476L37.2116 21.4937C37.1004 21.464 37.0344 21.35 37.0635 21.2389L37.3842 20.0308C37.4138 19.9196 37.5278 19.8537 37.639 19.8827L44.2471 21.6367C44.3583 21.6663 44.4242 21.7803 44.3952 21.8915L44.0744 23.0996C44.0448 23.2113 43.9308 23.2773 43.8196 23.2476Z" fill="white"/>
<path d="M51.8255 25.3726L45.2174 23.6187C45.1062 23.589 45.0403 23.475 45.0694 23.3639L45.3901 22.1558C45.4197 22.0446 45.5337 21.9787 45.6449 22.0077L52.253 23.7617C52.3641 23.7913 52.4301 23.9053 52.401 24.0165L52.0803 25.2246C52.0507 25.3358 51.9361 25.4023 51.8255 25.3726Z" fill="white"/>
<path d="M59.8304 27.4977L53.2223 25.7437C53.1111 25.7141 53.0452 25.6001 53.0742 25.4889L53.395 24.2808C53.4246 24.1696 53.5386 24.1037 53.6498 24.1328L60.2578 25.8868C60.369 25.9164 60.435 26.0304 60.4059 26.1416L60.0852 27.3496C60.0556 27.4608 59.9416 27.5273 59.8304 27.4977Z" fill="white"/>
<path d="M43.2214 25.9454L28.3871 22.0078C28.3368 21.9944 28.3072 21.943 28.3206 21.8927L28.4653 21.3479C28.4787 21.2976 28.5301 21.268 28.5804 21.2814L43.4148 25.219C43.4651 25.2325 43.4947 25.2839 43.4813 25.3341L43.3365 25.879C43.3231 25.9287 43.2717 25.9589 43.2214 25.9454Z" fill="white"/>
<path d="M36.2442 25.3777L28.0687 23.208C28.0185 23.1946 27.9888 23.1431 28.0022 23.0929L28.147 22.5481C28.1604 22.4978 28.2118 22.4681 28.2621 22.4816L36.4375 24.6518C36.4878 24.6652 36.5174 24.7167 36.504 24.7669L36.3593 25.3117C36.3453 25.3615 36.2939 25.3911 36.2442 25.3777Z" fill="white"/>
<path d="M58.57 34.8533C57.51 35.2093 57.3664 37.3276 57.3458 37.6304C57.2782 38.6239 57.4883 39.7722 59.1232 42.3828C60.9817 45.351 62.2295 47.343 63.1626 47.0888C64.2679 46.7882 64.6137 43.4266 63.8426 40.721C62.8899 37.3779 60.0391 34.3599 58.57 34.8533Z" fill="#F4BD92"/>
<path d="M57.6218 38.2021C56.5618 38.558 56.4182 40.6763 56.3975 40.9792C56.3299 41.9727 56.54 43.121 58.175 45.7316C60.0335 48.6998 61.2812 50.6918 62.2144 50.4376C63.3196 50.1369 63.6655 46.7754 62.8944 44.0698C61.9411 40.7272 59.0903 37.7093 57.6218 38.2021Z" fill="#F4BD92"/>
<path d="M57.7224 42.9171C56.6624 43.273 56.5188 45.3913 56.4981 45.6942C56.4305 46.6877 56.6406 47.8359 58.2756 50.4465C60.1341 53.4147 61.3818 55.4068 62.3149 55.1525C63.4202 54.8519 63.7661 51.4903 62.995 48.7847C62.0423 45.4416 59.1914 42.4237 57.7224 42.9171Z" fill="#F4BD92"/>
<path d="M79.1575 45.3264C75.8809 46.3971 68.5442 49.3457 64.6937 56.5846C64.3735 57.1875 64.093 57.7888 63.8499 58.3828C63.6264 58.9264 63.4342 59.4651 63.2677 59.9954C63.247 59.8138 63.2124 59.5009 63.1671 59.084C63.0861 58.3325 62.9721 57.2451 62.8503 55.9879C62.6687 54.1053 62.4709 51.8429 62.3429 49.7609C62.2876 48.8506 62.1552 47.3671 62.1552 45.3929C62.1557 44.0055 62.2267 43.3869 62.1328 42.7002C62.1328 42.7002 62.0389 42.1453 61.8546 41.5631C61.1572 39.3498 58.479 36.4162 58.2097 36.1251C57.8582 35.7261 57.2771 35.0735 56.5468 34.2795C55.3856 33.0183 54.5162 32.1276 53.8278 31.3498C52.9879 30.3999 52.4191 29.6176 51.9268 28.5347C51.3636 27.2954 51.2803 26.5008 51.5161 25.7939C51.6083 25.519 51.7402 25.2855 51.8866 25.0871C52.1459 24.7362 52.4476 24.4981 52.6398 24.345C52.8315 24.1925 54.0323 23.2666 55.5572 23.4409C56.1182 23.5052 56.5915 23.7265 57.1329 24.1215C57.5973 24.4618 58.1108 24.9306 58.774 25.5391C59.7837 26.4667 60.5359 27.3211 61.0332 27.9285C61.0332 27.9285 62.1988 29.2108 63.6829 30.7832C65.8386 33.0664 68.6671 35.9636 69.5841 36.4475C70.4161 36.8862 73.1155 39.4146 75.4367 41.6614C77.4376 43.5987 79.1575 45.3264 79.1575 45.3264Z" fill="#F9C99D"/>
<path d="M77.133 75.5231C77.1727 75.6427 77.2855 75.9785 77.1347 76.278C76.9005 76.7446 76.1792 76.8251 75.8344 76.8418C66.2799 68.8693 63.4279 63.1496 63.1664 59.0846C63.0854 58.333 62.9714 57.2456 62.8496 55.9884C62.9742 56.3287 63.1094 56.6768 63.2553 57.0311C63.2553 57.0311 63.5252 57.6882 63.8493 58.3833C64.0811 58.8801 65.919 62.6948 67.4617 64.9461C70.4819 69.3515 76.6066 73.9496 77.133 75.5231Z" fill="#F4BA8E"/>
<path d="M55.9392 24.2473C57.6943 24.6529 58.7772 26.65 58.3827 27.8139C58.2637 28.1643 57.7004 28.5917 56.5728 29.4466C55.3363 30.3843 55.0535 30.4295 54.8496 30.4295C53.9477 30.4295 53.2917 29.5428 52.9442 29.0728C52.5905 28.5945 51.9037 27.6658 52.0887 26.6019C52.3457 25.1229 54.2048 23.8466 55.9392 24.2473Z" fill="#F9E1D7"/>
<path d="M107.912 87.9022L107.767 88H73.2135C72.3949 86.2807 71.5757 84.5624 70.7577 82.8431C70.1285 81.5238 69.5004 80.2045 68.8729 78.8853C68.6941 78.5109 68.7992 78.0834 69.1182 77.8879L69.5507 77.6225L70.9935 76.7357C71.3489 76.5178 71.7042 76.2993 72.0596 76.0814L73.2375 75.3583L73.2392 75.3577L73.7493 75.0437L74.5953 74.5246L74.6875 74.4676L76.9254 73.0919C76.9467 73.0791 76.9668 73.0657 76.988 73.0534C77.4512 72.7678 77.915 72.4834 78.3782 72.199L80.6111 70.8278L82.07 69.9309L83.1943 69.2397L84.2979 68.5625L85.7624 67.6629L87.9835 66.2978L89.4531 65.3942L89.6018 65.3032L91.0892 64.3896L91.6692 64.0336L93.1449 63.1267L93.5573 62.8736C93.925 62.6479 94.4318 62.8144 94.6575 63.2363L94.7458 63.4005L96.6658 66.975C98.4376 70.2707 100.208 73.5674 101.98 76.8631C103.957 80.542 105.935 84.2221 107.912 87.9022Z" fill="#E14D43"/>
<path d="M89.6688 88H73.2135C72.3949 86.2807 71.5757 84.5625 70.7577 82.8431C70.1285 81.5238 69.5004 80.2046 68.8729 78.8853C68.6941 78.5109 68.7992 78.0835 69.1182 77.8879L69.5507 77.6225L70.9935 76.7357C71.3489 76.5178 71.7042 76.2993 72.0596 76.0814C72.6223 75.7355 73.1855 75.3896 73.7482 75.0432C74.0299 74.8705 74.3126 74.6973 74.5942 74.5241C75.3715 74.0463 76.1476 73.5691 76.9249 73.0925C76.9461 73.0797 76.9662 73.0662 76.9874 73.054C77.4507 72.7684 77.9144 72.484 78.3777 72.1996C78.8733 72.893 79.3684 73.587 79.864 74.2799C83.1323 78.8529 86.4011 83.4259 89.6688 88Z" fill="#E14D43"/>
</g>
<defs>
<clipPath id="clip0">
<rect width="81.5938" height="83.72" fill="white" transform="translate(26.3184 4.28003)"/>
</clipPath>
</defs>
</svg>
