<svg width="133" height="92" viewBox="0 0 133 92" fill="none" xmlns="http://www.w3.org/2000/svg">
<circle cx="79" cy="46" r="42" fill="#DD2930" fill-opacity="0.08"/>
<g clip-path="url(#clip0)">
<path d="M104.804 29.6249H18.0781V87.986H104.804V29.6249Z" fill="#E14D43"/>
<path d="M107.869 85.4418H15V88H107.869V85.4418Z" fill="#3F4140"/>
<path d="M107.292 29.6249H15.5762L24.9516 9.18726H97.917L107.292 29.6249Z" fill="#E14D43"/>
<path d="M107.293 29.6249L97.9175 9.18726H61.4277V29.6249H107.293Z" fill="#E14D43"/>
<path d="M46.9352 38.8597H22.8008V88H46.9352V38.8597Z" fill="#BE3C00"/>
<path d="M99.7721 41.2774H51.6299V73.5222H99.7721V41.2774Z" fill="#BEF5FA"/>
<path d="M65.7991 73.5784L63.2409 71.0202L61.2027 68.982C61.2027 68.9118 61.1887 68.8274 61.1887 68.7431H61.2308C60.1344 67.97 59.4316 66.7049 59.4316 65.2712C59.4316 62.9238 61.3292 61.0122 63.6906 61.0122C64.7167 61.0122 65.6726 61.3777 66.4035 61.9821L66.4738 62.0524L66.9095 62.4881L66.9798 62.5584L75.4416 71.0342L77.9998 73.5924H65.7991V73.5784Z" fill="#B4EBF0"/>
<path d="M44.5319 41.2774H25.3594V73.5222H44.5319V41.2774Z" fill="#BEF5FA"/>
<g opacity="0.5">
<path opacity="0.5" d="M37.4758 73.5222H31.1505L25.3594 67.717V61.4058L37.4758 73.5222Z" fill="white"/>
</g>
<g opacity="0.5">
<path opacity="0.5" d="M44.5178 47.9681V57.6106L28.1846 41.2774H37.8271L44.5178 47.9681Z" fill="white"/>
</g>
<path d="M101.895 73.5222H49.4941V76.0804H101.895V73.5222Z" fill="#BE3C00"/>
<path d="M101.895 39.0003H49.4941L53.7531 34.4601H97.6364L101.895 39.0003Z" fill="#FFD200"/>
<path d="M90.3971 6.98047H82.1602V15.2174H90.3971V6.98047Z" fill="#272A33"/>
<g opacity="0.5">
<path opacity="0.5" d="M99.758 47.9681V57.6106L83.4248 41.2774H93.0673L99.758 47.9681Z" fill="white"/>
</g>
<path d="M92.0978 3.85999H80.4453V6.98045H92.0978V3.85999Z" fill="#BE3C00"/>
<path d="M99.7721 56.9781H51.6299V57.8356H99.7721V56.9781Z" fill="#BE3C00"/>
<path d="M76.1299 41.2774H75.2725V73.5222H76.1299V41.2774Z" fill="#BE3C00"/>
<path d="M88.4707 41.2774H87.6133V73.5222H88.4707V41.2774Z" fill="#BE3C00"/>
<path d="M64.126 41.2774H63.2686V73.5222H64.126V41.2774Z" fill="#BE3C00"/>
<path d="M44.5181 56.9781H25.0645V57.8356H44.5181V56.9781Z" fill="#BE3C00"/>
<path d="M35.3672 41.2774H34.5098V73.5222H35.3672V41.2774Z" fill="#BE3C00"/>
<path d="M101.937 39.0003H49.5361V43.5404H101.937V39.0003Z" fill="#FFD200"/>
<path d="M36.7167 74.8997H25.3594V77.4579H36.7167V74.8997Z" fill="#FFD200"/>
<path d="M99.7588 70.9921V73.5222H90.1022L87.6002 71.0202L85.5621 68.982C85.5621 68.9118 85.548 68.8274 85.548 68.7431H85.5902C84.4938 67.97 83.791 66.7049 83.791 65.2712C83.791 62.9238 85.6886 61.0122 88.05 61.0122C89.0761 61.0122 90.0319 61.3777 90.7629 61.9821L90.8331 62.0524L91.2689 62.4881L91.3392 62.5724L99.7588 70.9921Z" fill="#B4EBF0"/>
<g opacity="0.5">
<path opacity="0.5" d="M63.7463 73.5222H57.421L51.6299 67.717V61.4058L63.7463 73.5222Z" fill="white"/>
</g>
<path d="M67.9497 65.2572C67.9497 66.6909 67.2469 67.956 66.1505 68.729C65.4477 69.221 64.6043 69.5162 63.6906 69.5162C62.777 69.5162 61.9196 69.221 61.2308 68.729C60.1344 67.956 59.4316 66.6909 59.4316 65.2572C59.4316 62.9098 61.3292 60.9982 63.6906 60.9982C64.7167 60.9982 65.6726 61.3636 66.4035 61.968L66.4738 62.0383C66.6284 62.1789 66.7689 62.3194 66.9095 62.4741L66.9798 62.5443C67.5842 63.2753 67.9497 64.217 67.9497 65.2572Z" fill="#006400"/>
<path d="M64.126 63.5423H63.2686V70.219H64.126V63.5423Z" fill="#3C1E1E"/>
<path d="M63.3674 68.715L61.1465 66.4801L61.7368 65.8897L63.9718 68.1106L63.3674 68.715Z" fill="#3C1E1E"/>
<path d="M63.9716 66.9579L63.3672 66.3535L65.3772 64.3435L65.9816 64.9479L63.9716 66.9579Z" fill="#3C1E1E"/>
<path d="M66.1925 68.7291C66.1222 69.6849 66.0519 70.4158 65.9957 71.1467C65.9394 71.8776 65.8832 72.5804 65.7989 73.5503V73.5644H61.582C61.4977 72.5945 61.4415 71.8636 61.3853 71.1467C61.329 70.4861 61.2728 69.8254 61.2025 68.968C61.2025 68.8977 61.1885 68.8134 61.1885 68.7291H66.1925Z" fill="#DC5000"/>
<path d="M92.309 65.2572C92.309 66.6909 91.6062 67.956 90.5099 68.729C89.807 69.221 88.9637 69.5162 88.05 69.5162C87.1364 69.5162 86.279 69.221 85.5902 68.729C84.4938 67.956 83.791 66.6909 83.791 65.2572C83.791 62.9098 85.6886 60.9982 88.05 60.9982C89.0761 60.9982 90.0319 61.3636 90.7629 61.968L90.8331 62.0383C90.9878 62.1789 91.1283 62.3194 91.2689 62.4741L91.3392 62.5443C91.9436 63.2753 92.309 64.217 92.309 65.2572Z" fill="#006400"/>
<path d="M88.4717 63.5423H87.6143V70.219H88.4717V63.5423Z" fill="#3C1E1E"/>
<path d="M86.0908 65.8793L85.4844 66.4854L87.7101 68.7124L88.3166 68.1063L86.0908 65.8793Z" fill="#3C1E1E"/>
<path d="M88.3163 66.9579L87.7119 66.3535L89.736 64.3435L90.3404 64.9479L88.3163 66.9579Z" fill="#3C1E1E"/>
<path d="M90.5382 68.7291C90.4679 69.6849 90.3976 70.4158 90.3414 71.1467C90.2852 71.8776 90.2289 72.5804 90.1446 73.5503V73.5644H85.9277C85.8434 72.5945 85.7872 71.8636 85.731 71.1467C85.6747 70.4861 85.6185 69.8254 85.5482 68.968C85.5482 68.8977 85.5342 68.8134 85.5342 68.7291H90.5382Z" fill="#DC5000"/>
<path d="M53.1628 39.0003H49.4941V43.5404H53.1628V39.0003Z" fill="#DC5000"/>
<path d="M60.1208 39.0003H56.4521V43.5404H60.1208V39.0003Z" fill="#DC5000"/>
<path d="M67.0925 39.0003H63.4238V43.5404H67.0925V39.0003Z" fill="#DC5000"/>
<path d="M74.0505 39.0003H70.3818V43.5404H74.0505V39.0003Z" fill="#DC5000"/>
<path d="M81.0075 39.0003H77.3389V43.5404H81.0075V39.0003Z" fill="#DC5000"/>
<path d="M87.9661 39.0003H84.3115V43.5404H87.9661V39.0003Z" fill="#DC5000"/>
<path d="M94.9372 39.0003H91.2686V43.5404H94.9372V39.0003Z" fill="#DC5000"/>
<path d="M101.895 39.0003H98.2266V43.5404H101.895V39.0003Z" fill="#DC5000"/>
<path d="M101.852 39.0004C100.236 39.0004 98.6898 39.0004 97.1999 39.0004C95.7099 39.0004 94.2622 39.0004 92.8566 39.0004C91.4509 39.0004 90.1016 39.0004 88.7662 39.0004C87.4449 39.0004 86.1518 39.0004 84.8867 39.0004C83.6217 39.0004 82.3707 39.0004 81.1478 39.0004C79.9249 39.0004 78.702 39.0004 77.4932 39.0004C76.2844 39.0004 75.0755 39.0004 73.8667 39.0004C72.6579 39.0004 71.4491 39.0004 70.2121 39.0004C68.9752 39.0004 67.7382 39.0004 66.4732 39.0004C65.2081 39.0004 63.915 39.0004 62.5937 39.0004C61.2724 39.0004 59.909 39.0004 58.5174 39.0004C57.1118 39.0004 55.6781 39.0004 54.1741 39.0004C52.6841 39.0004 51.1239 39.0004 49.5215 39.0004C49.8307 38.0867 50.0556 37.412 50.2805 36.7233C50.5054 36.0345 50.7444 35.3598 51.0395 34.4462C52.6841 34.4462 54.2584 34.4462 55.7765 34.4462C57.2945 34.4462 58.7564 34.4462 60.176 34.4462C61.5957 34.4462 62.9592 34.4462 64.2945 34.4462C65.6298 34.4462 66.937 34.4462 68.2021 34.4462C69.4812 34.4462 70.7322 34.4462 71.9832 34.4462C73.2201 34.4462 74.4571 34.4462 75.694 34.4462C76.931 34.4462 78.1538 34.4462 79.4048 34.4462C80.6418 34.4462 81.9068 34.4462 83.1859 34.4462C84.465 34.4462 85.7723 34.4462 87.1076 34.4462C88.4429 34.4462 89.8064 34.4462 91.226 34.4462C92.6457 34.4462 94.0935 34.4462 95.6116 34.4462C97.1296 34.4462 98.7039 34.4462 100.348 34.4462C100.658 35.3598 100.883 36.0345 101.108 36.7233C101.332 37.412 101.557 38.1008 101.852 39.0004Z" fill="#FFB400"/>
<path d="M53.1761 39.0004C51.7142 39.0004 50.9833 39.0004 49.5215 39.0004C49.8307 38.0867 50.0556 37.412 50.2805 36.7233C50.5054 36.0345 50.7444 35.3598 51.0395 34.4462C52.417 34.4462 53.1058 34.4462 54.4833 34.4462C54.2162 35.3598 54.0194 36.0345 53.8227 36.7233C53.6399 37.412 53.4431 38.1008 53.1761 39.0004Z" fill="#DC5000"/>
<path d="M60.1341 39.0004C58.6723 39.0004 57.9413 39.0004 56.4795 39.0004C56.7044 38.0867 56.8731 37.412 57.0417 36.7233C57.2104 36.0486 57.3791 35.3598 57.604 34.4462C58.9815 34.4462 59.6702 34.4462 61.0477 34.4462C60.865 35.3598 60.7244 36.0345 60.5979 36.7233C60.4433 37.412 60.3168 38.1008 60.1341 39.0004Z" fill="#DC5000"/>
<path d="M67.0778 39.0004C65.616 39.0004 64.8851 39.0004 63.4092 39.0004C63.5497 38.0867 63.6622 37.412 63.7606 36.7233C63.873 36.0345 63.9714 35.3598 64.112 34.4462C65.4895 34.4462 66.1782 34.4462 67.5557 34.4462C67.4573 35.3598 67.3871 36.0345 67.3027 36.7233C67.2606 37.412 67.1903 38.1008 67.0778 39.0004Z" fill="#DC5000"/>
<path d="M74.0355 39.0004C72.5736 39.0004 71.8427 39.0004 70.3809 39.0004C70.4371 38.0867 70.4933 37.412 70.5355 36.7233C70.5776 36.0345 70.6339 35.3598 70.6901 34.4462C72.0676 34.4462 72.7563 34.4462 74.1338 34.4462C74.1198 35.3598 74.1057 36.0345 74.0917 36.7233C74.0636 37.412 74.0636 38.1008 74.0355 39.0004Z" fill="#DC5000"/>
<path d="M80.9932 39.0004C79.5314 39.0004 78.8005 39.0004 77.3386 39.0004C77.3246 38.0867 77.2965 37.412 77.2824 36.7233C77.2684 36.0345 77.2543 35.3598 77.2402 34.4462C78.6177 34.4462 79.3065 34.4462 80.684 34.4462C80.7402 35.3598 80.7964 36.0345 80.8386 36.7233C80.8808 37.412 80.937 38.1008 80.9932 39.0004Z" fill="#DC5000"/>
<path d="M87.9507 39.0004C86.4888 39.0004 85.7579 39.0004 84.2961 39.0004C84.1977 38.0867 84.1133 37.412 84.043 36.7233C83.9728 36.0345 83.8884 35.3598 83.79 34.4462C85.1675 34.4462 85.8563 34.4462 87.2338 34.4462C87.3744 35.3598 87.4868 36.0345 87.5852 36.7233C87.6976 37.412 87.8101 38.1008 87.9507 39.0004Z" fill="#DC5000"/>
<path d="M94.9087 39.0004C93.4468 39.0004 92.7159 39.0004 91.2541 39.0004C91.0714 38.0867 90.9308 37.412 90.8043 36.7233C90.6637 36.0345 90.5232 35.3598 90.3545 34.4462C91.732 34.4462 92.4207 34.4462 93.7982 34.4462C94.0231 35.3598 94.1918 36.0345 94.3605 36.7233C94.5151 37.412 94.6838 38.1008 94.9087 39.0004Z" fill="#DC5000"/>
<path d="M101.853 39.0004C100.391 39.0004 99.6601 39.0004 98.1982 39.0004C97.9312 38.0867 97.7344 37.412 97.5376 36.7233C97.3408 36.0345 97.144 35.3598 96.877 34.4462C98.2545 34.4462 98.9432 34.4462 100.321 34.4462C100.63 35.3598 100.855 36.0345 101.08 36.7233C101.333 37.412 101.558 38.1008 101.853 39.0004Z" fill="#DC5000"/>
<path d="M104.804 29.6249H18.0781V32.1128H104.804V29.6249Z" fill="#C52228"/>
</g>
<defs>
<clipPath id="clip0">
<rect width="92.8689" height="84.14" fill="white" transform="translate(12 3.85999)"/>
</clipPath>
</defs>
</svg>
