<svg xmlns="http://www.w3.org/2000/svg" width="45" height="33" viewBox="0 0 43 33">
    <g fill="none" fill-rule="evenodd" stroke-linecap="round" stroke-linejoin="round">
        <g stroke="#000" stroke-width="1.5">
            <g>
                <g>
                    <g>
                        <g transform="translate(-511.000000, -719.000000) translate(105.000000, 613.000000) translate(0.000000, 82.000000) translate(387.000000, 0.000000) translate(19.000000, 24.000000)">
                            <circle cx="8.5" cy="5.667" r="5.667"/>
                            <path d="M13.2 15.583c-2.61-1.731-5.96-1.887-8.72-.407C1.722 16.657 0 19.536 0 22.666M41.083 22.667c0-3.132-1.721-6.01-4.48-7.49-2.76-1.481-6.11-1.325-8.72.406"/>
                            <circle cx="32.583" cy="5.667" r="5.667"/>
                            <path d="M26.917 5.667s0 7.083-4.25 7.083M38.25 5.667s0 7.083 4.25 7.083"/>
                            <circle cx="19.833" cy="22.667" r="4.25"/>
                            <path d="M27.194 32.583c-1.518-2.628-4.324-4.248-7.36-4.248-3.036 0-5.841 1.62-7.36 4.248"/>
                        </g>
                    </g>
                </g>
            </g>
        </g>
    </g>
</svg>
