<svg xmlns="http://www.w3.org/2000/svg" width="45" height="30" viewBox="0 0 30 30">
    <g fill="none" fill-rule="evenodd">
        <g fill="#000" fill-rule="nonzero">
            <g>
                <g>
                    <g>
                        <path d="M15 19c-2.21 0-4-1.79-4-4s1.79-4 4-4 4 1.79 4 4c-.003 2.208-1.792 3.997-4 4zm0-6c-1.105 0-2 .895-2 2s.895 2 2 2 2-.895 2-2c-.001-1.104-.896-1.999-2-2zM4 19c-2.21 0-4-1.79-4-4s1.79-4 4-4 4 1.79 4 4c-.003 2.208-1.792 3.997-4 4zm0-6c-1.105 0-2 .895-2 2s.895 2 2 2 2-.895 2-2c-.001-1.104-.896-1.999-2-2zM9 30c-2.21 0-4-1.79-4-4s1.79-4 4-4 4 1.79 4 4c-.003 2.208-1.792 3.997-4 4zm0-6c-1.105 0-2 .895-2 2s.895 2 2 2 2-.895 2-2c-.001-1.104-.896-1.999-2-2zM21 30c-2.21 0-4-1.79-4-4s1.79-4 4-4 4 1.79 4 4c-.003 2.208-1.792 3.997-4 4zm0-6c-1.105 0-2 .895-2 2s.895 2 2 2 2-.895 2-2c-.001-1.104-.896-1.999-2-2zM26 19c-2.21 0-4-1.79-4-4s1.79-4 4-4 4 1.79 4 4c-.003 2.208-1.792 3.997-4 4zm0-6c-1.105 0-2 .895-2 2s.895 2 2 2 2-.895 2-2c-.001-1.104-.896-1.999-2-2zM21 8c-2.21 0-4-1.79-4-4s1.79-4 4-4 4 1.79 4 4c-.003 2.208-1.792 3.997-4 4zm0-6c-1.105 0-2 .895-2 2s.895 2 2 2 2-.895 2-2c-.001-1.104-.896-1.999-2-2zM9 8C6.79 8 5 6.21 5 4s1.79-4 4-4 4 1.79 4 4c-.003 2.208-1.792 3.997-4 4zm0-6c-1.105 0-2 .895-2 2s.895 2 2 2 2-.895 2-2c-.001-1.104-.896-1.999-2-2z" transform="translate(-130.000000, -720.000000) translate(105.000000, 613.000000) translate(0.000000, 82.000000) translate(25.000000, 25.000000)"/>
                    </g>
                </g>
            </g>
        </g>
    </g>
</svg>
