<svg xmlns="http://www.w3.org/2000/svg" width="45" height="29" viewBox="0 0 37 29">
    <g fill="none" fill-rule="evenodd" stroke-linecap="round" stroke-linejoin="round">
        <g stroke="#000" stroke-width="1.5">
            <g>
                <g>
                    <g>
                        <g>
                            <path d="M.062 27.808L36.5 27.808M14.637 27.808L2.492 27.808 2.492 12.019 14.637 9.591zM34.072 27.808L14.637 27.808 14.637 1.09 34.072 9.591z" transform="translate(-901.000000, -721.000000) translate(105.000000, 613.000000) translate(0.000000, 82.000000) translate(774.000000, 0.000000) translate(22.000000, 26.000000)"/>
                            <path d="M19.496 8.984c.16 0 .315.064.429.178.114.113.178.268.178.429M18.888 9.59c0-.335.273-.606.608-.606M19.496 10.199c-.336 0-.608-.272-.608-.608" transform="translate(-901.000000, -721.000000) translate(105.000000, 613.000000) translate(0.000000, 82.000000) translate(774.000000, 0.000000) translate(22.000000, 26.000000)"/>
                            <path d="M20.103 9.59c0 .162-.064.317-.178.43-.113.115-.268.179-.43.179M29.213 27.808h-9.717v-7.287c0-1.344 1.09-2.433 2.433-2.433h4.867c1.344 0 2.433 1.09 2.433 2.433l-.016 7.287zM0 12.519L14.637 9.591M12.147 0L36.494 10.65M29.213 7.451L29.213 1.09 34.072 1.09 34.072 9.591" transform="translate(-901.000000, -721.000000) translate(105.000000, 613.000000) translate(0.000000, 82.000000) translate(774.000000, 0.000000) translate(22.000000, 26.000000)"/>
                        </g>
                    </g>
                </g>
            </g>
        </g>
    </g>
</svg>
