<svg xmlns="http://www.w3.org/2000/svg" width="45" height="22" viewBox="0 0 33 22">
    <g fill="none" fill-rule="evenodd" stroke-linecap="round" stroke-linejoin="round">
        <g stroke="#000" stroke-width="1.5">
            <g>
                <g>
                    <g>
                        <g>
                            <path d="M28.807 7.468l-2.419-5.391c-.468-1.25-1.664-2.079-3-2.077H8.62c-1.335-.002-2.531.826-3 2.077L3.201 7.468M1.067 17.025v2.18c0 1.178.955 2.133 2.134 2.133 1.178 0 2.134-.955 2.134-2.133V17.07M30.94 17.025v2.18c0 1.178-.955 2.133-2.133 2.133-1.179 0-2.134-.955-2.134-2.133V17.07M27.206 11.736c.295 0 .534.239.534.534M26.673 12.27c0-.295.239-.534.533-.534M27.206 12.803c-.294 0-.533-.239-.533-.533M27.74 12.27c0 .294-.239.533-.534.533M4.801 11.736c-.294 0-.533.239-.533.534M5.335 12.27c0-.295-.24-.534-.534-.534M4.801 12.803c.295 0 .534-.239.534-.533M4.268 12.27c0 .294.239.533.533.533" transform="translate(-258.000000, -725.000000) translate(105.000000, 613.000000) translate(0.000000, 82.000000) translate(129.000000, 0.000000) translate(24.000000, 30.000000)"/>
                            <path d="M2.845 7.468h26.317c1.572 0 2.846 1.274 2.846 2.846v5.334c0 .786-.637 1.423-1.423 1.423H1.423C.637 17.07 0 16.434 0 15.648v-5.334c0-1.572 1.274-2.846 2.845-2.846z" transform="translate(-258.000000, -725.000000) translate(105.000000, 613.000000) translate(0.000000, 82.000000) translate(129.000000, 0.000000) translate(24.000000, 30.000000)"/>
                        </g>
                    </g>
                </g>
            </g>
        </g>
    </g>
</svg>
