<svg xmlns="http://www.w3.org/2000/svg" width="45" height="31" viewBox="0 0 31 31">
    <g fill="none" fill-rule="evenodd" stroke-linecap="round" stroke-linejoin="round">
        <g stroke="#000" stroke-width="1.5">
            <g>
                <g>
                    <g>
                        <g transform="translate(-1033.000000, -717.000000) translate(105.000000, 613.000000) translate(0.000000, 82.000000) translate(903.000000, 0.000000) translate(25.000000, 22.000000)">
                            <path d="M20.333 10.167V9.15c0-1.123-.91-2.033-2.033-2.033H2.033C.91 7.117 0 8.027 0 9.15v19.19c-.01 1.148.887 2.1 2.033 2.16h11.184"/>
                            <rect width="12.2" height="12.2" x="18.3" y="18.173" rx=".75"/>
                            <path d="M14.233 12.2V4.067C14.227 1.823 12.41.007 10.167 0h0C7.924.007 6.107 1.823 6.1 4.067V12.2M24.4 18.173L24.4 30.373M18.3 24.273L30.5 24.273M21.35 14.106L24.4 18.173M27.45 14.106L24.4 18.173"/>
                        </g>
                    </g>
                </g>
            </g>
        </g>
    </g>
</svg>
