<svg xmlns="http://www.w3.org/2000/svg" width="45" height="22" viewBox="0 0 37 22">
    <g fill="none" fill-rule="evenodd" stroke-linecap="round" stroke-linejoin="round">
        <g stroke="#000" stroke-width="1.5">
            <g>
                <g>
                    <g>
                        <g>
                            <path d="M31.27 14.558L23.012 16.19M21.87 4.857l-5.55 1.897c-.89.302-1.856-.133-2.249-1.011-.424-.942-.05-2.063.847-2.532L20.293.415c.926-.483 2.005-.547 2.979-.178l7.958 3.01" transform="translate(-1159.000000, -724.000000) translate(105.000000, 613.000000) translate(0.000000, 82.000000) translate(1032.000000, 0.000000) translate(22.000000, 29.000000)"/>
                            <path d="M4.697 14.572H8.61l5.62 6.514c.586.702 1.533.954 2.374.63.84-.323 1.399-1.152 1.4-2.08v-1.018l.28.116c.816.338 1.74.235 2.469-.275.728-.51 1.164-1.36 1.165-2.269h.782c.89 0 1.702-.52 2.1-1.343.398-.822.312-1.806-.221-2.543l-5.023-6.656M15.736 2.784l-.573-.489c-.577-.44-1.276-.676-1.993-.676-.427 0-.85.084-1.246.25L4.8 4.813" transform="translate(-1159.000000, -724.000000) translate(105.000000, 613.000000) translate(0.000000, 82.000000) translate(1032.000000, 0.000000) translate(22.000000, 29.000000)"/>
                            <path d="M0 1.997h3.2c.847-.036 1.562.642 1.6 1.516v10.62c-.038.875-.753 1.553-1.6 1.518H0M36.007 15.65h-3.2c-.847.036-1.562-.642-1.601-1.517V3.513c.039-.874.754-1.552 1.6-1.516h3.2M18.003 18.618L16.438 17M21.918 16.19L19.568 13.761" transform="translate(-1159.000000, -724.000000) translate(105.000000, 613.000000) translate(0.000000, 82.000000) translate(1032.000000, 0.000000) translate(22.000000, 29.000000)"/>
                        </g>
                    </g>
                </g>
            </g>
        </g>
    </g>
</svg>
