<svg xmlns="http://www.w3.org/2000/svg" width="45" height="33" viewBox="0 0 33 33">
    <g fill="none" fill-rule="evenodd" stroke-linecap="round" stroke-linejoin="round">
        <g stroke="#000" stroke-width="1.5">
            <g>
                <g>
                    <g>
                        <g transform="translate(-387.000000, -719.000000) translate(105.000000, 613.000000) translate(0.000000, 82.000000) translate(258.500000, 0.000000) translate(23.500000, 24.000000)">
                            <path d="M2.167 6.5L2.167 15.167M30.333 6.5L30.333 15.167"/>
                            <rect width="9.75" height="13" y="19.5" rx=".5"/>
                            <rect width="9.75" height="13" x="22.75" y="19.5" rx=".5"/>
                            <path d="M27.625 26c.3 0 .542.243.542.542M27.083 26.542c0-.3.243-.542.542-.542M27.625 27.083c-.3 0-.542-.242-.542-.541M28.167 26.542c0 .299-.243.541-.542.541M4.875 26c.3 0 .542.243.542.542M4.333 26.542c0-.3.243-.542.542-.542M4.875 27.083c-.3 0-.542-.242-.542-.541M5.417 26.542c0 .299-.243.541-.542.541"/>
                            <rect width="32.5" height="6.5" rx="1"/>
                            <path d="M2.167 0L8.667 6.5 16.25 0 23.833 6.5 30.333 0"/>
                        </g>
                    </g>
                </g>
            </g>
        </g>
    </g>
</svg>
