<svg xmlns="http://www.w3.org/2000/svg" width="45" height="33" viewBox="0 0 33 33">
    <g fill="none" fill-rule="evenodd" stroke-linecap="round" stroke-linejoin="round">
        <g stroke="#000" stroke-width="1.5">
            <g>
                <g>
                    <g>
                        <g transform="translate(-774.000000, -719.000000) translate(105.000000, 613.000000) translate(0.000000, 82.000000) translate(645.000000, 0.000000) translate(24.000000, 24.000000)">
                            <path d="M12.803 2.134h2.134c1.178 0 2.134.955 2.134 2.134v8.535c0 4.714-3.822 8.535-8.536 8.535C3.821 21.338 0 17.517 0 12.803V4.268c0-1.179.955-2.134 2.134-2.134h2.134M4.268 0L4.268 5.335M12.803 0L12.803 5.335"/>
                            <circle cx="27.74" cy="12.803" r="4.268"/>
                            <path d="M8.535 21.338v1.067c0 5.303 4.3 9.603 9.603 9.603s9.602-4.3 9.602-9.603v-5.334"/>
                        </g>
                    </g>
                </g>
            </g>
        </g>
    </g>
</svg>
