<svg xmlns="http://www.w3.org/2000/svg" width="45" height="28" viewBox="0 0 28 28">
    <g fill="none" fill-rule="evenodd" stroke-linecap="round" stroke-linejoin="round">
        <g stroke="#000" stroke-width="1.5">
            <g>
                <g>
                    <g>
                        <g>
                            <path d="M24.49 24.662l.852-.85c.47-.47.654-1.153.485-1.795L22.8 10.516l4.004-4.003c1.357-1.295 1.588-3.377.55-4.939-.637-.897-1.637-1.468-2.734-1.56-1.096-.093-2.178.302-2.956 1.08l-4.145 4.144L6.012 2.213c-.642-.17-1.326.015-1.796.485l-.851.85c-.407.407-.604.978-.533 1.548.07.57.4 1.077.892 1.373l7.853 4.708-5.975 6.768-1.868.028c-.578-.1-1.169.079-1.596.481L.274 20.161c-.22.219-.316.532-.257.836.059.304.264.559.55.68L4.17 23.71l2.365 3.726c.123.284.378.49.682.548.304.059.617-.037.837-.256l1.63-1.552c.46-.434.669-1.07.556-1.692l.03-1.872 6.587-6.156 4.712 7.847c.296.493.802.822 1.373.893.57.07 1.142-.127 1.548-.533z" transform="translate(-1292.000000, -721.000000) translate(105.000000, 613.000000) translate(0.000000, 82.000000) translate(1161.000000, 0.000000) translate(26.000000, 26.000000)"/>
                        </g>
                    </g>
                </g>
            </g>
        </g>
    </g>
</svg>
