<svg xmlns="http://www.w3.org/2000/svg" width="18" height="22" viewBox="0 0 18 22">
    <g fill="none" fill-opacity=".5" fill-rule="evenodd">
        <g fill="#000" fill-rule="nonzero" stroke="#F3F5F6">
            <g>
                <g>
                    <g>
                        <path d="M8.554 21.597c1.12 0 2.037-1.121 2.037-2.492H6.517c0 1.37.917 2.492 2.037 2.492zm6.416-6.645V9.414c0-3.4-1.743-6.246-4.812-7v-.753C10.158.742 9.442 0 8.554 0 7.667 0 6.95.742 6.95 1.661v.753c-3.058.754-4.811 3.589-4.811 7v5.538L0 17.167v1.107h17.108v-1.107l-2.138-2.215z" transform="translate(-386.000000, -963.000000) translate(80.000000, 873.000000) translate(0.000000, 70.000000) translate(306.000000, 20.000000)"/>
                    </g>
                </g>
            </g>
        </g>
    </g>
</svg>
