<svg xmlns="http://www.w3.org/2000/svg" width="45" height="27" viewBox="0 0 45 27">
    <g fill="none" fill-rule="evenodd" stroke-linecap="round" stroke-linejoin="round">
        <g stroke="#000" stroke-width="1.5">
            <g>
                <g>
                    <g>
                        <g>
                            <g>
                                <path d="M1 6L1 26M1 18h6c1.657 0 3 1.343 3 3v6M44 6L44 26M44 18h-6c-1.657 0-3 1.343-3 3v6M13 9L33 9M23 9L23 26M18 26L27 26M33 0c0 2.21-2.015 4-4.5 4S24 2.21 24 0h9zM28 3L28 9" transform="translate(-638.000000, -722.000000) translate(105.000000, 613.000000) translate(0.000000, 82.000000) translate(515.500000, 0.000000) translate(0.500000, 0.000000) translate(17.000000, 27.000000)"/>
                            </g>
                        </g>
                    </g>
                </g>
            </g>
        </g>
    </g>
</svg>
