<svg width="36" height="13" viewBox="0 0 36 13" fill="none" xmlns="http://www.w3.org/2000/svg">
<path d="M18.6924 0.824097L10.9197 0.824153" stroke="#444A46" stroke-width="1.2" stroke-linecap="round"/>
<path d="M20.07 10.2061L8.24768 10.3551" stroke="#444A46" stroke-width="1.2" stroke-linecap="round"/>
<path d="M16.605 5.09314L1 5.14745" stroke="#444A46" stroke-width="1.2" stroke-linecap="round"/>
<path fill-rule="evenodd" clip-rule="evenodd" d="M35.155 6.40381C33.28 1.51751 24.713 0.293083 21.5844 0.00639566C20.8963 -0.0566745 20.2645 0.352139 20.0071 0.993324C19.0341 3.41743 18.7285 6.04385 19.1022 8.60324L24.5119 8.41704C24.6658 8.4118 24.7949 8.53225 24.8002 8.68616C24.8055 8.84001 24.685 8.96911 24.5311 8.97441L19.194 9.15804C19.2917 9.68491 19.4183 10.208 19.5742 10.7252L19.6703 11.044C19.9003 11.8069 20.6175 12.3135 21.411 12.2405C24.9473 11.9152 34.2729 10.658 35.155 6.40381ZM31.8285 5.43439C32.0101 5.57709 32.2731 5.54553 32.4158 5.3639C32.5585 5.18228 32.5269 4.91935 32.3453 4.77664C31.2924 3.94943 29.5157 3.38603 27.7916 3.00984C26.0473 2.62919 24.2769 2.42414 23.1742 2.35154C22.9438 2.33637 22.7446 2.51091 22.7294 2.74139C22.7142 2.97187 22.8888 3.17106 23.1193 3.18623C24.1873 3.25655 25.9158 3.45669 27.6132 3.82708C29.3309 4.20187 30.9388 4.73538 31.8285 5.43439Z" fill="#444A46"/>
</svg>
