<svg xmlns="http://www.w3.org/2000/svg" width="88" height="88" viewBox="0 0 88 88">
    <g fill="none" fill-rule="evenodd">
        <circle cx="44" cy="44" r="44" fill="#FCF8EC"/>
        <path fill="#262626" d="M67.637 44.864l-3.352-2.512-2.78-8.344a3.422 3.422 0 0 0-3.232-2.326h-7.455v-2.274A3.413 3.413 0 0 0 47.41 26H22.408A3.413 3.413 0 0 0 19 29.408v25a3.413 3.413 0 0 0 3.408 3.408h4.66c.172.844.547 1.61 1.05 2.274h-4.573a1.137 1.137 0 1 0 0 2.273h9.092a5.69 5.69 0 0 0 5.566-4.545h15.002c.172.844.547 1.61 1.05 2.274l-2.3-.002a1.137 1.137 0 1 0 0 2.273h6.819a5.69 5.69 0 0 0 5.566-4.545h1.252a3.413 3.413 0 0 0 3.409-3.408v-6.818c0-1.06-.506-2.078-1.364-2.729zm-35 15.226a3.413 3.413 0 0 1-3.409-3.408 3.413 3.413 0 0 1 3.409-3.408 3.413 3.413 0 0 1 3.408 3.408 3.413 3.413 0 0 1-3.408 3.408zm15.908-4.545H38.203A5.691 5.691 0 0 0 32.636 51a5.69 5.69 0 0 0-5.566 4.545h-4.662c-.627 0-1.137-.51-1.137-1.137v-5.681h27.273v6.818zm0-9.09H21.273V29.408c0-.627.51-1.137 1.137-1.137h25c.627 0 1.137.51 1.137 1.137l-.002 17.047zm2.273-12.5h7.455c.488 0 .922.317 1.08.78l2.389 7.173h-2.268l.315-.629a1.138 1.138 0 0 0-2.033-1.017l-.823 1.646h-6.115v-7.953zm7.955 26.135a3.413 3.413 0 0 1-3.408-3.408 3.413 3.413 0 0 1 3.408-3.408 3.413 3.413 0 0 1 3.408 3.408 3.413 3.413 0 0 1-3.408 3.408zm7.953-5.681c0 .627-.51 1.136-1.137 1.136h-1.252A5.691 5.691 0 0 0 58.771 51a5.69 5.69 0 0 0-5.567 4.545h-2.386V44.182h12.12l3.329 2.496c.289.219.459.56.459.912v6.819z"/>
    </g>
</svg>
