<svg width="21" height="20" viewBox="0 0 21 20" fill="none" xmlns="http://www.w3.org/2000/svg">
<path d="M16.1759 19.689C15.9797 19.6884 15.7842 19.6679 15.5926 19.6278C11.9448 18.9092 8.58418 17.2242 5.89757 14.7667C3.26829 12.3039 1.44475 9.16817 0.64757 5.73895C0.553572 5.31157 0.576643 4.86834 0.714562 4.4519C0.852482 4.03547 1.10061 3.65984 1.43507 3.36117L3.7684 1.22228C3.88758 1.11494 4.02919 1.03274 4.18398 0.981049C4.33877 0.929356 4.50327 0.909331 4.66674 0.922281C4.83623 0.939122 4.9998 0.991122 5.14593 1.07463C5.29206 1.15813 5.41721 1.27111 5.51257 1.40561L8.42924 5.51117C8.53861 5.67047 8.59141 5.859 8.57986 6.04902C8.56831 6.23904 8.49302 6.42051 8.36507 6.56673L6.9009 8.23339C7.48403 9.46253 8.30986 10.5734 9.3334 11.5056C10.3503 12.4716 11.5523 13.2429 12.8742 13.7778L14.6884 12.4056C14.8408 12.2909 15.0262 12.2231 15.22 12.2112C15.4138 12.1993 15.6068 12.2439 15.7734 12.339L20.1776 15.0501C20.3287 15.136 20.4575 15.2534 20.5542 15.3935C20.6509 15.5335 20.7131 15.6926 20.7361 15.8588C20.7591 16.025 20.7424 16.1941 20.6871 16.3532C20.6317 16.5124 20.5393 16.6575 20.4167 16.7778L18.1417 18.9223C17.8833 19.1672 17.5766 19.361 17.2392 19.4926C16.9018 19.6242 16.5405 19.6909 16.1759 19.689ZM4.5734 2.02228L2.24007 4.16117C2.05192 4.32814 1.91264 4.53888 1.83593 4.77266C1.75922 5.00644 1.74772 5.25521 1.80257 5.4945C2.54382 8.71236 4.24774 11.6569 6.7084 13.9723C9.23669 16.2843 12.3992 17.8692 15.8317 18.5445C16.0916 18.5962 16.3608 18.5858 16.6153 18.514C16.8698 18.4423 17.1017 18.3115 17.2901 18.1334L19.5651 15.989L15.3126 13.3723L13.3642 14.8501C13.2897 14.9063 13.2018 14.9443 13.1082 14.9607C13.0147 14.9772 12.9183 14.9716 12.8276 14.9445C11.2098 14.3768 9.74375 13.4757 8.53424 12.3056C7.28319 11.193 6.3121 9.82562 5.6934 8.30562C5.66723 8.2136 5.66636 8.11671 5.69088 8.02428C5.7154 7.93185 5.76448 7.84698 5.8334 7.77784L7.4084 5.98339L4.5734 2.02228Z" fill="#8B8B8B"/>
</svg>
