<svg width="60" height="46" viewBox="0 0 60 46" fill="none" xmlns="http://www.w3.org/2000/svg">
<path d="M13.6371 18.5178H13.6371C16.0832 18.5176 18.4796 19.2162 20.5493 20.5331C22.6189 21.85 24.2775 23.7317 25.3324 25.961C26.3873 28.1902 26.7953 30.6756 26.5089 33.1295C26.2225 35.5833 25.2535 37.9047 23.7146 39.8253C22.1756 41.7458 20.1298 43.187 17.814 43.9826C15.4982 44.7782 13.0067 44.896 10.6275 44.3225C8.24824 43.7489 6.07794 42.5073 4.36791 40.7406C2.65783 38.9739 1.47796 36.7542 0.965377 34.3383L0.859544 33.8395L0.814018 33.8501C0.754817 33.4398 0.676337 32.8716 0.633957 32.2901L0.634092 32.29L0.632974 32.2784C0.509947 31.0016 0.450305 29.2247 0.550865 27.0797C0.672074 24.9432 0.984947 22.4509 1.68237 19.8309C2.05082 18.5227 2.50033 17.1805 3.05647 15.8709C3.12187 15.7316 3.18661 15.5929 3.25106 15.4549C3.81234 14.2527 4.35154 13.0977 5.10705 12.0362L5.11991 12.0181L5.13111 11.999C5.85977 10.7552 6.80464 9.65267 7.78775 8.57653L7.80072 8.56233L7.81257 8.54717C8.23189 8.01059 8.73201 7.55121 9.26768 7.10443C9.45386 6.94914 9.64986 6.79115 9.84837 6.63113C10.2003 6.34746 10.5601 6.05744 10.887 5.7649C11.3778 5.35259 11.9071 5.01265 12.4525 4.68936C12.634 4.5818 12.8213 4.4739 13.01 4.36519C13.376 4.1543 13.7472 3.94037 14.0919 3.71998L14.092 3.72009L14.1016 3.71361C14.5717 3.39736 15.0665 3.168 15.5751 2.96144C15.7502 2.89028 15.9345 2.81915 16.1211 2.7471C16.4494 2.62037 16.785 2.49081 17.0913 2.35336C17.3442 2.25415 17.5826 2.15625 17.8096 2.06305C18.4901 1.7836 19.0679 1.54633 19.627 1.44224L19.6432 1.43923L19.6591 1.43517C20.1166 1.31846 20.5307 1.21568 20.9111 1.12123C21.1973 1.05018 21.4646 0.983848 21.717 0.919849C21.7178 0.919652 21.7185 0.919456 21.7193 0.91926L23.0166 0.60354L24.2443 5.55356L23.2231 5.98183L23.2216 5.98245L21.6282 6.64466C21.261 6.76711 20.9181 6.94934 20.595 7.13951C20.4465 7.22693 20.297 7.31917 20.15 7.40985C20.1339 7.4198 20.1178 7.42972 20.1018 7.43962C19.9375 7.54092 19.775 7.6406 19.6082 7.73707L19.5936 7.74555L19.5795 7.755C19.3683 7.89708 19.149 8.01895 18.9052 8.15443C18.7868 8.22023 18.6626 8.28924 18.5307 8.36534C18.1496 8.58528 17.7396 8.847 17.3762 9.20693C17.1483 9.41934 16.9024 9.61256 16.6347 9.82294C16.5449 9.89346 16.4527 9.96592 16.3579 10.0417C15.9908 10.3351 15.602 10.6655 15.2671 11.0724L15.2613 11.0794L15.2558 11.0865C15.0603 11.3424 14.8451 11.5718 14.6102 11.8223C14.5216 11.9168 14.4302 12.0143 14.336 12.1173C14.0113 12.4722 13.6737 12.8735 13.422 13.3638C13.4102 13.3818 13.3984 13.3999 13.3866 13.4181C12.8835 14.189 12.3478 15.01 11.9951 15.9572C11.6359 16.641 11.4144 17.3902 11.2133 18.0726L10.9923 18.8222L11.7655 18.7087C11.8113 18.7019 11.8568 18.6952 11.9021 18.6885C12.4992 18.6004 13.0583 18.5178 13.6371 18.5178ZM44.1153 18.0726L43.8944 18.8222L44.6676 18.7087C44.7133 18.7019 44.7588 18.6952 44.8041 18.6885C45.4013 18.6003 45.9604 18.5178 46.5392 18.5178C48.9852 18.5176 51.3817 19.2162 53.4513 20.5331C55.521 21.85 57.1795 23.7317 58.2344 25.961C59.2894 28.1902 59.6974 30.6756 59.411 33.1295C59.1246 35.5833 58.1556 37.9047 56.6166 39.8253C55.0777 41.7458 53.0318 43.187 50.716 43.9826C48.4003 44.7782 45.9088 44.896 43.5296 44.3225C41.1503 43.7489 38.98 42.5073 37.27 40.7406C35.5599 38.9739 34.38 36.7542 33.8674 34.3383L33.7616 33.8395L33.7161 33.85C33.6569 33.4398 33.5784 32.8716 33.536 32.2901L33.5362 32.29L33.535 32.2784C33.412 31.0016 33.3524 29.2247 33.4529 27.0797C33.5741 24.9432 33.887 22.4509 34.5844 19.8309C34.9529 18.5227 35.4024 17.1804 35.9586 15.8708C36.024 15.7316 36.0887 15.5929 36.1532 15.4548C36.7144 14.2526 37.2536 13.0977 38.0091 12.0362L38.022 12.0181L38.0332 11.999C38.7618 10.7552 39.7067 9.65267 40.6898 8.57653L40.7026 8.56256L40.7142 8.54767C41.1336 8.01243 41.6338 7.55371 42.1696 7.1072C42.3549 6.9528 42.5497 6.79577 42.7471 6.63673C43.1001 6.35232 43.461 6.0615 43.7891 5.76789C44.2799 5.35559 44.8091 5.01566 45.3546 4.69238C45.5361 4.58482 45.7234 4.47692 45.912 4.36821C46.278 4.15733 46.6493 3.94339 46.994 3.723L46.994 3.72313L47.0045 3.71606C47.4741 3.3988 47.9691 3.16961 48.4781 2.96299C48.6484 2.89386 48.827 2.82487 49.0078 2.75498C49.3413 2.62614 49.6825 2.49427 49.9942 2.35302C50.2468 2.25392 50.4849 2.15615 50.7117 2.06305C51.3922 1.7836 51.97 1.54633 52.5291 1.44224L52.5453 1.43923L52.5612 1.43517C53.0187 1.31846 53.4327 1.21568 53.8132 1.12123C54.0994 1.05018 54.3666 0.983846 54.6191 0.919841C54.6198 0.919647 54.6206 0.919453 54.6214 0.919259L55.9187 0.603539L57.1464 5.55356L56.1252 5.98183L56.1237 5.98245L54.5302 6.64466C54.163 6.76711 53.8202 6.94934 53.4971 7.13951C53.3485 7.22694 53.199 7.3192 53.052 7.4099L53.0039 7.43962C52.8396 7.54092 52.6771 7.6406 52.5103 7.73707L52.4956 7.74555L52.4816 7.755C52.2704 7.89708 52.051 8.01895 51.8072 8.15443C51.6888 8.22023 51.5646 8.28924 51.4328 8.36534C51.0517 8.58527 50.6416 8.84699 50.2783 9.20689C50.0504 9.41932 49.8045 9.61256 49.5367 9.82295C49.447 9.89347 49.3548 9.96592 49.26 10.0417C48.8928 10.3351 48.5041 10.6655 48.1691 11.0724L48.1634 11.0794L48.1579 11.0865C47.9624 11.3424 47.7472 11.5718 47.5123 11.8223C47.4237 11.9168 47.3323 12.0143 47.238 12.1173C46.9134 12.4722 46.5758 12.8734 46.3241 13.3638C46.3123 13.3818 46.3005 13.3999 46.2887 13.418C45.7856 14.189 45.2499 15.01 44.8972 15.9572C44.538 16.641 44.3165 17.3902 44.1153 18.0726Z" fill="#F6812A" fill-opacity="0.2" stroke="#F6812A"/>
</svg>
